<svg width="210" height="45" viewBox="0 0 210 45" fill="none" xmlns="http://www.w3.org/2000/svg">
<g filter="url(#filter0_f_1579_2458)">
<path d="M59.1183 20.928C58.3503 20.64 57.5823 20.448 56.8143 20.256C56.4623 20.16 56.0783 20.064 55.7263 19.968L55.4703 20.928C55.3743 21.344 55.5983 21.792 56.0463 21.888C56.1423 21.92 56.2703 21.952 56.3663 21.984C57.1343 22.144 57.8383 22.336 58.5423 22.592C60.8783 23.456 62.1263 25.024 61.8063 26.816C61.4543 28.704 59.3743 30.624 55.9823 30.624C53.8703 30.624 51.9503 29.792 50.8943 28.448C50.6703 28.16 50.2543 28.096 49.9343 28.256L49.0063 28.8C50.2223 30.976 52.9743 32.416 55.9823 32.416C60.3343 32.416 63.0863 29.76 63.5663 27.136C63.9183 25.024 62.9583 22.304 59.1183 20.928ZM52.6543 13.312C54.0943 12.288 56.0463 11.936 57.9343 12.32C59.2463 12.608 60.3663 13.216 61.0703 14.08C61.3263 14.368 61.7423 14.432 62.0623 14.24L62.9903 13.696C62.0623 12.16 60.3663 11.008 58.2863 10.592C55.9503 10.08 53.4543 10.56 51.6303 11.872C50.5103 12.672 49.7103 13.952 49.4863 15.264L50.5423 15.456C50.9263 15.52 51.2783 15.296 51.4063 14.944C51.6623 14.304 52.1103 13.728 52.6543 13.312ZM85.1095 11.936C86.4215 11.936 87.7015 12.224 88.9175 12.736C89.2695 12.928 89.7175 12.768 89.9095 12.416L90.3575 11.584C88.7575 10.688 86.9335 10.24 85.1095 10.24C78.9975 10.24 74.0375 15.2 74.0375 21.312C74.0375 27.424 78.9975 32.416 85.1095 32.416C86.9335 32.416 88.7575 31.936 90.3575 31.072L89.9095 30.24C89.7175 29.888 89.2695 29.728 88.9175 29.888C87.7015 30.432 86.4215 30.688 85.1095 30.688C79.9255 30.688 75.7335 26.496 75.7335 21.312C75.7335 16.16 79.9255 11.936 85.1095 11.936ZM100.194 32H101.122C101.57 32 101.922 31.68 101.922 31.232V10.88H100.962C100.514 10.88 100.194 11.232 100.194 11.648V32ZM122.368 20.928C121.6 20.64 120.832 20.448 120.064 20.256C119.712 20.16 119.328 20.064 118.976 19.968L118.72 20.928C118.624 21.344 118.848 21.792 119.296 21.888C119.392 21.92 119.52 21.952 119.616 21.984C120.384 22.144 121.088 22.336 121.792 22.592C124.128 23.456 125.376 25.024 125.056 26.816C124.704 28.704 122.624 30.624 119.232 30.624C117.12 30.624 115.2 29.792 114.144 28.448C113.92 28.16 113.504 28.096 113.184 28.256L112.256 28.8C113.472 30.976 116.224 32.416 119.232 32.416C123.584 32.416 126.336 29.76 126.816 27.136C127.168 25.024 126.208 22.304 122.368 20.928ZM115.904 13.312C117.344 12.288 119.296 11.936 121.184 12.32C122.496 12.608 123.616 13.216 124.32 14.08C124.576 14.368 124.992 14.432 125.312 14.24L126.24 13.696C125.312 12.16 123.616 11.008 121.536 10.592C119.2 10.08 116.704 10.56 114.88 11.872C113.76 12.672 112.96 13.952 112.736 15.264L113.792 15.456C114.176 15.52 114.528 15.296 114.656 14.944C114.912 14.304 115.36 13.728 115.904 13.312ZM139.587 32H151.971V31.136C151.971 30.688 151.619 30.368 151.203 30.368H138.819V31.232C138.819 31.68 139.139 32 139.587 32ZM150.915 20.32H139.587C139.139 20.32 138.819 20.64 138.819 21.088V21.952H150.115C150.563 21.952 150.915 21.632 150.915 21.184V20.32ZM138.819 12.512H151.203C151.619 12.512 151.971 12.16 151.971 11.744V10.848H139.587C139.139 10.848 138.819 11.2 138.819 11.616V12.512ZM163.788 11.68V12.576H175.948C176.364 12.576 176.716 12.224 176.716 11.808V10.88H164.556C164.108 10.88 163.788 11.232 163.788 11.68ZM170.316 32C170.732 32 171.083 31.68 171.083 31.232V16.384H170.188C169.74 16.384 169.388 16.736 169.388 17.152V32H170.316ZM195.493 20.928C194.725 20.64 193.957 20.448 193.189 20.256C192.837 20.16 192.453 20.064 192.101 19.968L191.845 20.928C191.749 21.344 191.973 21.792 192.421 21.888C192.517 21.92 192.645 21.952 192.741 21.984C193.509 22.144 194.213 22.336 194.917 22.592C197.253 23.456 198.501 25.024 198.181 26.816C197.829 28.704 195.749 30.624 192.357 30.624C190.245 30.624 188.325 29.792 187.269 28.448C187.045 28.16 186.629 28.096 186.309 28.256L185.381 28.8C186.597 30.976 189.349 32.416 192.357 32.416C196.709 32.416 199.461 29.76 199.941 27.136C200.293 25.024 199.333 22.304 195.493 20.928ZM189.029 13.312C190.469 12.288 192.421 11.936 194.309 12.32C195.621 12.608 196.741 13.216 197.445 14.08C197.701 14.368 198.117 14.432 198.437 14.24L199.365 13.696C198.437 12.16 196.741 11.008 194.661 10.592C192.325 10.08 189.829 10.56 188.005 11.872C186.885 12.672 186.085 13.952 185.861 15.264L186.917 15.456C187.301 15.52 187.653 15.296 187.781 14.944C188.037 14.304 188.485 13.728 189.029 13.312Z" fill="url(#paint0_linear_1579_2458)"/>
</g>
<g filter="url(#filter1_bd_1579_2458)">
<path d="M59.1183 20.928C58.3503 20.64 57.5823 20.448 56.8143 20.256C56.4623 20.16 56.0783 20.064 55.7263 19.968L55.4703 20.928C55.3743 21.344 55.5983 21.792 56.0463 21.888C56.1423 21.92 56.2703 21.952 56.3663 21.984C57.1343 22.144 57.8383 22.336 58.5423 22.592C60.8783 23.456 62.1263 25.024 61.8063 26.816C61.4543 28.704 59.3743 30.624 55.9823 30.624C53.8703 30.624 51.9503 29.792 50.8943 28.448C50.6703 28.16 50.2543 28.096 49.9343 28.256L49.0063 28.8C50.2223 30.976 52.9743 32.416 55.9823 32.416C60.3343 32.416 63.0863 29.76 63.5663 27.136C63.9183 25.024 62.9583 22.304 59.1183 20.928ZM52.6543 13.312C54.0943 12.288 56.0463 11.936 57.9343 12.32C59.2463 12.608 60.3663 13.216 61.0703 14.08C61.3263 14.368 61.7423 14.432 62.0623 14.24L62.9903 13.696C62.0623 12.16 60.3663 11.008 58.2863 10.592C55.9503 10.08 53.4543 10.56 51.6303 11.872C50.5103 12.672 49.7103 13.952 49.4863 15.264L50.5423 15.456C50.9263 15.52 51.2783 15.296 51.4063 14.944C51.6623 14.304 52.1103 13.728 52.6543 13.312ZM85.1095 11.936C86.4215 11.936 87.7015 12.224 88.9175 12.736C89.2695 12.928 89.7175 12.768 89.9095 12.416L90.3575 11.584C88.7575 10.688 86.9335 10.24 85.1095 10.24C78.9975 10.24 74.0375 15.2 74.0375 21.312C74.0375 27.424 78.9975 32.416 85.1095 32.416C86.9335 32.416 88.7575 31.936 90.3575 31.072L89.9095 30.24C89.7175 29.888 89.2695 29.728 88.9175 29.888C87.7015 30.432 86.4215 30.688 85.1095 30.688C79.9255 30.688 75.7335 26.496 75.7335 21.312C75.7335 16.16 79.9255 11.936 85.1095 11.936ZM100.194 32H101.122C101.57 32 101.922 31.68 101.922 31.232V10.88H100.962C100.514 10.88 100.194 11.232 100.194 11.648V32ZM122.368 20.928C121.6 20.64 120.832 20.448 120.064 20.256C119.712 20.16 119.328 20.064 118.976 19.968L118.72 20.928C118.624 21.344 118.848 21.792 119.296 21.888C119.392 21.92 119.52 21.952 119.616 21.984C120.384 22.144 121.088 22.336 121.792 22.592C124.128 23.456 125.376 25.024 125.056 26.816C124.704 28.704 122.624 30.624 119.232 30.624C117.12 30.624 115.2 29.792 114.144 28.448C113.92 28.16 113.504 28.096 113.184 28.256L112.256 28.8C113.472 30.976 116.224 32.416 119.232 32.416C123.584 32.416 126.336 29.76 126.816 27.136C127.168 25.024 126.208 22.304 122.368 20.928ZM115.904 13.312C117.344 12.288 119.296 11.936 121.184 12.32C122.496 12.608 123.616 13.216 124.32 14.08C124.576 14.368 124.992 14.432 125.312 14.24L126.24 13.696C125.312 12.16 123.616 11.008 121.536 10.592C119.2 10.08 116.704 10.56 114.88 11.872C113.76 12.672 112.96 13.952 112.736 15.264L113.792 15.456C114.176 15.52 114.528 15.296 114.656 14.944C114.912 14.304 115.36 13.728 115.904 13.312ZM139.587 32H151.971V31.136C151.971 30.688 151.619 30.368 151.203 30.368H138.819V31.232C138.819 31.68 139.139 32 139.587 32ZM150.915 20.32H139.587C139.139 20.32 138.819 20.64 138.819 21.088V21.952H150.115C150.563 21.952 150.915 21.632 150.915 21.184V20.32ZM138.819 12.512H151.203C151.619 12.512 151.971 12.16 151.971 11.744V10.848H139.587C139.139 10.848 138.819 11.2 138.819 11.616V12.512ZM163.788 11.68V12.576H175.948C176.364 12.576 176.716 12.224 176.716 11.808V10.88H164.556C164.108 10.88 163.788 11.232 163.788 11.68ZM170.316 32C170.732 32 171.083 31.68 171.083 31.232V16.384H170.188C169.74 16.384 169.388 16.736 169.388 17.152V32H170.316ZM195.493 20.928C194.725 20.64 193.957 20.448 193.189 20.256C192.837 20.16 192.453 20.064 192.101 19.968L191.845 20.928C191.749 21.344 191.973 21.792 192.421 21.888C192.517 21.92 192.645 21.952 192.741 21.984C193.509 22.144 194.213 22.336 194.917 22.592C197.253 23.456 198.501 25.024 198.181 26.816C197.829 28.704 195.749 30.624 192.357 30.624C190.245 30.624 188.325 29.792 187.269 28.448C187.045 28.16 186.629 28.096 186.309 28.256L185.381 28.8C186.597 30.976 189.349 32.416 192.357 32.416C196.709 32.416 199.461 29.76 199.941 27.136C200.293 25.024 199.333 22.304 195.493 20.928ZM189.029 13.312C190.469 12.288 192.421 11.936 194.309 12.32C195.621 12.608 196.741 13.216 197.445 14.08C197.701 14.368 198.117 14.432 198.437 14.24L199.365 13.696C198.437 12.16 196.741 11.008 194.661 10.592C192.325 10.08 189.829 10.56 188.005 11.872C186.885 12.672 186.085 13.952 185.861 15.264L186.917 15.456C187.301 15.52 187.653 15.296 187.781 14.944C188.037 14.304 188.485 13.728 189.029 13.312Z" fill="url(#paint1_linear_1579_2458)"/>
</g>
<g filter="url(#filter2_f_1579_2458)">
<path fill-rule="evenodd" clip-rule="evenodd" d="M14.9698 4.81956C14.952 4.88266 14.9315 4.94463 14.9084 5.00532L21.6078 13.1701L26.8658 5.49966C26.7209 5.29581 26.6097 5.06642 26.5401 4.81956H14.9698ZM12.8357 6.43392C12.995 6.43392 13.1504 6.41712 13.3002 6.38519L20.1831 14.7736H6.40744C6.33184 14.2878 6.09849 13.8542 5.76141 13.5268L7.04616 11.9139C7.14985 11.7838 7.12838 11.5942 6.99821 11.4905C6.86804 11.3868 6.67846 11.4083 6.57477 11.5384L5.27587 13.169C4.96123 12.9977 4.60047 12.9003 4.21696 12.9003C2.99257 12.9003 2 13.8928 2 15.1172C2 16.3416 2.99257 17.3342 4.21696 17.3342C4.25889 17.3342 4.30055 17.333 4.3419 17.3307L12.1951 26.9016L6.756 34.8363C6.5176 34.7487 6.25998 34.7008 5.99118 34.7008C4.76679 34.7008 3.77422 35.6934 3.77422 36.9178C3.77422 38.1422 4.76679 39.1347 5.99118 39.1347C7.00558 39.1347 7.86085 38.4535 8.12439 37.5235H19.6779C19.9414 38.4535 20.7967 39.1347 21.8111 39.1347C23.0355 39.1347 24.028 38.1422 24.028 36.9178C24.028 36.3637 23.8248 35.8571 23.4887 35.4684L24.7807 33.8466C24.8843 33.7164 24.8629 33.5268 24.7327 33.4232C24.6025 33.3195 24.413 33.3409 24.3093 33.4711L23.0359 35.0696C22.685 34.8366 22.2639 34.7008 21.8111 34.7008C21.6604 34.7008 21.5132 34.7159 21.371 34.7445L14.5388 26.4181H28.2521C28.3409 26.905 28.5889 27.3365 28.9401 27.6566L27.693 29.2222C27.5893 29.3524 27.6107 29.542 27.7409 29.6457C27.8711 29.7493 28.0607 29.7279 28.1644 29.5977L29.4378 27.9991C29.737 28.1497 30.0751 28.2345 30.4329 28.2345C31.6573 28.2345 32.6499 27.2419 32.6499 26.0175C32.6499 24.7931 31.6573 23.8006 30.4329 23.8006C30.3992 23.8006 30.3657 23.8013 30.3324 23.8028L22.4914 14.2468L27.9338 6.30727C28.1653 6.38928 28.4146 6.43392 28.6742 6.43392C29.8986 6.43392 30.8912 5.44135 30.8912 4.21696C30.8912 2.99257 29.8986 2 28.6742 2C27.6598 2 26.8046 2.68123 26.541 3.61115H14.9689C14.7053 2.68123 13.8501 2 12.8357 2C11.6113 2 10.6188 2.99257 10.6188 4.21696C10.6188 4.79787 10.8422 5.32659 11.2078 5.72189L9.95822 7.29057C9.85453 7.42074 9.87599 7.61033 10.0062 7.71402C10.1363 7.81771 10.3259 7.79624 10.4296 7.66607L11.6731 6.10499C12.0111 6.31357 12.4094 6.43392 12.8357 6.43392ZM13.0786 27.9784L7.81501 35.6571C7.95233 35.8553 8.05815 36.0771 8.12523 36.3151H19.677C19.6971 36.2438 19.7207 36.174 19.7475 36.1059L13.0786 27.9784ZM13.4425 25.0819L20.007 15.5054H6.40005C6.35634 15.7529 6.27157 15.9862 6.15303 16.1981L13.4425 25.0819ZM14.6498 25.6862L21.244 16.0665L28.5072 24.9183C28.3741 25.1511 28.2819 25.4104 28.2406 25.6862H14.6498ZM8.42897 10.1755L9.04203 9.40587C9.14572 9.2757 9.12426 9.08612 8.99408 8.98243C8.86391 8.87873 8.67433 8.9002 8.57064 9.03037L7.95758 9.79999C7.85389 9.93016 7.87535 10.1197 8.00553 10.2234C8.1357 10.3271 8.32528 10.3057 8.42897 10.1755ZM26.7788 31.3354L26.1658 32.1051C26.0621 32.2352 25.8725 32.2567 25.7423 32.153C25.6122 32.0493 25.5907 31.8597 25.6944 31.7296L26.3075 30.9599C26.4111 30.8298 26.6007 30.8083 26.7309 30.912C26.8611 31.0157 26.8825 31.2053 26.7788 31.3354Z" fill="url(#paint2_linear_1579_2458)"/>
</g>
<g filter="url(#filter3_d_1579_2458)">
<path fill-rule="evenodd" clip-rule="evenodd" d="M14.9697 4.81988C14.9519 4.88284 14.9315 4.94467 14.9084 5.00523L21.608 13.1702L26.8659 5.49982C26.7211 5.29602 26.6098 5.06668 26.5402 4.81988H14.9697ZM12.8357 6.43393C12.995 6.43393 13.1504 6.41712 13.3002 6.38518L20.1832 14.7736H6.4075C6.33196 14.2878 6.09869 13.8542 5.7617 13.5268L7.04626 11.9142C7.14995 11.784 7.12849 11.5944 6.99832 11.4907C6.86814 11.387 6.67856 11.4085 6.57487 11.5387L5.27622 13.169C4.9615 12.9975 4.60061 12.9 4.21697 12.9C2.99257 12.9 2 13.8926 2 15.117C2 16.3414 2.99257 17.3339 4.21697 17.3339C4.25878 17.3339 4.30031 17.3328 4.34155 17.3305L12.1952 26.9019L6.75621 34.8364C6.51776 34.7487 6.26009 34.7008 5.99123 34.7008C4.76683 34.7008 3.77427 35.6934 3.77427 36.9178C3.77427 38.1422 4.76683 39.1348 5.99123 39.1348C7.00547 39.1348 7.86063 38.4537 8.12432 37.524H19.6781C19.9418 38.4537 20.7969 39.1348 21.8112 39.1348C23.0356 39.1348 24.0281 38.1422 24.0281 36.9178C24.0281 36.3638 23.8249 35.8572 23.489 35.4686L24.7808 33.8469C24.8845 33.7167 24.863 33.5271 24.7329 33.4234C24.6027 33.3197 24.4131 33.3412 24.3094 33.4714L23.0362 35.0697C22.6852 34.8366 22.2641 34.7008 21.8112 34.7008C21.6604 34.7008 21.5132 34.7159 21.3708 34.7446L14.5389 26.4183H28.2523C28.3411 26.9054 28.5891 27.3368 28.9404 27.6569L27.6932 29.2227C27.5895 29.3528 27.6109 29.5424 27.7411 29.6461C27.8713 29.7498 28.0609 29.7283 28.1646 29.5982L29.4381 27.9994C29.7373 28.15 30.0753 28.2348 30.4331 28.2348C31.6575 28.2348 32.6501 27.2422 32.6501 26.0178C32.6501 24.7934 31.6575 23.8008 30.4331 23.8008C30.3995 23.8008 30.366 23.8016 30.3327 23.8031L22.4916 14.2469L27.934 6.30735C28.1655 6.38932 28.4147 6.43393 28.6742 6.43393C29.8986 6.43393 30.8912 5.44136 30.8912 4.21697C30.8912 2.99257 29.8986 2 28.6742 2C27.6598 2 26.8044 2.68139 26.541 3.61146H14.969C14.7055 2.68139 13.8502 2 12.8357 2C11.6113 2 10.6187 2.99257 10.6187 4.21697C10.6187 4.79793 10.8422 5.32669 11.2079 5.722L9.95819 7.29079C9.8545 7.42096 9.87597 7.61054 10.0061 7.71423C10.1363 7.81793 10.3259 7.79646 10.4296 7.66629L11.6732 6.10508C12.0112 6.31361 12.4094 6.43393 12.8357 6.43393ZM13.0787 27.9786L7.81517 35.6572C7.95252 35.8556 8.05835 36.0774 8.12541 36.3155H19.677C19.6971 36.2442 19.7207 36.1743 19.7475 36.1061L13.0787 27.9786ZM13.4425 25.0822L20.0073 15.5054H6.40002C6.35628 15.7529 6.27147 15.9863 6.15289 16.1981L13.4425 25.0822ZM14.6499 25.6865L21.2442 16.0666L28.5075 24.9185C28.3743 25.1513 28.2821 25.4106 28.2407 25.6865H14.6499ZM8.42892 10.1752L9.04198 9.40556C9.14567 9.27539 9.12421 9.08581 8.99403 8.98212C8.86386 8.87843 8.67428 8.89989 8.57059 9.03006L7.95753 9.79969C7.85383 9.92986 7.8753 10.1194 8.00547 10.2231C8.13564 10.3268 8.32523 10.3054 8.42892 10.1752ZM26.779 31.3358L26.1659 32.1054C26.0622 32.2356 25.8726 32.2571 25.7425 32.1534C25.6123 32.0497 25.5908 31.8601 25.6945 31.7299L26.3076 30.9603C26.4113 30.8302 26.6009 30.8087 26.731 30.9124C26.8612 31.0161 26.8827 31.2057 26.779 31.3358Z" fill="url(#paint3_linear_1579_2458)"/>
</g>
<defs>
<filter id="filter0_f_1579_2458" x="47.0062" y="8.08008" width="155.287" height="26.3359" filterUnits="userSpaceOnUse" color-interpolation-filters="sRGB">
<feFlood flood-opacity="0" result="BackgroundImageFix"/>
<feBlend mode="normal" in="SourceGraphic" in2="BackgroundImageFix" result="shape"/>
<feGaussianBlur stdDeviation="1" result="effect1_foregroundBlur_1579_2458"/>
</filter>
<filter id="filter1_bd_1579_2458" x="27.0062" y="-11.9199" width="195.287" height="66.3359" filterUnits="userSpaceOnUse" color-interpolation-filters="sRGB">
<feFlood flood-opacity="0" result="BackgroundImageFix"/>
<feGaussianBlur in="BackgroundImageFix" stdDeviation="11"/>
<feComposite in2="SourceAlpha" operator="in" result="effect1_backgroundBlur_1579_2458"/>
<feColorMatrix in="SourceAlpha" type="matrix" values="0 0 0 0 0 0 0 0 0 0 0 0 0 0 0 0 0 0 127 0" result="hardAlpha"/>
<feOffset dy="1"/>
<feGaussianBlur stdDeviation="0.5"/>
<feComposite in2="hardAlpha" operator="out"/>
<feColorMatrix type="matrix" values="0 0 0 0 0.14902 0 0 0 0 0.890196 0 0 0 0 0.670588 0 0 0 0.41 0"/>
<feBlend mode="normal" in2="effect1_backgroundBlur_1579_2458" result="effect2_dropShadow_1579_2458"/>
<feBlend mode="normal" in="SourceGraphic" in2="effect2_dropShadow_1579_2458" result="shape"/>
</filter>
<filter id="filter2_f_1579_2458" x="0" y="0" width="34.6499" height="41.1348" filterUnits="userSpaceOnUse" color-interpolation-filters="sRGB">
<feFlood flood-opacity="0" result="BackgroundImageFix"/>
<feBlend mode="normal" in="SourceGraphic" in2="BackgroundImageFix" result="shape"/>
<feGaussianBlur stdDeviation="1" result="effect1_foregroundBlur_1579_2458"/>
</filter>
<filter id="filter3_d_1579_2458" x="1" y="2" width="32.6501" height="39.1348" filterUnits="userSpaceOnUse" color-interpolation-filters="sRGB">
<feFlood flood-opacity="0" result="BackgroundImageFix"/>
<feColorMatrix in="SourceAlpha" type="matrix" values="0 0 0 0 0 0 0 0 0 0 0 0 0 0 0 0 0 0 127 0" result="hardAlpha"/>
<feOffset dy="1"/>
<feGaussianBlur stdDeviation="0.5"/>
<feComposite in2="hardAlpha" operator="out"/>
<feColorMatrix type="matrix" values="0 0 0 0 0.14902 0 0 0 0 0.890196 0 0 0 0 0.670588 0 0 0 0.41 0"/>
<feBlend mode="normal" in2="BackgroundImageFix" result="effect1_dropShadow_1579_2458"/>
<feBlend mode="normal" in="SourceGraphic" in2="effect1_dropShadow_1579_2458" result="shape"/>
</filter>
<linearGradient id="paint0_linear_1579_2458" x1="117.295" y1="37" x2="117.295" y2="4" gradientUnits="userSpaceOnUse">
<stop stop-color="#26E3AB"/>
<stop offset="1" stop-color="#37BBFE"/>
</linearGradient>
<linearGradient id="paint1_linear_1579_2458" x1="124.5" y1="7" x2="124.5" y2="45" gradientUnits="userSpaceOnUse">
<stop stop-color="#434343"/>
<stop offset="1"/>
</linearGradient>
<linearGradient id="paint2_linear_1579_2458" x1="20.8615" y1="39.3157" x2="20.8615" y2="-3.12294" gradientUnits="userSpaceOnUse">
<stop stop-color="#26E3AB"/>
<stop offset="1" stop-color="#37BBFE"/>
</linearGradient>
<linearGradient id="paint3_linear_1579_2458" x1="17.325" y1="2" x2="17.325" y2="46.0107" gradientUnits="userSpaceOnUse">
<stop stop-color="#434343"/>
<stop offset="1"/>
</linearGradient>
</defs>
</svg>
