<svg width="96" height="27" viewBox="0 0 96 27" fill="none" xmlns="http://www.w3.org/2000/svg">
<path d="M19.5289 3.64586L6.99305 19.5396C5.75359 21.1266 3.8879 22.0352 1.87354 22.0352H0.697266V25.7592H1.86983C5.12364 25.7592 8.13774 24.2931 10.1279 21.7398L12.6106 18.6959H24.1113V25.9432H28.0137V0.486816H26.0216C23.461 0.486816 21.0917 1.64079 19.5289 3.64586ZM15.6897 14.7955L22.6638 5.9501C23.0391 5.46695 23.591 5.03774 24.1113 4.76086V14.7955H15.6879H15.6897Z" fill="white"/>
<path d="M35.4468 7.73438H31.5444V25.9454H35.4468V7.73438Z" fill="white"/>
<path fill-rule="evenodd" clip-rule="evenodd" d="M62.7632 16.6875C62.7632 10.8433 66.7269 7.36279 71.9783 7.36279C77.7723 7.36279 81.16 11.4156 81.16 16.6875C81.16 22.7362 77.3338 26.317 71.9783 26.317C66.1508 26.317 62.7632 22.227 62.7632 16.6875ZM71.9791 22.9721C69.0434 22.9721 66.8513 20.6497 66.8513 16.6867C66.8513 13.1015 68.8732 10.7076 71.9791 10.7076C75.085 10.7076 77.0717 13.0978 77.0717 16.6867C77.0717 20.2757 75.1812 22.9721 71.9791 22.9721Z" fill="white"/>
<path d="M87.478 7.73438H83.5757V25.9454H87.478V7.73438Z" fill="white"/>
<path d="M94.9111 0.487305H91.0088V25.9455H94.9111V0.487305Z" fill="white"/>
<path d="M52.9144 5.74061V7.73452H48.9378C45.8772 7.73452 44.0598 8.79373 42.8798 11.2652V7.73452H38.9775V25.9455H42.8798V16.9087C42.8798 13.4765 45.1395 11.451 48.9656 11.451H52.9144V25.9455H56.8168V11.451H62.2058V7.73452H56.8168V5.94502C56.8168 4.5792 57.5304 3.83218 58.8237 3.83218H62.5774V0.487305H58.6658C54.9232 0.487305 52.9144 2.32699 52.9144 5.74061Z" fill="white"/>
<path d="M85.4336 5.50439C86.8704 5.50439 88.0352 4.33963 88.0352 2.90283C88.0352 1.46603 86.8704 0.30127 85.4336 0.30127C83.9968 0.30127 82.832 1.46603 82.832 2.90283C82.832 4.33963 83.9968 5.50439 85.4336 5.50439Z" fill="white"/>
<path d="M33.4028 5.50439C34.8396 5.50439 36.0044 4.33963 36.0044 2.90283C36.0044 1.46603 34.8396 0.30127 33.4028 0.30127C31.966 0.30127 30.8013 1.46603 30.8013 2.90283C30.8013 4.33963 31.966 5.50439 33.4028 5.50439Z" fill="white"/>
</svg>
