<svg width="778" height="778" viewBox="0 0 778 778" fill="none" xmlns="http://www.w3.org/2000/svg">
<g clip-path="url(#clip0_792_1648)">
<path d="M777.553 389C777.553 603.569 603.57 777.552 389 777.552C281.716 777.552 184.578 733.982 114.149 663.702C43.72 593.423 0.298828 496.285 0.298828 389C0.298828 281.715 43.8692 184.577 114.149 114.148C184.428 43.7196 281.716 0.298401 389 0.298401C603.57 0.298401 777.553 174.431 777.553 389Z" stroke="#9D84FF" stroke-width="0.5" stroke-miterlimit="10"/>
<path d="M387.564 3C493.804 3 589.45 46.272 658.536 116.104C727.771 185.936 770.446 282.179 770.297 388.568C770.297 433.481 762.538 476.455 748.363 516.593C695.839 666.105 553.937 773.689 387.116 774.733C281.175 775.628 185.081 733.401 114.951 663.867C100.179 649.244 87.943 632.234 77.0504 614.627C64.5165 594.185 53.6239 572.847 44.8203 551.509C38.7025 536.588 31.9879 522.86 25.8702 508.536C17.8126 489.287 11.5457 469.143 7.36767 447.06C4.08497 429.154 2.74205 409.16 3.04047 388.867C4.23418 282.626 46.3124 186.384 115.697 116.552C185.38 46.4212 281.473 3 387.564 3Z" stroke="#9D84FF" stroke-width="0.5" stroke-miterlimit="10"/>
<path d="M388.403 4.92401C493.748 4.92401 588.051 48.0468 655.794 117.58C723.836 186.815 765.616 282.312 765.317 387.508C765.168 431.974 757.558 474.499 743.681 514.19C691.755 662.061 552.091 768.749 387.657 771.136C283.059 772.628 188.01 732.042 118.028 663.255C102.958 648.184 91.4683 629.831 81.7694 610.881C70.5784 589.095 61.1779 566.713 53.7173 545.525C48.644 530.753 41.4817 518.816 34.6179 506.133C25.3667 488.973 18.0552 470.471 12.9819 448.685C8.80395 431.078 7.75946 409.741 8.2071 387.955C10.4453 282.611 51.1806 187.114 119.67 118.028C188.606 48.196 283.506 4.92401 388.403 4.92401Z" stroke="#9D84FF" stroke-width="0.5" stroke-miterlimit="10"/>
<path d="M388.105 7.16223C492.554 7.16223 585.216 50.285 651.914 119.371C718.613 188.158 759.647 282.611 759.05 386.762C758.901 430.78 751.291 473.007 737.563 512.25C686.383 658.629 548.808 764.421 386.762 767.853C283.655 770.092 189.501 730.998 119.669 662.956C104.151 647.587 93.7061 627.593 85.201 607.3C75.5021 584.321 67.2953 560.745 61.3268 539.706C57.298 525.083 49.6881 514.936 42.0782 503.895C31.7825 488.824 23.2773 471.963 17.3088 450.625C12.3847 433.316 11.4894 410.487 12.2355 387.359C15.369 283.207 54.9106 188.606 122.654 119.968C190.546 50.4342 284.55 7.16223 388.105 7.16223Z" stroke="#9D84FF" stroke-width="0.5" stroke-miterlimit="10"/>
<path d="M387.657 9.40041C491.212 9.2512 582.381 52.5232 647.886 121.161C713.242 189.501 753.529 282.909 752.783 386.016C752.485 429.437 745.024 471.366 731.446 510.161C680.862 654.899 545.525 759.945 385.867 764.571C284.103 767.555 190.994 729.804 121.46 662.658C105.494 646.99 95.9446 625.653 88.6332 604.017C80.2772 579.695 73.4134 555.075 68.937 534.036C65.8035 519.413 57.8951 511.206 49.5392 501.656C38.0497 488.675 28.5001 473.455 21.487 452.416C15.8169 435.256 15.0708 411.233 15.9661 386.463C19.9949 283.506 58.3428 189.8 125.19 121.758C192.635 52.5232 285.446 9.54962 387.657 9.40041Z" stroke="#9D84FF" stroke-width="0.5" stroke-miterlimit="10"/>
<path d="M387.359 11.6386C490.018 11.4894 579.546 54.6122 644.007 122.803C708.019 190.546 747.561 283.058 746.666 385.12C746.367 428.094 738.757 469.575 725.477 507.923C675.64 651.168 542.392 755.32 385.27 761.139C284.849 764.869 192.785 728.61 123.4 662.21C107.136 646.095 98.4816 623.415 92.2146 600.436C85.2016 574.771 79.6807 548.957 76.6964 528.216C74.6074 513.593 66.2515 507.476 57.0002 499.418C44.4663 488.526 33.7229 474.947 25.8146 454.356C19.3984 437.494 18.8015 411.979 19.9952 385.866C24.6209 283.954 62.2227 191.143 128.026 123.549C194.874 54.9106 286.342 11.7878 387.359 11.6386Z" stroke="#9D84FF" stroke-width="0.5" stroke-miterlimit="10"/>
<path d="M387.061 14.0261C488.825 13.8769 576.861 56.9996 640.277 124.743C703.095 192.038 741.593 283.506 740.548 384.374C740.1 426.9 732.64 467.934 719.509 505.983C670.268 647.587 539.259 751.141 384.524 758.005C285.446 762.482 194.575 727.715 125.191 662.061C108.479 645.647 100.72 621.475 95.6467 597.153C89.9766 570.295 85.7986 543.287 84.3065 522.695C83.262 508.222 74.7568 504.044 64.461 497.478C51.0318 488.824 38.7963 476.738 30.1419 456.444C22.9796 439.882 22.3828 412.874 23.8749 385.419C29.0974 284.55 65.804 192.635 130.861 125.489C196.814 57.1488 287.386 14.0261 387.061 14.0261Z" stroke="#9D84FF" stroke-width="0.5" stroke-miterlimit="10"/>
<path d="M386.762 16.2642C487.631 16.115 574.175 59.0886 636.397 126.533C697.873 193.232 735.624 283.804 734.43 383.628C733.982 425.707 726.522 466.293 713.54 503.894C665.046 644.006 536.274 746.665 383.778 754.723C286.043 759.945 196.216 726.67 127.13 661.613C109.971 644.901 103.256 619.237 99.2275 593.572C94.9003 565.37 92.0653 537.169 91.916 516.876C91.916 502.253 83.1124 500.313 71.9214 495.24C57.7461 488.824 44.0185 478.08 34.4688 458.384C26.5605 441.971 26.1128 413.769 27.9034 384.673C33.5735 284.998 69.3848 193.978 133.547 127.428C198.902 59.387 288.281 16.2642 386.762 16.2642Z" stroke="#9D84FF" stroke-width="0.5" stroke-miterlimit="10"/>
<path d="M386.463 18.5025C486.437 18.3532 571.488 61.3268 632.517 128.324C692.799 194.575 729.655 284.103 728.312 382.882C727.715 424.513 720.404 464.651 707.571 501.955C659.674 640.425 533.14 742.338 383.181 751.589C286.938 757.558 198.007 725.626 129.07 661.464C111.463 644.304 105.643 617.297 102.808 590.289C99.824 560.894 98.3318 531.35 99.6748 511.355C100.719 496.732 91.9157 496.881 79.5309 493.151C64.6096 488.824 49.3898 479.722 38.7956 460.473C29.992 444.358 29.8428 414.665 31.7825 384.225C37.9003 285.446 73.1147 195.321 136.232 129.219C200.991 61.476 289.176 18.6517 386.463 18.5025Z" stroke="#9D84FF" stroke-width="0.5" stroke-miterlimit="10"/>
<path d="M386.166 20.7407C485.243 20.5915 568.803 63.4158 628.638 130.114C687.577 195.917 723.687 284.401 722.046 382.136C721.449 423.319 714.137 463.01 701.454 499.866C654.303 636.844 529.858 737.861 382.286 748.157C287.386 754.872 199.499 724.432 130.712 661.016C112.806 643.558 107.733 615.059 106.092 586.708C104.301 556.119 104.45 525.232 107.136 505.536C109.225 490.913 100.272 493.002 86.6938 490.913C71.0264 488.525 54.1653 481.214 42.825 462.264C33.2754 446.298 33.2754 415.411 35.3644 383.479C42.079 285.744 76.5473 196.664 138.919 131.01C203.08 63.7142 290.072 20.8899 386.166 20.7407Z" stroke="#9D84FF" stroke-width="0.5" stroke-miterlimit="10"/>
<path d="M385.867 22.9789C483.901 22.8297 566.117 65.654 624.758 131.905C682.355 197.111 717.569 284.7 715.928 381.39C715.182 422.125 708.019 461.369 695.486 497.777C648.931 633.113 526.725 733.385 381.54 744.875C287.983 752.335 201.141 723.388 132.502 660.718C114.149 642.812 109.971 612.97 109.524 583.425C109.076 551.494 110.568 519.263 114.746 499.866C117.879 485.094 108.927 489.272 94.1545 488.824C77.8902 488.376 59.3877 482.855 47.1522 464.353C36.7072 448.685 36.8565 416.306 39.3931 382.882C46.5553 286.341 80.4268 198.156 141.754 133.099C205.169 65.9524 291.117 23.1281 385.867 22.9789Z" stroke="#9D84FF" stroke-width="0.5" stroke-miterlimit="10"/>
<path d="M385.569 25.2171C482.707 25.0679 563.431 67.743 620.879 133.695C677.281 198.454 711.601 285.147 709.661 380.644C708.915 420.932 701.752 459.727 689.368 495.837C643.559 629.682 523.442 729.058 380.645 741.741C288.431 749.948 202.633 722.343 134.293 660.569C115.492 642.365 112.209 611.179 112.955 580.143C113.851 547.017 116.835 513.444 122.356 494.345C126.534 479.573 117.432 485.541 101.615 486.884C84.754 488.376 64.461 484.497 51.4794 466.442C40.2884 450.924 40.5868 417.351 43.2726 382.435C50.7333 286.938 84.008 199.499 144.439 134.889C207.109 68.1906 292.012 25.3663 385.569 25.2171Z" stroke="#9D84FF" stroke-width="0.5" stroke-miterlimit="10"/>
<path d="M385.121 27.6045C481.364 27.3061 560.596 69.9812 616.85 135.635C671.91 199.797 705.483 285.595 703.394 380.047C702.498 419.887 695.485 458.235 683.25 493.897C638.187 626.1 520.01 724.88 379.898 738.608C289.027 747.56 204.274 721.448 136.083 660.42C116.984 641.917 114.447 609.239 116.387 576.86C118.476 542.541 123.251 507.476 129.966 488.824C135.337 473.903 126.086 481.811 108.926 484.944C91.3192 488.227 69.534 486.287 55.6571 468.68C43.5708 453.46 44.1677 418.395 47.1519 382.136C54.911 287.684 87.5888 201.14 147.125 137.127C209.198 70.4288 292.907 27.7537 385.121 27.6045Z" stroke="#9D84FF" stroke-width="0.5" stroke-miterlimit="10"/>
<path d="M384.822 29.8427C480.17 29.5443 557.91 72.2194 612.97 137.277C666.836 200.842 699.514 285.744 697.276 379.003C696.38 418.395 689.218 456.295 677.281 491.659C632.815 622.37 516.876 720.254 379.152 735.176C289.624 744.874 206.064 720.254 137.874 659.972C118.327 641.022 116.685 607.001 119.968 573.279C123.4 537.617 129.667 501.358 137.724 483.005C144.29 468.083 134.74 477.633 116.536 482.557C98.1828 487.481 74.7563 487.63 59.9841 470.321C47.1517 455.251 47.7486 418.992 51.0313 381.092C59.0888 287.684 91.1698 202.035 149.96 138.619C211.287 72.5178 293.951 29.9919 384.822 29.8427Z" stroke="#9D84FF" stroke-width="0.5" stroke-miterlimit="10"/>
<path d="M384.524 32.0809C478.977 31.7825 555.225 74.3084 609.24 139.067C661.763 202.184 693.695 286.043 691.159 378.257C690.114 417.201 683.101 454.654 671.313 489.57C627.593 618.64 513.743 715.778 378.407 731.893C290.221 742.338 207.706 719.21 139.814 659.673C119.819 640.425 119.073 604.912 123.55 569.847C128.175 532.991 136.233 495.389 145.484 477.334C153.094 462.264 143.246 473.753 124.147 480.468C105.047 487.182 80.1286 489.271 64.4611 472.41C50.7335 457.638 51.6288 419.887 55.2099 380.644C63.5658 288.281 95.0499 203.527 152.945 140.559C213.376 74.756 294.847 32.2301 384.524 32.0809Z" stroke="#9D84FF" stroke-width="0.5" stroke-miterlimit="10"/>
<path d="M384.226 34.3191C477.783 34.0207 552.539 76.3974 605.36 140.858C656.541 203.378 687.577 286.341 685.04 377.51C683.996 416.008 676.983 453.013 665.344 487.481C622.221 615.059 510.61 711.6 377.809 728.61C290.967 739.801 209.497 718.016 141.754 659.375C121.46 639.828 121.46 602.823 127.131 566.415C133.099 528.216 142.798 489.271 153.094 471.664C161.897 456.594 151.751 469.725 131.607 478.379C111.762 486.884 85.2015 490.913 68.788 474.35C54.3143 459.876 55.2096 420.782 59.0891 380.047C67.7435 288.728 98.78 204.87 155.63 142.499C215.316 76.9942 295.742 34.4683 384.226 34.3191Z" stroke="#9D84FF" stroke-width="0.5" stroke-miterlimit="10"/>
<path d="M383.927 36.5573C476.589 36.2589 549.853 78.6355 601.481 142.648C651.467 204.721 681.609 286.639 678.773 376.764C677.58 414.814 670.716 451.371 659.226 485.541C616.999 611.477 507.327 707.123 377.063 725.328C291.564 737.265 211.138 716.972 143.544 659.077C122.803 639.082 123.699 600.734 130.563 562.983C137.725 523.591 149.214 483.303 160.704 465.845C170.85 450.625 160.256 465.547 138.918 476.141C118.178 486.436 90.1256 492.256 72.966 476.29C57.597 461.965 58.7907 421.529 62.8195 379.301C71.6231 289.176 102.212 206.064 158.316 144.29C217.405 79.2324 296.787 36.8557 383.927 36.5573Z" stroke="#9D84FF" stroke-width="0.5" stroke-miterlimit="10"/>
<path d="M383.628 38.7955C475.395 38.4971 547.166 80.7246 597.601 144.439C646.244 205.915 675.639 286.938 672.655 376.018C671.461 413.62 664.598 449.73 653.257 483.452C611.478 607.896 504.044 702.796 376.168 722.045C292.011 734.728 212.629 715.927 145.334 658.629C124.146 638.336 125.787 598.496 133.994 559.402C142.499 518.816 155.63 477.185 168.313 460.026C179.653 444.806 168.611 461.518 146.379 473.903C124.743 485.84 95.1984 493.748 77.1435 478.23C60.8792 464.204 62.2221 422.424 66.6986 378.704C75.8006 289.773 105.942 207.556 161.151 146.229C219.493 81.3214 297.681 39.0939 383.628 38.7955Z" stroke="#9D84FF" stroke-width="0.5" stroke-miterlimit="10"/>
<path d="M383.331 41.183C474.202 40.8845 544.481 82.9628 593.722 146.379C641.172 207.407 669.672 287.386 666.538 375.422C665.195 412.576 658.481 448.238 647.439 481.662C606.405 604.464 501.06 698.618 375.721 719.061C292.907 732.49 214.57 715.032 147.424 658.629C125.937 638.038 128.324 596.855 137.725 556.268C147.424 514.339 162.345 471.515 176.222 454.654C188.756 439.434 177.267 457.787 154.138 471.963C131.756 485.69 100.72 495.539 81.7698 480.319C64.7594 466.591 66.2516 423.319 70.8772 378.257C80.1284 290.221 109.673 208.899 163.987 148.169C221.583 83.5597 298.577 41.3322 383.331 41.183Z" stroke="#9D84FF" stroke-width="0.5" stroke-miterlimit="10"/>
<path d="M383.032 43.4211C473.008 42.9735 541.795 85.2009 589.842 148.169C635.949 208.601 663.703 287.833 660.271 374.526C658.928 411.084 652.213 446.447 641.321 479.423C600.884 600.734 497.777 694.142 374.825 715.629C293.355 729.953 216.211 713.838 149.065 658.181C127.131 637.142 130.413 594.616 141.007 552.837C151.9 509.714 168.612 465.547 183.683 448.984C197.41 433.764 185.473 453.908 161.301 469.874C138.023 485.392 105.495 497.18 85.7984 482.408C67.8928 468.829 69.5341 424.364 74.6074 377.66C84.0079 290.668 113.254 210.242 166.672 149.96C223.523 85.7978 299.472 43.5703 383.032 43.4211Z" stroke="#9D84FF" stroke-width="0.5" stroke-miterlimit="10"/>
<path d="M382.584 45.6594C471.664 45.2117 538.96 87.29 585.813 149.96C630.726 209.794 657.435 288.132 654.003 373.78C652.511 409.89 645.946 444.806 635.202 477.334C595.512 597.004 494.494 689.665 373.929 712.346C293.652 727.417 217.703 712.794 150.706 657.883C128.324 636.545 132.502 592.527 144.29 549.405C156.525 504.939 174.878 459.727 191.143 443.314C206.213 428.094 193.679 449.879 168.611 467.785C144.439 485.094 110.418 498.821 89.9758 484.347C71.1748 471.067 72.9654 425.11 78.3371 377.063C87.8868 291.116 116.685 211.585 169.208 151.899C225.611 87.8868 300.516 45.9578 382.584 45.6594Z" stroke="#9D84FF" stroke-width="0.5" stroke-miterlimit="10"/>
<path d="M382.286 47.8975C470.471 47.4499 536.274 89.3789 581.934 151.75C625.504 211.137 651.467 288.43 647.886 373.034C646.394 408.696 639.828 443.164 629.234 475.395C590.289 593.423 491.212 685.487 373.184 709.063C294.25 724.88 219.344 711.749 152.646 657.585C129.965 635.949 134.889 590.438 147.871 545.973C161.3 500.313 181.593 453.759 198.902 437.644C215.166 422.424 202.185 445.85 176.222 465.696C151.154 484.795 115.641 500.463 94.3033 486.436C74.6071 473.455 76.6961 426.154 82.3663 376.615C92.0651 291.713 120.416 213.077 172.044 153.988C227.7 90.125 301.412 48.196 382.286 47.8975Z" stroke="#9D84FF" stroke-width="0.5" stroke-miterlimit="10"/>
<path d="M381.988 50.1358C469.128 49.6881 533.589 91.468 578.204 153.392C620.58 212.182 645.648 288.579 641.769 372.139C640.127 407.353 633.562 441.374 623.266 473.156C584.918 589.692 488.079 681.011 372.587 705.631C294.996 722.194 221.135 710.406 154.586 657.137C131.458 635.053 137.128 588.2 151.453 542.392C166.225 495.389 188.159 447.641 206.662 431.675C224.269 416.455 210.69 441.672 183.832 463.159C157.869 483.9 120.864 501.656 98.7801 487.929C78.3378 475.245 80.4268 426.453 86.3954 375.571C96.2435 291.713 124.146 213.972 174.879 155.331C229.79 92.3632 302.308 50.4342 381.988 50.1358Z" stroke="#9D84FF" stroke-width="0.5" stroke-miterlimit="10"/>
<path d="M381.689 52.3739C467.934 51.9263 530.902 93.7061 574.323 155.182C615.357 213.375 639.679 288.878 635.65 371.393C634.009 406.159 627.443 439.733 617.297 471.217C579.695 586.111 484.795 676.684 371.84 702.498C295.592 719.956 222.776 709.511 156.376 656.988C132.8 634.606 139.366 586.26 155.033 539.109C170.999 490.913 194.724 441.971 214.271 426.154C233.072 411.084 219.046 437.793 191.143 461.219C164.135 483.751 125.787 503.447 102.957 490.167C81.6199 477.633 83.8581 427.646 90.1251 375.123C99.9732 292.309 127.578 215.464 177.564 157.42C231.729 94.6014 303.351 52.6724 381.689 52.3739Z" stroke="#9D84FF" stroke-width="0.5" stroke-miterlimit="10"/>
<path d="M381.391 54.7614C466.741 54.3137 528.217 95.9444 570.444 157.122C610.284 214.718 633.711 289.325 629.384 370.796C627.593 405.115 621.177 438.24 611.18 469.277C574.175 582.679 481.513 672.506 370.946 699.364C296.04 717.568 224.269 708.616 158.167 656.838C134.293 634.158 141.604 584.321 158.465 535.826C175.625 486.287 201.141 436.151 221.881 420.633C241.876 405.563 227.402 434.062 198.604 459.28C170.701 483.601 130.861 505.237 107.285 492.256C85.0524 480.02 87.589 428.542 94.1544 374.675C104.152 292.906 131.458 216.957 180.4 159.509C233.818 96.6904 304.247 55.0598 381.391 54.7614Z" stroke="#9D84FF" stroke-width="0.5" stroke-miterlimit="10"/>
<path d="M381.092 56.9996C465.547 56.5519 525.531 98.0333 566.564 158.912C605.061 216.061 627.593 289.624 623.265 369.901C621.475 403.772 615.059 436.45 605.211 467.039C568.952 578.8 478.23 668.029 370.348 695.932C296.637 714.883 226.059 707.273 160.106 656.391C135.784 633.263 143.991 582.082 162.046 532.245C180.549 481.512 207.705 430.183 229.64 414.814C250.977 399.893 235.907 430.034 206.213 457.041C177.415 483.154 136.083 506.73 111.761 494.196C88.6329 482.258 91.3188 429.437 98.1826 374.079C108.329 293.503 135.188 218.3 183.234 161.3C235.907 98.9286 305.142 57.298 381.092 56.9996Z" stroke="#9D84FF" stroke-width="0.5" stroke-miterlimit="10"/>
<path d="M380.794 59.2378C464.354 58.7902 522.845 100.122 562.685 160.703C599.989 217.255 621.625 289.922 617.148 369.155C615.209 402.578 608.942 434.809 599.243 465.099C563.581 575.368 475.097 663.851 369.603 692.799C297.234 712.644 227.85 706.377 161.897 656.242C137.128 632.815 146.081 580.143 165.479 528.962C185.175 476.887 214.271 424.513 237.25 409.293C259.782 394.372 244.263 426.154 213.525 455.102C183.832 483.005 141.157 508.669 115.79 496.434C91.7671 484.795 94.6021 430.481 101.914 373.631C112.06 294.1 138.62 219.792 185.921 163.389C237.996 101.167 306.187 59.5362 380.794 59.2378Z" stroke="#9D84FF" stroke-width="0.5" stroke-miterlimit="10"/>
<path d="M380.495 61.476C463.16 60.8791 520.159 102.211 558.806 162.494C594.766 218.449 615.656 290.22 610.881 368.408C608.941 401.385 602.674 433.167 593.125 463.01C558.209 571.637 471.665 659.524 368.707 689.367C297.682 709.958 229.342 705.184 163.688 655.645C138.471 631.92 148.319 577.755 168.91 525.381C189.8 471.963 220.687 418.544 244.86 403.474C268.734 388.702 252.619 422.125 220.986 452.714C190.397 482.408 146.23 510.012 120.117 498.075C95.348 486.735 98.1831 430.929 105.793 372.736C116.089 294.249 142.201 220.836 188.607 165.03C239.936 103.256 307.082 61.7744 380.495 61.476Z" stroke="#9D84FF" stroke-width="0.5" stroke-miterlimit="10"/>
<path d="M380.047 63.7142C461.816 63.1173 517.324 104.3 554.777 164.284C589.543 219.642 609.538 290.668 604.614 367.662C602.525 400.191 596.407 431.675 587.007 461.07C552.688 568.205 468.382 655.346 367.961 686.233C298.129 707.72 230.983 704.288 165.478 655.495C139.963 631.323 150.557 575.815 172.342 522.098C194.575 467.486 227.103 412.725 252.47 397.804C277.538 383.031 260.975 418.097 228.446 450.625C196.813 482.109 151.303 511.654 124.444 500.164C98.7796 489.122 101.764 431.973 109.821 372.288C120.117 294.846 145.931 222.328 191.441 166.97C242.025 105.494 307.977 64.1618 380.047 63.7142Z" stroke="#9D84FF" stroke-width="0.5" stroke-miterlimit="10"/>
<path d="M379.749 66.1016C460.623 65.5048 514.638 106.688 550.897 166.224C584.321 220.985 603.42 291.116 598.496 367.066C596.407 399.146 590.289 430.183 581.038 459.13C547.465 564.624 465.099 651.318 367.215 683.1C298.726 705.333 232.624 703.244 167.269 655.346C141.305 630.875 152.795 573.876 175.774 518.816C199.2 462.861 233.519 407.055 260.079 392.283C286.341 377.66 269.331 414.366 235.907 448.685C203.378 482.109 156.376 513.444 128.771 502.253C102.211 491.51 105.345 432.869 113.701 371.691C124.146 295.294 149.512 223.671 194.276 168.91C244.114 107.732 309.021 66.4 379.749 66.1016Z" stroke="#9D84FF" stroke-width="0.5" stroke-miterlimit="10"/>
<path d="M379.451 68.3398C459.429 67.7429 511.953 108.777 547.167 167.865C579.397 222.179 597.601 291.265 592.379 366.17C590.141 397.804 584.023 428.392 575.07 456.892C542.243 560.894 461.966 646.841 366.469 679.668C299.323 702.796 234.266 702.05 169.209 654.899C142.798 630.129 155.034 571.637 179.355 515.235C203.976 458.086 240.085 401.086 267.839 386.463C295.444 371.99 277.687 410.338 243.368 446.447C209.944 481.662 161.45 514.936 132.95 504.193C105.495 493.748 108.777 433.764 117.432 371.094C127.877 295.741 153.094 225.014 196.813 170.7C246.054 109.821 309.917 68.6382 379.451 68.3398Z" stroke="#9D84FF" stroke-width="0.5" stroke-miterlimit="10"/>
<path d="M379.153 70.578C458.236 69.9812 509.267 110.866 543.288 169.656C574.175 223.373 591.633 291.563 586.261 365.424C584.023 396.61 577.905 426.751 569.101 454.952C536.871 557.313 458.683 642.812 365.723 676.535C299.771 700.558 235.907 701.155 170.999 654.749C144.29 629.532 157.272 569.698 182.787 511.952C208.751 453.46 246.502 395.416 275.3 380.942C304.098 366.469 285.894 406.458 250.68 444.507C216.36 481.512 166.374 516.876 137.128 506.282C108.927 496.135 112.209 434.659 121.311 370.647C131.905 296.338 156.675 226.506 199.499 172.789C248.143 112.059 310.813 70.8765 379.153 70.578Z" stroke="#9D84FF" stroke-width="0.5" stroke-miterlimit="10"/>
<path d="M378.854 72.8162C457.042 72.2194 506.581 112.955 539.408 171.446C569.101 224.566 585.664 291.862 579.994 364.529C577.607 395.267 571.638 424.96 562.984 452.714C531.5 553.583 455.401 638.336 364.977 673.103C300.368 697.872 237.549 699.812 172.79 654.302C145.633 628.786 159.51 567.459 186.219 508.371C213.376 448.536 252.918 389.448 282.91 375.123C312.902 360.799 294.25 402.429 258.14 442.12C222.776 480.916 171.447 518.219 141.455 508.072C112.508 498.374 115.94 435.405 125.34 369.901C135.934 296.637 160.405 227.7 202.334 174.58C250.232 114.148 311.708 73.2639 378.854 72.8162Z" stroke="#9D84FF" stroke-width="0.5" stroke-miterlimit="10"/>
<path d="M378.555 75.0545C455.848 74.4576 503.895 115.044 535.528 173.237C564.028 225.76 579.695 292.16 573.876 363.783C571.488 394.073 565.52 423.319 557.164 450.774C526.277 550.002 452.267 634.307 364.38 669.82C300.964 695.485 239.488 698.767 174.729 654.003C147.125 628.04 161.748 565.37 189.949 504.939C218.3 443.911 259.632 383.628 290.818 369.453C322.152 355.278 302.904 398.55 265.899 440.031C229.64 480.617 176.818 519.86 146.08 510.012C116.088 500.463 119.67 436.152 129.518 369.155C140.112 296.935 164.284 228.745 205.467 176.221C252.171 116.387 312.752 75.5021 378.555 75.0545Z" stroke="#9D84FF" stroke-width="0.5" stroke-miterlimit="10"/>
<path d="M378.257 77.2927C454.655 76.6958 501.209 117.133 531.649 175.028C558.806 226.954 573.578 292.459 567.759 363.037C565.222 392.73 559.403 421.678 551.196 448.685C521.055 546.42 448.985 630.129 363.634 666.537C301.561 693.097 241.13 697.723 176.67 653.705C148.767 627.443 164.136 563.282 193.531 501.507C223.224 439.136 266.198 377.809 298.577 363.634C331.106 349.458 311.41 394.521 273.36 437.793C236.206 480.17 182.041 521.352 150.408 511.952C119.372 502.85 122.953 437.196 133.248 368.707C143.992 297.532 167.717 230.237 208.004 178.31C254.261 118.625 313.648 77.7403 378.257 77.2927Z" stroke="#9D84FF" stroke-width="0.5" stroke-miterlimit="10"/>
<path d="M377.959 79.6801C453.312 78.934 498.673 119.222 527.769 176.967C553.733 228.297 567.609 292.906 561.492 362.44C558.955 391.686 553.136 420.186 545.078 446.746C515.534 542.839 445.702 626.1 362.888 663.404C302.009 690.859 242.622 696.828 178.311 653.556C149.96 626.996 166.225 561.342 196.813 498.224C227.701 434.659 272.465 372.139 306.038 358.113C339.76 344.087 319.616 390.641 280.672 435.853C242.622 480.02 186.965 523.292 154.437 514.19C122.804 505.237 126.385 438.091 137.128 368.11C147.871 297.98 171.298 231.58 210.69 180.25C256.35 120.714 314.543 79.9785 377.959 79.6801Z" stroke="#9D84FF" stroke-width="0.5" stroke-miterlimit="10"/>
<path d="M377.66 81.9182C452.118 81.1722 495.986 121.311 523.889 178.758C548.659 229.491 561.64 293.354 555.373 361.694C552.688 390.492 547.017 418.544 539.109 444.806C510.311 539.407 442.419 622.072 362.142 660.27C302.605 688.621 244.412 695.783 180.25 653.407C151.452 626.399 168.612 559.402 200.394 495.091C232.475 430.183 279.03 366.618 313.797 352.741C348.713 338.864 327.972 387.06 288.281 433.913C249.187 479.871 192.187 525.083 158.913 516.279C126.384 507.625 130.114 438.987 141.156 367.662C151.9 298.576 175.028 233.072 213.674 182.19C258.289 122.952 315.587 82.3659 377.66 81.9182Z" stroke="#9D84FF" stroke-width="0.5" stroke-miterlimit="10"/>
<path d="M377.213 84.1564C450.775 83.4104 493.151 123.4 519.861 180.548C543.436 230.684 555.523 293.652 548.957 360.948C546.272 389.298 540.601 416.903 532.842 442.717C504.939 535.677 439.136 617.744 361.247 656.838C302.904 686.084 245.904 694.589 182.041 652.81C152.944 625.504 170.701 557.014 203.826 491.36C237.25 425.11 285.446 360.5 321.407 346.772C357.516 333.045 336.328 382.882 295.593 431.526C255.603 479.423 197.112 526.426 163.091 518.07C129.667 509.714 133.397 439.733 144.887 366.916C155.63 298.875 178.46 234.265 216.211 183.98C260.378 125.041 316.483 84.6041 377.213 84.1564Z" stroke="#9D84FF" stroke-width="0.5" stroke-miterlimit="10"/>
<path d="M376.914 86.3947C449.581 85.6486 490.465 125.489 516.13 182.339C538.363 231.878 549.703 293.951 542.989 360.053C540.153 387.955 534.633 415.112 527.023 440.628C499.567 532.096 435.853 613.716 360.5 653.705C303.501 683.846 247.545 693.694 183.831 652.66C154.287 625.056 172.939 555.075 207.258 488.078C241.875 420.633 291.862 354.83 328.867 341.252C366.32 327.673 344.534 379.152 302.904 429.586C262.019 479.274 202.035 528.366 167.269 520.159C132.949 512.101 136.829 440.628 148.766 366.32C159.509 299.323 182.041 235.608 218.896 185.92C262.318 127.279 317.377 86.8423 376.914 86.3947Z" stroke="#9D84FF" stroke-width="0.5" stroke-miterlimit="10"/>
<path d="M376.615 88.6329C448.387 87.8868 487.929 127.578 512.251 183.98C533.29 232.923 543.585 294.1 536.871 359.157C534.036 386.613 528.366 413.322 521.054 438.39C494.345 528.216 432.72 609.538 359.903 650.124C304.247 681.31 249.485 692.351 185.771 652.064C155.779 624.012 175.326 552.687 210.839 484.348C246.65 415.56 298.278 348.712 336.626 335.283C375.272 321.705 353.04 374.825 310.514 427.199C268.585 478.677 207.258 529.708 171.596 521.949C136.531 514.339 140.261 441.225 152.646 365.573C163.538 299.621 185.771 236.802 221.732 187.562C264.407 129.368 318.422 89.0805 376.615 88.6329Z" stroke="#9D84FF" stroke-width="0.5" stroke-miterlimit="10"/>
<path d="M376.317 90.8711C447.193 90.125 485.243 129.667 508.371 185.771C528.216 233.967 537.617 294.398 530.604 358.411C527.62 385.419 522.099 411.68 514.936 436.301C488.824 524.635 429.288 605.36 359.008 646.841C304.545 678.922 250.977 691.158 187.562 651.765C157.271 623.415 177.415 550.598 214.271 480.916C251.276 410.934 304.694 342.893 344.236 329.613C384.076 316.184 361.396 370.945 317.974 425.11C275.15 478.379 212.48 531.35 175.923 523.889C139.963 516.578 143.842 442.12 156.674 364.977C167.567 300.069 189.501 237.996 224.567 189.501C266.496 131.606 319.317 91.468 376.317 90.8711Z" stroke="#9D84FF" stroke-width="0.5" stroke-miterlimit="10"/>
<path d="M376.019 93.2585C446 92.5124 482.557 131.756 504.492 187.711C523.143 235.31 531.649 294.846 524.486 357.814C521.502 384.374 515.981 410.188 508.968 434.51C483.602 521.203 426.155 601.629 358.262 643.857C305.142 676.982 252.619 690.412 189.352 651.765C158.614 623.116 179.654 548.659 217.703 477.782C256.051 406.458 311.111 337.372 351.846 324.092C392.88 310.812 369.752 367.215 325.286 423.021C281.567 478.08 217.405 533.14 180.101 525.978C143.245 518.965 147.125 443.015 160.405 364.38C171.298 300.516 192.934 239.339 227.104 191.441C268.436 133.695 320.213 93.7061 376.019 93.2585Z" stroke="#9D84FF" stroke-width="0.5" stroke-miterlimit="10"/>
<path d="M375.72 95.4967C444.806 94.6014 480.02 133.845 500.612 189.501C518.07 236.504 525.68 295.145 518.368 357.068C515.235 383.181 509.863 408.547 502.999 432.421C478.23 517.473 422.871 597.601 357.665 640.574C305.888 674.595 254.409 689.367 191.292 651.467C160.106 622.37 182.041 546.57 221.433 474.35C260.975 401.683 317.825 331.553 359.754 318.422C401.982 305.291 378.257 363.335 333.045 420.932C288.281 477.931 222.776 534.782 184.726 527.918C146.975 521.203 150.855 443.761 164.732 363.783C175.624 300.964 196.962 240.682 230.237 193.232C270.524 135.934 321.108 95.9443 375.72 95.4967Z" stroke="#9D84FF" stroke-width="0.5" stroke-miterlimit="10"/>
<path d="M375.422 97.7349C443.613 96.8396 477.335 135.934 496.733 191.292C512.997 237.697 519.562 295.443 512.102 356.322C508.968 381.987 503.596 406.906 496.882 430.481C472.858 514.041 419.589 593.721 356.77 637.441C306.336 672.506 255.902 688.323 192.934 651.318C161.3 621.922 184.13 544.63 224.716 471.067C265.452 397.207 324.092 325.883 367.215 312.901C410.636 299.919 386.464 359.456 340.357 418.992C294.697 477.782 227.7 536.572 188.756 530.156C150.259 523.74 153.989 444.806 168.313 363.484C179.206 301.71 200.245 242.323 232.774 195.47C272.465 138.172 322.153 98.1826 375.422 97.7349Z" stroke="#9D84FF" stroke-width="0.5" stroke-miterlimit="10"/>
<path d="M375.124 99.9731C442.419 99.0778 474.798 138.023 492.853 193.082C507.924 238.891 513.594 295.741 505.984 355.576C502.701 380.793 497.479 405.264 490.913 428.392C467.487 510.311 416.456 589.692 356.024 634.158C306.933 670.268 257.543 687.278 194.874 651.019C162.942 621.326 186.368 542.541 228.297 467.636C270.376 392.432 330.509 320.063 374.974 307.231C419.589 294.398 394.969 355.576 347.818 416.903C301.263 477.484 232.923 538.363 193.083 532.245C153.691 526.127 157.421 445.85 172.342 362.888C183.235 302.008 203.976 243.666 235.609 197.26C274.554 140.261 323.048 100.57 375.124 99.9731Z" stroke="#9D84FF" stroke-width="0.5" stroke-miterlimit="10"/>
<path d="M374.676 102.211C441.076 101.316 471.964 139.962 488.825 194.873C502.702 240.085 507.476 296.189 499.568 354.681C496.285 379.45 491.063 403.474 484.647 426.154C461.966 506.58 413.024 585.664 355.129 630.577C307.381 667.731 259.036 685.935 196.515 650.422C164.136 620.281 188.458 540.153 231.58 464.054C274.852 387.508 336.776 314.095 382.435 301.412C428.393 288.579 403.176 351.547 355.129 414.665C307.679 477.036 237.847 539.855 197.261 534.036C156.974 528.216 160.704 446.447 176.073 362.142C186.965 302.307 207.408 244.71 238.146 199.051C276.494 142.35 323.944 102.808 374.676 102.211Z" stroke="#9D84FF" stroke-width="0.5" stroke-miterlimit="10"/>
<path d="M374.378 104.449C439.883 103.554 469.427 142.051 485.094 196.664C497.777 241.129 501.657 296.487 493.599 353.935C490.168 378.257 485.094 401.832 478.827 424.214C456.744 502.999 410.04 581.784 354.532 627.443C308.127 665.642 260.975 685.04 198.455 650.273C165.628 619.833 190.845 538.214 235.161 460.772C279.627 383.031 343.341 308.425 390.045 295.891C437.197 283.207 411.532 347.817 362.59 412.576C314.095 476.738 242.921 541.496 201.588 536.125C160.555 530.604 164.136 447.342 179.952 361.694C190.845 302.904 210.84 246.202 240.981 201.14C278.583 144.588 324.988 105.046 374.378 104.449Z" stroke="#9D84FF" stroke-width="0.5" stroke-miterlimit="10"/>
<path d="M374.079 106.837C438.539 105.942 466.89 144.29 481.214 198.454C492.704 242.323 495.688 296.786 487.481 353.189C484.049 377.063 478.827 400.191 472.858 422.125C451.521 499.418 407.055 577.904 353.786 624.161C308.723 663.404 262.616 683.846 200.394 649.825C167.269 619.087 193.083 535.975 238.742 457.191C284.551 378.107 349.906 302.456 397.804 289.922C446.149 277.388 419.887 343.639 370.199 410.188C320.809 476.29 248.142 542.988 206.064 537.766C164.135 532.693 167.716 447.79 184.13 360.649C195.022 302.904 214.719 247.098 243.964 202.483C280.522 146.677 325.883 107.285 374.079 106.837Z" stroke="#9D84FF" stroke-width="0.5" stroke-miterlimit="10"/>
<path d="M373.78 109.075C437.345 108.18 464.353 146.229 477.334 200.245C487.779 243.517 489.57 297.084 481.214 352.443C477.633 375.72 472.56 398.55 466.889 420.186C446.298 495.837 403.921 574.025 353.04 621.027C309.32 661.464 264.257 682.951 202.185 649.676C168.611 618.491 195.321 534.036 242.174 453.908C289.176 373.482 356.173 296.786 405.414 284.401C454.952 272.016 428.243 339.759 377.511 408.249C327.226 476.141 253.216 544.779 210.093 540.004C167.269 535.229 170.7 448.835 187.711 360.351C198.603 303.65 218.001 248.739 246.352 204.721C282.461 148.915 326.778 109.672 373.78 109.075Z" stroke="#9D84FF" stroke-width="0.5" stroke-miterlimit="10"/>
<path d="M373.483 111.313C436.152 110.418 461.817 148.318 473.456 202.035C482.707 244.71 483.602 297.383 475.097 351.697C471.516 374.526 466.443 396.908 460.922 418.097C440.927 492.256 400.938 570.145 352.444 617.745C310.216 659.226 266.049 681.906 204.125 649.378C170.104 617.894 197.709 531.947 245.756 450.476C293.952 368.856 362.739 290.967 413.173 278.731C463.906 266.496 436.749 335.88 385.121 406.16C333.792 475.842 258.439 546.57 214.57 541.944C171 537.468 174.282 449.73 191.89 359.754C202.782 304.097 221.882 249.933 249.486 206.661C284.551 151.004 327.823 111.91 373.483 111.313Z" stroke="#9D84FF" stroke-width="0.5" stroke-miterlimit="10"/>
<path d="M373.184 113.552C434.958 112.507 459.28 150.407 469.576 203.826C477.633 245.755 477.633 297.681 468.83 350.951C465.099 373.333 460.175 395.267 454.803 416.008C435.555 488.525 397.804 566.266 351.548 614.462C310.812 656.988 267.54 680.713 205.915 649.079C171.596 617.297 199.797 529.858 249.187 447.044C298.726 364.081 369.155 285.147 420.783 273.061C472.709 260.975 445.105 332 392.581 403.921C340.357 475.395 263.512 548.062 218.897 543.884C174.431 539.706 177.565 450.476 195.769 359.157C206.661 304.545 225.462 251.276 252.171 208.451C286.49 153.242 328.718 114.148 373.184 113.552Z" stroke="#9D84FF" stroke-width="0.5" stroke-miterlimit="10"/>
<path d="M372.885 115.79C433.764 114.745 456.743 152.347 465.696 205.616C472.709 246.949 471.665 297.98 462.712 350.055C458.982 371.99 454.057 393.476 448.835 413.919C430.183 484.944 394.67 562.386 350.802 611.03C311.409 654.749 269.182 679.519 207.706 648.632C172.939 616.402 202.036 527.619 252.619 443.463C303.352 359.157 375.571 279.179 428.393 267.242C481.513 255.155 453.461 327.972 400.042 401.683C346.922 475.096 268.585 549.554 223.224 545.674C177.863 541.795 180.847 451.073 199.797 358.262C210.69 304.694 229.193 252.32 255.006 210.093C288.58 155.331 329.613 116.387 372.885 115.79Z" stroke="#9D84FF" stroke-width="0.5" stroke-miterlimit="10"/>
<path d="M372.587 118.177C432.571 117.133 454.207 154.585 461.817 207.556C467.636 248.292 465.696 298.427 456.594 349.458C452.715 370.945 447.94 392.133 442.866 411.979C424.961 481.363 391.835 558.507 350.205 607.896C312.454 652.81 270.972 678.624 209.646 648.483C174.431 615.954 204.423 525.68 256.349 440.18C308.276 354.681 382.137 273.509 436.301 261.721C490.615 249.784 462.115 324.241 407.652 399.743C353.488 474.947 273.957 551.494 227.551 547.913C181.444 544.331 184.13 452.117 203.677 357.964C214.57 305.44 232.774 253.962 257.692 212.331C290.519 157.42 330.509 118.774 372.587 118.177Z" stroke="#9D84FF" stroke-width="0.5" stroke-miterlimit="10"/>
<path d="M372.139 120.415C431.228 119.371 451.521 156.674 457.788 209.347C462.563 249.485 459.429 298.875 450.178 348.712C446.299 369.751 441.524 390.492 436.6 410.039C419.291 477.931 388.553 554.776 349.161 604.763C312.902 650.721 272.465 677.728 211.287 648.333C175.774 615.506 206.214 523.591 259.632 436.898C312.603 349.906 388.404 267.838 443.762 256.051C499.269 244.263 470.173 320.212 414.964 397.654C359.904 474.649 278.881 553.135 231.729 549.852C184.727 546.57 187.264 452.863 207.408 357.367C218.3 305.739 236.206 255.155 260.378 214.122C292.459 159.659 331.553 121.012 372.139 120.415Z" stroke="#9D84FF" stroke-width="0.5" stroke-miterlimit="10"/>
<path d="M371.841 122.654C430.034 121.609 449.134 158.614 454.058 211.137C457.788 250.679 453.61 299.173 444.21 347.966C440.181 368.558 435.555 388.851 430.78 407.95C414.218 474.201 385.867 550.897 348.564 601.48C313.797 648.632 274.255 676.535 213.227 648.035C177.266 614.76 208.601 521.502 263.214 433.615C317.527 345.43 394.969 262.168 451.372 250.53C508.073 238.891 478.529 316.482 422.425 395.715C366.469 474.499 283.954 554.926 236.057 552.09C188.159 549.255 190.546 453.908 211.436 356.919C222.329 306.336 239.787 256.647 263.214 216.211C294.399 161.748 332.449 123.25 371.841 122.654Z" stroke="#9D84FF" stroke-width="0.5" stroke-miterlimit="10"/>
<path d="M371.543 124.892C428.841 123.847 446.597 160.703 450.178 212.779C452.715 251.574 447.642 299.323 438.092 347.071C434.063 367.215 429.438 387.06 424.812 405.712C408.846 470.471 382.883 546.868 347.967 598.048C314.841 646.393 276.046 675.341 215.167 647.587C178.759 614.014 210.989 519.263 266.795 430.034C322.302 340.505 401.385 256.2 459.131 244.71C517.026 233.221 487.034 312.453 429.885 393.327C373.035 474.052 289.177 556.418 240.384 553.881C191.74 551.344 193.829 454.505 215.316 356.173C226.209 306.634 243.368 257.841 265.899 217.852C296.488 163.837 333.344 125.489 371.543 124.892Z" stroke="#9D84FF" stroke-width="0.5" stroke-miterlimit="10"/>
<path d="M371.244 127.13C427.646 126.086 444.209 162.792 446.298 214.569C447.79 252.768 441.672 299.621 431.824 346.325C427.646 366.021 423.021 385.419 418.693 403.772C403.474 466.89 380.047 543.138 347.071 594.915C315.587 644.305 277.537 674.446 216.807 647.438C180.101 613.417 213.077 517.324 270.077 426.751C326.927 336.029 407.652 250.53 466.591 239.189C525.68 227.849 495.091 308.574 437.196 391.387C379.152 473.753 294.1 558.208 244.412 555.97C194.873 553.732 196.664 455.251 219.046 355.725C229.938 307.231 246.799 259.184 268.585 219.941C298.427 166.075 334.388 127.876 371.244 127.13Z" stroke="#9D84FF" stroke-width="0.5" stroke-miterlimit="10"/>
<path d="M370.946 129.368C426.453 128.174 441.822 164.881 442.419 216.36C442.867 253.962 435.704 299.919 425.707 345.43C421.529 364.678 416.903 383.628 412.725 401.534C398.252 463.159 377.213 539.109 346.325 591.334C316.483 641.917 279.179 672.954 218.748 646.692C181.594 612.373 215.465 514.787 273.658 422.871C331.702 330.807 414.218 244.263 474.351 233.072C534.633 221.881 503.597 304.247 444.806 388.851C385.867 473.156 299.323 559.551 248.889 557.611C198.604 555.672 200.096 455.698 223.075 354.681C233.967 307.231 250.53 260.079 271.42 221.433C300.368 168.164 335.284 130.114 370.946 129.368Z" stroke="#9D84FF" stroke-width="0.5" stroke-miterlimit="10"/>
<path d="M370.647 131.756C425.259 130.562 439.285 167.119 438.539 218.3C437.942 255.305 429.586 300.367 419.44 344.833C415.113 363.634 410.636 382.136 406.607 399.743C392.73 459.727 374.228 535.379 345.43 588.349C317.378 640.127 280.671 672.207 220.389 646.692C182.787 612.074 217.554 512.996 276.941 419.738C336.477 326.479 420.484 238.742 481.96 227.7C543.436 216.509 511.952 300.665 452.267 387.06C392.432 473.156 304.396 561.491 253.216 559.85C202.035 558.208 203.229 456.743 227.103 354.382C237.996 307.828 254.111 261.721 274.255 223.522C302.307 170.253 336.179 132.352 370.647 131.756Z" stroke="#9D84FF" stroke-width="0.5" stroke-miterlimit="10"/>
<path d="M370.348 133.994C423.916 132.8 436.898 169.208 434.659 220.09C433.018 256.498 423.618 300.665 413.322 344.087C408.995 362.44 404.518 380.495 400.639 397.654C387.508 456.146 371.542 531.499 344.833 585.067C318.571 637.888 282.461 671.163 222.328 646.394C184.428 611.328 219.941 510.908 280.522 416.306C341.102 321.705 426.9 233.072 489.57 221.881C552.24 210.988 520.308 296.637 459.578 384.822C398.848 472.709 309.469 563.132 257.394 561.789C205.318 560.596 206.213 457.489 230.833 353.786C241.577 308.275 257.543 262.914 276.941 225.462C304.247 172.491 337.223 134.591 370.348 133.994Z" stroke="#9D84FF" stroke-width="0.5" stroke-miterlimit="10"/>
<path d="M370.05 136.232C422.723 135.038 434.66 171.297 430.78 221.881C428.094 257.841 417.649 300.964 407.204 343.341C402.728 361.246 398.401 378.853 394.67 395.565C382.137 452.416 368.856 527.47 344.087 581.784C319.467 635.799 284.252 670.119 224.268 646.095C185.921 610.731 222.179 508.819 284.103 412.874C346.027 316.93 433.466 227.252 497.329 216.211C561.193 205.318 528.814 292.757 467.188 382.584C405.563 472.41 314.692 564.624 261.87 563.58C209.049 562.685 209.347 457.937 234.863 352.89C245.606 308.425 261.124 263.959 279.776 227.103C306.038 174.58 338.118 136.978 370.05 136.232Z" stroke="#9D84FF" stroke-width="0.5" stroke-miterlimit="10"/>
<path d="M504.939 210.69C569.996 199.946 537.169 289.027 474.5 380.644C411.83 472.261 319.765 566.415 266.048 565.818C212.331 565.221 212.331 458.981 238.742 352.592C265.153 246.202 317.825 139.664 369.752 138.47C421.678 137.277 432.272 173.386 426.901 223.671C421.529 273.956 400.49 338.267 388.702 393.626C376.914 448.984 366.171 523.591 343.341 578.65C320.511 633.71 285.894 669.074 226.059 645.946C187.263 610.284 224.418 506.879 287.535 409.591C350.652 312.304 439.882 221.433 504.939 210.69Z" stroke="#9D84FF" stroke-width="0.5" stroke-miterlimit="10"/>
</g>
<defs>
<clipPath id="clip0_792_1648">
<rect width="778" height="778" fill="white"/>
</clipPath>
</defs>
</svg>
