<svg width="344" height="345" viewBox="0 0 344 345" fill="none" xmlns="http://www.w3.org/2000/svg">
<path d="M59.5948 179.812C305.2 204.419 -69.2943 302.908 36.7713 302.908C142.837 302.908 319.528 205.499 319.528 80.1143C319.528 -45.2709 277.685 181.274 173.141 159.911C19.7805 128.564 -63.6518 167.413 59.5948 179.812Z" stroke="#9D84FF" stroke-width="0.5" stroke-miterlimit="10"/>
<path d="M320.099 82.4032C320.099 207.025 145.88 303.926 40.0678 303.926C-65.7442 303.926 297.656 207.089 58.073 179.558C-62.2573 165.76 21.1117 125.322 173.078 155.968C277.432 176.824 320.099 -42.2825 320.099 82.4032Z" stroke="#9D84FF" stroke-width="0.5" stroke-miterlimit="10"/>
<path d="M320.67 84.6286C320.67 208.551 148.923 304.943 43.3648 304.943C-62.1937 304.943 290.048 209.76 56.6785 179.431C-60.6721 164.171 22.5701 122.27 173.141 152.09C277.178 172.436 320.67 -39.2941 320.67 84.6286Z" stroke="#9D84FF" stroke-width="0.5" stroke-miterlimit="10"/>
<path d="M321.303 86.9176C321.303 210.077 151.966 306.024 46.7247 306.024C-58.5167 306.024 282.504 212.494 55.2835 179.303C-59.2141 162.581 24.0281 119.218 173.141 148.275C276.924 167.986 321.303 -36.3058 321.303 86.9176Z" stroke="#9D84FF" stroke-width="0.5" stroke-miterlimit="10"/>
<path d="M321.874 89.143C321.874 211.603 154.946 307.041 49.9579 307.041C-55.0299 307.041 274.769 215.1 53.7618 179.113C-57.8195 160.864 25.2959 116.42 173.078 144.333C276.607 163.853 321.874 -33.3174 321.874 89.143Z" stroke="#9D84FF" stroke-width="0.5" stroke-miterlimit="10"/>
<path d="M322.445 91.3684C322.445 213.066 157.989 307.995 53.2549 307.995C-51.4793 307.995 267.098 217.707 52.3039 178.858C-56.4244 159.211 26.6909 113.368 173.015 140.391C276.354 159.529 322.445 -30.329 322.445 91.3684Z" stroke="#9D84FF" stroke-width="0.5" stroke-miterlimit="10"/>
<path d="M323.079 93.6574C323.079 214.655 161.032 309.076 56.615 309.076C-47.8022 309.076 259.427 220.314 50.9092 178.731C-55.0296 157.622 28.0857 110.316 173.015 136.512C276.037 155.142 323.079 -27.3406 323.079 93.6574Z" stroke="#9D84FF" stroke-width="0.5" stroke-miterlimit="10"/>
<path d="M323.649 95.8828C323.649 216.118 164.012 310.093 59.8483 310.093C-44.3153 310.093 251.629 222.921 49.451 178.54C-53.6983 155.905 29.4805 107.264 173.015 132.634C275.783 150.818 323.649 -24.3522 323.649 95.8828Z" stroke="#9D84FF" stroke-width="0.5" stroke-miterlimit="10"/>
<path d="M324.283 98.1717C324.283 217.644 167.118 311.11 63.2084 311.11C-40.7017 311.11 243.831 225.464 47.9928 178.35C-52.367 154.252 30.8752 104.149 172.951 128.691C275.53 146.431 324.283 -21.3639 324.283 98.1717Z" stroke="#9D84FF" stroke-width="0.5" stroke-miterlimit="10"/>
<path d="M324.854 100.397C324.854 219.17 170.098 312.128 66.4416 312.128C-37.2149 312.128 235.969 227.944 46.471 178.159C-51.0992 152.535 32.2064 101.097 172.888 124.813C275.213 142.044 324.854 -18.3755 324.854 100.397Z" stroke="#9D84FF" stroke-width="0.5" stroke-miterlimit="10"/>
<path d="M325.424 102.686C325.424 220.696 173.078 313.145 69.7382 313.145C-33.6013 313.145 228.108 230.424 45.0762 178.032C-49.8313 150.818 33.6011 98.0446 172.888 120.934C274.959 137.72 325.424 -15.3871 325.424 102.686Z" stroke="#9D84FF" stroke-width="0.5" stroke-miterlimit="10"/>
<path d="M326.058 104.912C326.058 222.222 176.184 314.162 73.0984 314.162C-29.9875 314.162 220.246 232.84 43.6816 177.841C-48.4998 149.102 35.0594 94.9926 172.888 117.056C274.706 133.333 326.058 -12.3987 326.058 104.912Z" stroke="#9D84FF" stroke-width="0.5" stroke-miterlimit="10"/>
<path d="M326.629 107.137C326.629 223.684 179.164 315.18 76.332 315.18C-26.5003 315.18 212.258 235.193 42.1602 177.65C-47.3584 147.321 36.3909 91.8771 172.824 113.114C274.452 128.946 326.629 -9.41026 326.629 107.137Z" stroke="#9D84FF" stroke-width="0.5" stroke-miterlimit="10"/>
<path d="M327.199 109.426C327.199 225.21 182.207 316.197 79.6285 316.197C-22.9502 316.197 204.27 237.482 40.7019 177.459C-46.2174 145.604 37.7855 88.8251 172.824 109.235C274.198 124.559 327.199 -6.42191 327.199 109.426Z" stroke="#9D84FF" stroke-width="0.5" stroke-miterlimit="10"/>
<path d="M327.834 111.651C327.834 226.736 185.251 317.214 82.9889 317.214C-19.2728 317.214 196.282 239.771 39.3074 177.332C-45.0125 143.824 39.1806 85.7731 172.761 105.357C273.882 120.235 327.834 -3.43352 327.834 111.651Z" stroke="#9D84FF" stroke-width="0.5" stroke-miterlimit="10"/>
<path d="M328.404 113.94C328.404 228.262 188.23 318.295 86.2222 318.295C-15.7859 318.295 188.23 241.932 37.7858 177.142C-43.9982 141.917 40.5119 82.6575 172.698 101.478C273.628 115.848 328.404 -0.445128 328.404 113.94Z" stroke="#9D84FF" stroke-width="0.5" stroke-miterlimit="10"/>
<path d="M329.038 116.166C329.038 229.788 191.337 319.249 89.582 319.249C-12.1725 319.249 180.242 243.903 36.3907 176.887C-42.8574 140.009 41.9698 79.4784 172.697 97.4724C273.374 111.461 329.038 2.60688 329.038 116.166Z" stroke="#9D84FF" stroke-width="0.5" stroke-miterlimit="10"/>
<path d="M329.609 118.455C329.609 231.314 194.316 320.33 92.8788 320.33C-8.55872 320.33 172.127 245.874 34.9326 176.76C-41.7795 138.102 43.3646 76.4264 172.697 93.6573C273.121 107.073 329.609 5.59523 329.609 118.455Z" stroke="#9D84FF" stroke-width="0.5" stroke-miterlimit="10"/>
<path d="M330.179 120.68C330.179 232.84 197.296 321.347 96.1122 321.347C-5.07176 321.347 163.949 247.718 33.4745 176.633C-40.7651 136.194 44.7594 73.3744 172.634 89.7788C272.867 102.623 330.179 8.58362 330.179 120.68Z" stroke="#9D84FF" stroke-width="0.5" stroke-miterlimit="10"/>
<path d="M330.813 122.969C330.813 234.302 200.339 322.365 99.4721 322.365C-1.39479 322.365 155.96 249.435 32.0796 176.442C-39.6875 134.16 46.2174 70.2589 172.697 85.9003C272.613 98.2353 330.813 11.572 330.813 122.969Z" stroke="#9D84FF" stroke-width="0.5" stroke-miterlimit="10"/>
<path d="M331.384 125.194C331.384 235.828 203.383 323.382 102.769 323.382C2.15587 323.382 147.846 250.961 30.6218 176.251C-38.7361 132.061 47.6126 67.0798 172.634 81.9582C272.36 93.8481 331.384 14.5604 331.384 125.194Z" stroke="#9D84FF" stroke-width="0.5" stroke-miterlimit="10"/>
<path d="M331.954 127.42C331.954 237.354 206.362 324.399 106.002 324.399C5.64255 324.399 139.73 252.424 29.1634 176.061C-37.722 129.836 49.0071 63.9642 172.571 78.0796C272.043 89.4609 331.954 17.5488 331.954 127.42Z" stroke="#9D84FF" stroke-width="0.5" stroke-miterlimit="10"/>
<path d="M332.588 129.709C332.588 238.88 209.469 325.417 109.363 325.417C9.25638 325.417 131.679 253.695 27.7053 175.87C-36.7709 127.611 50.402 60.8487 172.571 74.2011C271.789 85.0101 332.588 20.5372 332.588 129.709Z" stroke="#9D84FF" stroke-width="0.5" stroke-miterlimit="10"/>
<path d="M333.159 131.934C333.159 240.406 212.449 326.434 112.659 326.434C12.8702 326.434 123.754 254.84 26.2473 175.679C-35.7564 125.322 51.7969 57.6695 172.508 70.2589C271.536 80.6229 333.159 23.5256 333.159 131.934Z" stroke="#9D84FF" stroke-width="0.5" stroke-miterlimit="10"/>
<path d="M333.73 134.223C333.73 241.932 215.428 327.515 115.892 327.515C16.3569 327.515 115.702 255.921 24.7255 175.552C-34.8057 122.969 53.128 54.554 172.444 66.4439C271.282 76.2357 333.73 26.514 333.73 134.223Z" stroke="#9D84FF" stroke-width="0.5" stroke-miterlimit="10"/>
<path d="M334.364 136.449C334.364 243.395 218.535 328.468 119.253 328.468C19.9707 328.468 107.904 256.747 23.3308 175.361C-33.6644 120.489 54.5862 51.3748 172.444 62.5018C271.029 71.7849 334.364 29.5023 334.364 136.449Z" stroke="#9D84FF" stroke-width="0.5" stroke-miterlimit="10"/>
<path d="M334.934 138.738C334.934 244.984 221.515 329.549 122.55 329.549C23.5846 329.549 100.17 257.51 21.8728 175.17C-32.523 117.946 56.0446 48.2593 172.444 58.6232C270.775 67.3341 334.934 32.4907 334.934 138.738Z" stroke="#9D84FF" stroke-width="0.5" stroke-miterlimit="10"/>
<path d="M335.568 140.963C335.568 246.447 224.558 330.567 125.846 330.567C27.1349 330.567 92.4987 258.082 20.4781 174.98C-31.3185 115.339 57.4394 45.0802 172.381 54.6812C270.522 62.9469 335.568 35.4792 335.568 140.963Z" stroke="#9D84FF" stroke-width="0.5" stroke-miterlimit="10"/>
<path d="M336.139 143.188C336.139 247.973 227.601 331.52 129.143 331.52C30.685 331.52 85.0175 258.591 19.0197 174.789C-29.9873 112.605 58.8339 41.901 172.381 50.8026C270.268 58.4961 336.139 38.4676 336.139 143.188Z" stroke="#9D84FF" stroke-width="0.5" stroke-miterlimit="10"/>
<path d="M336.709 145.477C336.709 249.499 230.58 332.601 132.439 332.601C34.2986 332.601 77.6631 259.036 17.5614 174.662C-28.5927 109.807 60.2285 38.7219 172.317 46.9241C270.014 54.0453 336.709 41.4559 336.709 145.477Z" stroke="#9D84FF" stroke-width="0.5" stroke-miterlimit="10"/>
<path d="M337.343 147.703C337.343 250.961 233.687 333.555 135.736 333.555C37.7856 333.555 70.4358 259.418 16.1033 174.471C-27.071 107.01 61.6234 35.5427 172.317 43.0455C269.761 49.5945 337.343 44.4443 337.343 147.703Z" stroke="#9D84FF" stroke-width="0.5" stroke-miterlimit="10"/>
<path d="M337.914 149.992C337.914 252.551 236.667 334.636 139.033 334.636C41.3993 334.636 63.3986 259.736 14.6452 174.28C-25.3592 104.149 63.0816 32.3636 172.317 39.1034C269.507 45.1437 337.914 47.4327 337.914 149.992Z" stroke="#9D84FF" stroke-width="0.5" stroke-miterlimit="10"/>
<path d="M338.485 152.217C338.485 254.013 239.646 335.653 142.33 335.653C45.0131 335.653 56.4882 260.117 13.1871 174.09C-23.4572 101.224 64.4764 29.1845 172.254 35.2248C269.253 40.6929 338.485 50.4211 338.485 152.217Z" stroke="#9D84FF" stroke-width="0.5" stroke-miterlimit="10"/>
<path d="M339.118 154.506C339.118 255.603 242.753 336.671 145.626 336.671C48.5 336.671 49.7679 260.435 11.7288 173.899C-21.4285 98.2989 65.8711 26.0053 172.254 31.3462C269 36.1785 339.118 53.4095 339.118 154.506Z" stroke="#9D84FF" stroke-width="0.5" stroke-miterlimit="10"/>
<path d="M339.689 156.731C339.689 257.065 245.733 337.688 148.923 337.688C52.1136 337.688 43.1745 260.88 10.3341 173.772C-19.2096 95.4377 67.2659 22.7626 172.19 27.4041C268.746 31.7278 339.689 56.3979 339.689 156.731Z" stroke="#9D84FF" stroke-width="0.5" stroke-miterlimit="10"/>
<path d="M340.26 158.957C340.26 258.591 248.712 338.705 152.156 338.705C55.6005 338.705 36.7078 261.452 8.87584 173.581C-16.8639 92.5765 68.6606 19.5835 172.19 23.5256C268.492 27.2134 340.26 59.3863 340.26 158.957Z" stroke="#9D84FF" stroke-width="0.5" stroke-miterlimit="10"/>
<path d="M340.894 161.246C340.894 260.117 251.819 339.723 155.517 339.723C59.2145 339.723 30.4316 262.088 7.41792 173.39C-14.2644 89.7788 70.119 16.3408 172.19 19.6471C268.239 22.7626 340.894 62.3747 340.894 161.246Z" stroke="#9D84FF" stroke-width="0.5" stroke-miterlimit="10"/>
<path d="M341.464 163.471C341.464 261.579 254.798 340.74 158.813 340.74C62.8278 340.74 24.2181 262.851 5.95938 173.199C-11.602 87.0448 71.5134 13.098 172.127 15.7685C267.985 18.2482 341.464 65.3631 341.464 163.471Z" stroke="#9D84FF" stroke-width="0.5" stroke-miterlimit="10"/>
<path d="M342.098 165.76C342.098 263.169 257.842 341.821 162.11 341.821C66.3783 341.821 18.1321 263.805 4.50146 173.009C-8.81221 84.4379 72.9084 9.91887 172.064 11.8264C267.668 13.7338 342.098 68.3514 342.098 165.76Z" stroke="#9D84FF" stroke-width="0.5" stroke-miterlimit="10"/>
<path d="M342.669 167.986C342.669 264.631 260.885 342.775 165.407 342.775C69.9288 342.775 12.1094 264.949 3.04347 172.881C-5.89571 81.9581 74.3033 6.67617 172.064 7.94782C267.415 9.21948 342.669 71.3398 342.669 167.986Z" stroke="#9D84FF" stroke-width="0.5" stroke-miterlimit="10"/>
<path d="M343.239 170.275C343.239 266.221 263.864 343.855 168.703 343.855C73.5423 343.855 6.08631 266.221 1.58502 172.691C-2.85287 79.6056 75.6978 3.30628 172.063 4.06927C267.161 4.57793 343.239 74.3282 343.239 170.275Z" stroke="#9D84FF" stroke-width="0.5" stroke-miterlimit="10"/>
<path d="M172 344.873C266.923 344.873 343.873 267.699 343.873 172.5C343.873 77.3011 266.923 0.127136 172 0.127136C77.0772 0.127136 0.126953 77.3011 0.126953 172.5C0.126953 267.699 77.0772 344.873 172 344.873Z" stroke="#9D84FF" stroke-width="0.5" stroke-miterlimit="10"/>
</svg>
