<svg width="696" height="513" viewBox="0 0 696 513" fill="none" xmlns="http://www.w3.org/2000/svg">
<path d="M428.617 374.283C476.169 374.283 514.717 367.082 514.717 358.199C514.717 349.316 476.169 342.115 428.617 342.115C381.066 342.115 342.518 349.316 342.518 358.199C342.518 367.082 381.066 374.283 428.617 374.283Z" stroke="#9D84FF" stroke-width="0.5" stroke-miterlimit="10"/>
<path d="M426.031 334.363C444.851 335.138 466.023 335.138 481.078 337.076C506.72 340.565 525.069 347.928 525.069 355.099C525.069 362.075 507.426 368.664 482.96 372.346C467.199 374.671 445.321 374.671 426.031 375.64C375.924 378.353 327.933 364.788 334.756 354.517C340.872 345.409 372.16 332.038 426.031 334.363Z" stroke="#9D84FF" stroke-width="0.5" stroke-miterlimit="10"/>
<path d="M423.442 326.806C443.908 328.55 469.785 327.387 486.488 329.712C514.247 333.588 535.419 343.471 535.419 352.386C535.419 360.912 514.953 369.051 488.37 373.508C470.962 376.415 443.908 375.252 423.442 377.384C370.747 383.004 312.641 363.044 326.991 351.223C338.518 341.727 363.454 321.767 423.442 326.806Z" stroke="#9D84FF" stroke-width="0.5" stroke-miterlimit="10"/>
<path d="M420.855 319.054C442.733 321.573 473.785 319.442 491.899 322.155C521.775 326.612 545.535 339.014 545.535 349.479C545.535 359.556 522.011 369.439 493.546 374.477C474.256 377.966 442.262 375.64 420.62 378.934C365.337 387.267 296.88 360.912 318.994 347.541C335.931 337.658 354.516 311.496 420.855 319.054Z" stroke="#9D84FF" stroke-width="0.5" stroke-miterlimit="10"/>
<path d="M418.267 311.303C441.792 314.597 477.785 311.496 497.545 314.597C529.539 319.635 556.121 334.363 556.121 346.572C556.121 358.199 529.774 369.826 499.192 375.446C478.02 379.322 440.851 376.028 418.267 380.291C360.397 391.337 281.59 358.199 311.466 343.859C333.579 333.588 345.812 301.226 418.267 311.303Z" stroke="#9D84FF" stroke-width="0.5" stroke-miterlimit="10"/>
<path d="M415.681 303.745C440.617 307.814 481.549 303.745 502.957 307.233C537.067 312.853 566.473 330.1 566.473 343.859C566.473 357.036 537.303 370.408 504.603 376.803C481.785 381.26 439.44 376.803 415.681 382.229C355.222 395.988 265.829 356.261 303.468 340.758C330.992 329.325 337.109 290.761 415.681 303.745Z" stroke="#9D84FF" stroke-width="0.5" stroke-miterlimit="10"/>
<path d="M413.092 295.993C439.675 300.838 485.548 295.8 508.367 299.675C544.595 305.877 576.588 325.449 576.588 340.952C576.588 355.486 544.359 370.602 509.778 377.772C485.077 382.81 437.793 377.19 412.857 383.779C350.046 400.445 250.067 353.742 295.469 337.27C328.639 325.255 328.169 280.49 413.092 295.993Z" stroke="#9D84FF" stroke-width="0.5" stroke-miterlimit="10"/>
<path d="M410.505 288.242C438.735 293.862 489.312 288.048 514.013 292.118C552.358 298.706 587.175 320.992 587.175 338.045C587.175 354.13 552.123 370.989 515.425 378.741C488.842 384.36 436.617 377.578 410.505 385.136C345.107 404.514 234.777 351.223 287.942 333.588C326.287 320.992 319.465 270.026 410.505 288.242Z" stroke="#9D84FF" stroke-width="0.5" stroke-miterlimit="10"/>
<path d="M407.916 280.684C437.557 287.079 493.31 280.297 519.422 284.754C559.885 291.924 597.524 316.535 597.524 335.332C597.524 352.967 559.649 371.57 521.069 379.903C492.839 386.105 435.204 378.159 408.151 386.88C340.165 408.971 219.719 348.897 280.413 330.294C323.698 316.922 310.759 259.755 407.916 280.684Z" stroke="#9D84FF" stroke-width="0.5" stroke-miterlimit="10"/>
<path d="M405.329 272.933C436.617 280.103 497.31 272.351 524.834 277.39C567.413 285.141 607.64 312.078 607.64 332.425C607.64 351.61 566.707 371.958 526.245 381.066C496.134 387.849 433.558 378.741 405.329 388.624C334.755 413.235 203.959 346.572 272.415 326.806C321.346 312.659 301.821 249.291 405.329 272.933Z" stroke="#9D84FF" stroke-width="0.5" stroke-miterlimit="10"/>
<path d="M402.742 265.181C435.441 273.126 501.075 264.406 530.48 269.832C575.177 278.165 618.227 307.621 618.227 329.519C618.227 350.254 574.471 372.152 531.892 382.035C499.898 389.399 432.383 379.128 402.977 389.98C329.816 417.304 188.668 343.859 264.888 323.124C318.994 308.396 293.117 238.826 402.742 265.181Z" stroke="#9D84FF" stroke-width="0.5" stroke-miterlimit="10"/>
<path d="M400.153 257.623C434.499 266.344 505.073 256.655 535.89 262.468C582.704 271.189 628.342 303.164 628.342 326.806C628.342 349.091 581.763 372.733 537.066 383.198C503.426 391.143 430.5 379.516 399.918 391.724C324.169 421.761 172.671 341.727 256.653 319.829C316.641 304.326 284.412 228.362 400.153 257.623Z" stroke="#9D84FF" stroke-width="0.5" stroke-miterlimit="10"/>
<path d="M397.565 249.872C433.558 259.368 509.072 248.709 541.536 254.91C590.467 264.212 638.927 298.706 638.927 323.899C638.927 347.541 589.526 373.121 542.712 384.167C507.19 392.693 429.323 379.903 397.565 393.275C319.228 426.025 157.379 339.208 249.125 316.341C314.053 300.063 275.708 217.897 397.565 249.872Z" stroke="#9D84FF" stroke-width="0.5" stroke-miterlimit="10"/>
<path d="M394.978 242.12C432.382 252.197 512.836 240.764 546.947 247.353C597.995 257.236 649.279 294.055 649.279 320.992C649.279 346.184 596.819 373.508 548.123 385.329C510.719 394.437 427.912 380.485 394.978 395.019C314.054 430.482 141.854 336.882 241.363 313.047C311.701 295.8 267.004 207.433 394.978 242.12Z" stroke="#9D84FF" stroke-width="0.5" stroke-miterlimit="10"/>
<path d="M392.39 234.563C431.44 245.415 516.834 233.013 552.357 239.989C605.522 250.26 659.393 289.792 659.393 318.279C659.393 345.022 604.111 374.09 553.298 386.492C514.247 395.988 426.03 381.066 392.154 396.569C308.642 434.745 126.091 334.363 233.363 309.365C309.348 291.73 258.064 196.968 392.39 234.563Z" stroke="#9D84FF" stroke-width="0.5" stroke-miterlimit="10"/>
<path d="M390.037 226.811C430.5 238.439 521.069 225.067 558.238 232.431C613.521 243.283 670.215 285.141 670.215 315.372C670.215 343.665 612.109 374.477 559.414 387.461C518.481 397.538 425.324 381.454 390.273 398.119C303.937 438.815 111.036 331.65 225.836 305.877C306.996 287.467 249.36 186.504 390.037 226.811Z" stroke="#9D84FF" stroke-width="0.5" stroke-miterlimit="10"/>
<path d="M387.451 219.06C429.56 231.462 524.835 217.122 563.65 224.874C621.05 236.113 680.567 280.684 680.567 312.272C680.567 342.115 619.403 374.477 564.826 388.236C522.012 398.895 423.914 381.648 387.686 399.476C298.999 443.078 95.9817 329.131 218.309 302.195C304.645 283.204 240.658 176.039 387.451 219.06Z" stroke="#9D84FF" stroke-width="0.5" stroke-miterlimit="10"/>
<path d="M384.862 211.502C428.617 224.68 528.832 209.371 569.059 217.51C628.576 229.331 690.681 276.227 690.681 309.559C690.681 340.952 626.694 375.059 570 389.593C525.539 400.832 422.031 382.423 384.862 401.22C293.586 447.341 80.2186 326.806 210.309 298.9C302.055 279.134 231.952 165.381 384.862 211.502Z" stroke="#9D84FF" stroke-width="0.5" stroke-miterlimit="10"/>
<path d="M382.275 203.751C427.442 217.703 532.597 201.425 574.706 209.952C636.34 222.354 701.268 271.576 701.268 306.652C701.268 339.596 634.458 375.446 575.647 390.562C529.303 402.383 420.855 382.81 382.51 402.77C288.647 451.605 64.9282 324.286 202.782 295.412C299.703 274.871 223.249 154.916 382.275 203.751Z" stroke="#9D84FF" stroke-width="0.5" stroke-miterlimit="10"/>
<path d="M379.686 195.999C426.5 210.727 536.595 193.48 580.116 202.394C643.867 215.378 711.383 267.119 711.383 303.745C711.383 338.045 641.75 375.834 580.821 391.531C532.831 403.933 419.208 383.198 379.686 404.321C283.236 455.868 49.1663 321.767 194.783 291.73C297.35 270.607 214.544 144.452 379.686 195.999Z" stroke="#9D84FF" stroke-width="0.5" stroke-miterlimit="10"/>
<path d="M377.1 188.441C425.561 203.751 540.596 185.728 585.528 195.03C651.396 208.401 721.735 262.662 721.735 301.032C721.735 336.883 649.044 376.415 586.233 392.693C536.361 405.677 417.562 383.585 377.1 405.871C278.061 460.131 33.6412 319.248 187.021 288.242C294.999 266.538 205.841 133.987 377.1 188.441Z" stroke="#9D84FF" stroke-width="0.5" stroke-miterlimit="10"/>
<path d="M374.511 180.69C424.383 196.774 544.358 177.783 591.172 187.472C659.158 201.425 732.319 258.205 732.319 298.125C732.319 335.526 656.806 376.803 591.878 393.856C540.124 407.421 416.385 384.167 374.511 407.615C272.885 464.588 18.3489 316.922 179.257 284.947C292.645 262.274 197.136 123.523 374.511 180.69Z" stroke="#9D84FF" stroke-width="0.5" stroke-miterlimit="10"/>
<path d="M371.924 172.938C423.443 189.798 548.359 169.838 596.584 179.915C666.687 194.449 742.436 253.554 742.436 295.218C742.436 334.169 664.1 377.19 597.055 394.825C543.654 408.971 414.739 384.554 371.689 409.165C267.711 468.658 2.82396 314.403 171.495 281.266C290.294 258.011 188.433 112.864 371.924 172.938Z" stroke="#9D84FF" stroke-width="0.5" stroke-miterlimit="10"/>
<path d="M369.337 165.381C422.503 183.015 552.358 162.086 601.995 172.551C674.216 187.473 752.788 249.097 752.788 292.311C752.788 332.813 671.628 377.578 602.701 395.794C547.418 410.716 413.328 384.942 369.337 410.522C262.536 472.728 -12.7018 311.884 163.732 277.777C287.707 253.942 179.729 102.4 369.337 165.381Z" stroke="#9D84FF" stroke-width="0.5" stroke-miterlimit="10"/>
<path d="M366.748 157.629C421.325 176.039 556.121 154.141 607.64 164.993C681.977 180.496 763.137 244.64 763.137 289.405C763.137 331.457 678.919 377.966 608.11 396.763C550.946 412.072 411.915 385.329 366.748 412.072C257.359 476.991 -28.2292 309.365 155.733 274.289C285.353 249.678 171.024 91.9353 366.748 157.629Z" stroke="#9D84FF" stroke-width="0.5" stroke-miterlimit="10"/>
<path d="M364.161 149.878C420.384 168.869 560.12 146.196 613.051 157.436C689.506 173.52 773.488 240.183 773.488 286.498C773.488 329.906 686.447 378.353 613.521 397.926C554.71 413.816 410.504 385.911 364.161 413.816C252.184 481.448 -43.7552 307.039 147.97 270.801C283.001 245.415 162.32 81.4709 364.161 149.878Z" stroke="#9D84FF" stroke-width="0.5" stroke-miterlimit="10"/>
<path d="M361.573 142.32C419.443 162.086 563.884 138.444 618.461 150.071C697.033 166.737 783.839 235.726 783.839 283.785C783.839 328.743 693.975 378.741 618.932 399.088C558.238 415.56 408.857 386.298 361.573 415.366C246.773 485.517 -59.0466 304.52 140.207 267.313C280.648 241.152 153.616 71.0062 361.573 142.32Z" stroke="#9D84FF" stroke-width="0.5" stroke-miterlimit="10"/>
<path d="M358.986 134.569C418.267 155.11 567.884 130.499 624.107 142.514C704.797 159.567 794.19 231.268 794.19 280.878C794.19 327.387 701.503 379.128 624.343 400.057C562.002 417.111 407.446 386.686 358.986 416.917C241.598 489.781 -74.5723 301.613 132.444 263.825C278.296 236.888 144.912 60.348 358.986 134.569Z" stroke="#9D84FF" stroke-width="0.5" stroke-miterlimit="10"/>
<path d="M356.398 126.817C417.327 147.94 571.883 122.554 629.518 134.956C712.09 152.591 804.541 226.618 804.541 277.971C804.541 326.03 708.796 379.516 629.754 401.026C565.532 418.661 405.8 387.074 356.398 418.467C236.423 494.044 -90.0982 299.288 124.681 260.337C275.709 232.625 136.208 49.4959 356.398 126.817Z" stroke="#9D84FF" stroke-width="0.5" stroke-miterlimit="10"/>
<path d="M353.81 119.259C416.385 141.157 575.882 114.802 635.164 127.592C719.852 145.808 815.127 222.16 815.127 275.258C815.127 324.868 716.559 380.097 635.399 402.383C569.295 420.599 404.623 387.849 354.045 420.405C231.482 498.308 -105.39 296.962 116.918 256.848C273.356 228.555 127.504 39.0314 353.81 119.259Z" stroke="#9D84FF" stroke-width="0.5" stroke-miterlimit="10"/>
<path d="M351.458 111.508C415.444 134.181 579.881 106.857 640.81 120.034C727.615 138.638 825.478 217.703 825.478 272.351C825.478 323.511 724.087 380.485 641.045 403.352C573.294 422.149 403.447 388.236 351.693 421.761C226.307 502.571 -120.916 294.443 109.154 253.36C271.003 224.292 118.8 28.5668 351.458 111.508Z" stroke="#9D84FF" stroke-width="0.5" stroke-miterlimit="10"/>
<path d="M348.87 103.756C414.503 127.205 583.88 98.9117 646.22 112.477C735.143 131.662 835.828 213.052 835.828 269.445C835.828 321.961 731.379 380.679 646.455 404.321C576.823 423.699 401.8 388.624 348.87 423.312C221.131 506.834 -136.442 292.118 101.391 249.872C268.651 220.223 110.095 18.1023 348.87 103.756Z" stroke="#9D84FF" stroke-width="0.5" stroke-miterlimit="10"/>
<path d="M346.283 96.1987C413.563 120.422 587.645 91.1602 651.632 105.113C742.672 124.879 845.945 208.789 845.945 266.538C845.945 320.604 738.673 381.066 651.632 405.29C580.117 425.25 400.154 389.011 346.048 424.862C215.957 511.291 -151.732 289.598 93.6289 246.384C266.299 215.959 101.392 7.63782 346.283 96.1987Z" stroke="#9D84FF" stroke-width="0.5" stroke-miterlimit="10"/>
<path d="M856.53 263.631C856.53 319.248 746.435 381.454 657.277 406.452C584.116 426.994 398.977 389.593 343.695 426.412C210.781 515.555 -167.259 287.273 85.8653 242.896C263.946 211.696 92.4522 -2.82671 343.695 88.4471C412.386 113.446 591.644 83.2149 657.277 97.5551C750.434 117.903 856.53 204.138 856.53 263.631Z" stroke="#9D84FF" stroke-width="0.5" stroke-miterlimit="10"/>
<rect width="12" height="8.3425" transform="translate(651.402 147.821)" fill="#5B32FF"/>
<rect x="655.402" y="149.992" width="4" height="4" fill="#54FFBF"/>
<rect width="12" height="8.3425" transform="translate(522.316 91)" fill="#5B32FF"/>
<rect x="526.316" y="93.1713" width="4" height="4" fill="#54FFBF"/>
<rect width="12" height="8.3425" transform="translate(506.641 214.345)" fill="#5B32FF"/>
<rect x="510.641" y="216.516" width="4" height="4" fill="#54FFBF"/>
<rect width="12" height="8.3425" transform="translate(174.932 153.598)" fill="#5B32FF"/>
<rect x="178.932" y="155.769" width="4" height="4" fill="#54FFBF"/>
<rect width="12" height="8.3425" transform="translate(334.305 304.48)" fill="#5B32FF"/>
<rect x="338.305" y="306.652" width="4" height="4" fill="#54FFBF"/>
<rect width="12" height="8.3425" transform="translate(119.545 266.598)" fill="#5B32FF"/>
<rect x="123.545" y="268.769" width="4" height="4" fill="#54FFBF"/>
<rect width="12" height="8.3425" transform="translate(364.402 193.009)" fill="#5B32FF"/>
<rect x="368.402" y="195.181" width="4" height="4" fill="#54FFBF"/>
<rect width="12" height="8.3425" transform="translate(85 381.895)" fill="#5B32FF"/>
<rect x="89" y="384.066" width="4" height="4" fill="#54FFBF"/>
<rect width="12" height="8.3425" transform="translate(506.402 336.917)" fill="#5B32FF"/>
<rect x="510.402" y="339.089" width="4" height="4" fill="#54FFBF"/>
<rect width="12" height="8.3425" transform="translate(237 338)" fill="#5B32FF"/>
<rect x="241" y="340.171" width="4" height="4" fill="#54FFBF"/>
</svg>
