<svg width="729" height="383" viewBox="0 0 729 383" fill="none" xmlns="http://www.w3.org/2000/svg">
<path d="M349.559 256.799C297.598 -261.926 89.6169 529.015 89.6169 305.002C89.6169 80.9895 295.315 -292.187 560.091 -292.187C824.867 -292.187 346.471 -203.814 391.585 16.9858C457.779 340.887 375.742 517.098 349.559 256.799Z" stroke="#9D84FF" stroke-width="0.5" stroke-miterlimit="10"/>
<path d="M555.258 -293.392C292.093 -293.392 87.4689 74.5623 87.4689 298.04C87.4689 521.517 291.959 -245.992 350.097 260.012C379.233 514.153 464.627 338.075 399.91 17.1196C355.87 -203.278 818.557 -293.392 555.258 -293.392Z" stroke="#9D84FF" stroke-width="0.5" stroke-miterlimit="10"/>
<path d="M550.558 -294.597C288.87 -294.597 85.3204 68.1351 85.3204 291.077C85.3204 514.019 286.319 -229.924 350.365 262.958C382.589 510.805 471.072 334.996 408.1 16.9857C365.134 -202.742 812.246 -294.597 550.558 -294.597Z" stroke="#9D84FF" stroke-width="0.5" stroke-miterlimit="10"/>
<path d="M545.724 -295.936C285.648 -295.936 83.0375 61.708 83.0375 283.98C83.0375 506.252 280.545 -213.99 350.633 265.904C385.946 507.725 477.516 331.916 416.156 16.9858C374.533 -202.207 805.935 -295.936 545.724 -295.936Z" stroke="#9D84FF" stroke-width="0.5" stroke-miterlimit="10"/>
<path d="M541.025 -297.141C282.425 -297.141 80.8892 55.4147 80.8892 277.151C80.8892 498.888 275.04 -197.654 351.036 269.117C389.571 504.78 483.424 329.238 424.48 17.1196C383.26 -201.537 799.625 -297.141 541.025 -297.141Z" stroke="#9D84FF" stroke-width="0.5" stroke-miterlimit="10"/>
<path d="M536.326 -298.346C279.337 -298.346 78.8755 48.9876 78.8755 270.189C78.8755 491.39 269.536 -181.452 351.573 272.197C393.062 501.834 489.869 326.292 432.805 17.2536C392.391 -201.002 793.314 -298.346 536.326 -298.346Z" stroke="#9D84FF" stroke-width="0.5" stroke-miterlimit="10"/>
<path d="M531.492 -299.685C275.98 -299.685 76.5926 42.5605 76.5926 263.092C76.5926 483.624 264.03 -165.251 351.842 275.143C396.418 498.888 496.314 323.347 440.995 17.2536C401.655 -200.332 787.003 -299.685 531.492 -299.685Z" stroke="#9D84FF" stroke-width="0.5" stroke-miterlimit="10"/>
<path d="M526.793 -300.89C272.893 -300.89 74.4448 36.2672 74.4448 256.263C74.4448 476.259 258.526 -148.781 352.245 278.223C400.044 496.076 502.759 320.401 449.186 17.2536C410.786 -199.797 780.694 -300.89 526.793 -300.89Z" stroke="#9D84FF" stroke-width="0.5" stroke-miterlimit="10"/>
<path d="M521.96 -302.229C269.67 -302.229 72.2968 29.7062 72.2968 249.167C72.2968 468.627 253.155 -132.311 352.648 281.302C403.535 493.264 509.338 317.455 457.511 17.3875C420.05 -199.261 774.383 -302.229 521.96 -302.229Z" stroke="#9D84FF" stroke-width="0.5" stroke-miterlimit="10"/>
<path d="M517.259 -303.434C266.447 -303.434 70.1476 23.4129 70.1476 242.338C70.1476 461.262 247.918 -115.708 353.05 284.516C407.16 490.586 515.782 314.643 465.701 17.5213C429.314 -198.592 768.072 -303.434 517.259 -303.434Z" stroke="#9D84FF" stroke-width="0.5" stroke-miterlimit="10"/>
<path d="M512.426 -304.64C263.225 -304.64 67.9995 17.1196 67.9995 235.375C67.9995 453.63 242.682 -99.1047 353.318 287.462C410.785 487.908 522.227 311.697 473.891 17.5213C438.444 -198.056 761.761 -304.64 512.426 -304.64Z" stroke="#9D84FF" stroke-width="0.5" stroke-miterlimit="10"/>
<path d="M507.727 -305.978C260.003 -305.978 65.8519 10.5586 65.8519 228.278C65.8519 445.998 237.58 -82.5011 353.722 290.407C414.411 485.096 528.673 308.618 482.082 17.5214C447.71 -197.52 755.451 -305.978 507.727 -305.978Z" stroke="#9D84FF" stroke-width="0.5" stroke-miterlimit="10"/>
<path d="M503.028 -307.184C256.915 -307.184 63.7032 4.26537 63.7032 221.449C63.7032 438.633 232.612 -65.6299 354.125 293.621C418.17 482.686 535.252 305.806 490.406 17.6553C456.974 -196.985 749.14 -307.184 503.028 -307.184Z" stroke="#9D84FF" stroke-width="0.5" stroke-miterlimit="10"/>
<path d="M498.193 -308.389C253.691 -308.389 61.5542 -2.16177 61.5542 214.487C61.5542 431.135 227.778 -48.7586 354.527 296.701C421.795 480.276 541.696 302.86 498.596 17.6552C466.237 -196.449 742.829 -308.389 498.193 -308.389Z" stroke="#9D84FF" stroke-width="0.5" stroke-miterlimit="10"/>
<path d="M493.494 -309.728C250.469 -309.728 59.4063 -8.58889 59.4063 207.39C59.4063 423.369 222.944 -31.8873 354.795 299.646C425.555 477.732 548.141 299.914 506.787 17.7892C475.368 -195.78 736.519 -309.728 493.494 -309.728Z" stroke="#9D84FF" stroke-width="0.5" stroke-miterlimit="10"/>
<path d="M488.66 -310.933C247.247 -310.933 57.1236 -14.8822 57.1236 200.561C57.1236 416.005 218.379 -14.8822 355.198 302.86C429.582 475.59 554.72 297.102 514.977 17.923C484.632 -195.244 730.208 -310.933 488.66 -310.933Z" stroke="#9D84FF" stroke-width="0.5" stroke-miterlimit="10"/>
<path d="M483.962 -312.272C244.025 -312.272 55.1102 -21.4433 55.1102 193.465C55.1102 408.372 214.217 1.98906 355.736 305.806C433.611 473.179 561.434 294.023 523.436 17.923C493.897 -194.708 723.764 -312.272 483.962 -312.272Z" stroke="#9D84FF" stroke-width="0.5" stroke-miterlimit="10"/>
<path d="M479.128 -313.477C240.802 -313.477 52.8276 -27.7365 52.8276 186.502C52.8276 400.74 210.055 19.1282 356.004 308.885C437.639 470.903 567.879 291.077 531.492 17.9231C503.162 -194.173 717.453 -313.477 479.128 -313.477Z" stroke="#9D84FF" stroke-width="0.5" stroke-miterlimit="10"/>
<path d="M474.428 -314.682C237.579 -314.682 50.6785 -34.0297 50.6785 179.673C50.6785 393.376 206.161 36.4011 356.272 311.965C441.666 468.761 574.323 288.131 539.682 18.057C512.56 -193.637 711.142 -314.682 474.428 -314.682Z" stroke="#9D84FF" stroke-width="0.5" stroke-miterlimit="10"/>
<path d="M469.595 -316.021C234.492 -316.021 48.5316 -40.457 48.5316 172.576C48.5316 385.61 202.537 53.2723 356.676 314.911C445.964 466.484 580.903 285.051 547.873 17.923C521.825 -193.102 704.832 -316.021 469.595 -316.021Z" stroke="#9D84FF" stroke-width="0.5" stroke-miterlimit="10"/>
<path d="M464.896 -317.226C231.27 -317.226 46.3833 -46.884 46.3833 165.614C46.3833 378.111 199.314 70.4115 357.079 317.991C450.395 464.476 587.617 282.106 556.198 18.057C531.09 -192.566 698.522 -317.226 464.896 -317.226Z" stroke="#9D84FF" stroke-width="0.5" stroke-miterlimit="10"/>
<path d="M460.196 -318.431C228.047 -318.431 44.2347 -53.1773 44.2347 158.785C44.2347 370.747 196.226 87.5505 357.481 321.07C455.094 462.334 594.196 279.16 564.388 18.1908C540.354 -191.897 692.211 -318.431 460.196 -318.431Z" stroke="#9D84FF" stroke-width="0.5" stroke-miterlimit="10"/>
<path d="M455.363 -319.77C224.825 -319.77 42.0864 -59.7382 42.0864 151.688C42.0864 363.114 193.54 104.556 357.884 324.15C459.793 460.325 600.775 276.214 572.578 18.1909C549.753 -191.361 685.9 -319.77 455.363 -319.77Z" stroke="#9D84FF" stroke-width="0.5" stroke-miterlimit="10"/>
<path d="M450.662 -320.975C221.602 -320.975 39.9372 -66.0316 39.9372 144.725C39.9372 355.482 191.123 121.293 358.286 327.23C464.626 458.183 607.487 273.268 580.902 18.3247C559.017 -190.825 679.589 -320.975 450.662 -320.975Z" stroke="#9D84FF" stroke-width="0.5" stroke-miterlimit="10"/>
<path d="M445.828 -322.18C218.379 -322.18 37.6541 -72.3248 37.6541 137.896C37.6541 348.118 188.84 138.298 358.554 330.443C469.594 456.174 614.066 270.456 588.958 18.4586C568.28 -190.29 673.278 -322.18 445.828 -322.18Z" stroke="#9D84FF" stroke-width="0.5" stroke-miterlimit="10"/>
<path d="M441.13 -323.519C215.291 -323.519 35.641 -78.8857 35.641 130.8C35.641 340.486 187.095 154.768 358.958 333.389C474.831 453.764 620.78 267.377 597.283 18.4588C577.68 -189.754 666.968 -323.519 441.13 -323.519Z" stroke="#9D84FF" stroke-width="0.5" stroke-miterlimit="10"/>
<path d="M436.297 -324.724C211.935 -324.724 33.3589 -85.1791 33.3589 123.837C33.3589 332.853 185.484 171.103 359.361 336.469C480.202 451.354 627.36 264.297 605.474 18.4587C587.079 -189.219 660.658 -324.724 436.297 -324.724Z" stroke="#9D84FF" stroke-width="0.5" stroke-miterlimit="10"/>
<path d="M431.597 -326.064C208.846 -326.063 31.2099 -91.6064 31.2099 116.874C31.2099 325.355 184.275 187.305 359.763 339.414C485.707 448.81 634.072 261.351 613.798 18.5925C596.343 -188.683 654.347 -326.064 431.597 -326.064Z" stroke="#9D84FF" stroke-width="0.5" stroke-miterlimit="10"/>
<path d="M426.897 -327.268C205.624 -327.268 29.1957 -98.0335 29.1957 109.912C29.1957 317.857 183.201 203.105 360.166 342.494C491.48 445.998 640.786 258.406 621.988 18.5925C605.742 -188.147 648.036 -327.269 426.897 -327.268Z" stroke="#9D84FF" stroke-width="0.5" stroke-miterlimit="10"/>
<path d="M422.064 -328.474C202.402 -328.474 26.9138 -104.327 26.9138 102.949C26.9138 310.224 182.262 218.638 360.435 345.574C497.388 443.052 647.499 255.46 630.179 18.7264C615.141 -187.612 641.726 -328.474 422.064 -328.474Z" stroke="#9D84FF" stroke-width="0.5" stroke-miterlimit="10"/>
<path d="M417.364 -329.812C199.314 -329.812 24.8997 -110.888 24.8997 95.9861C24.8997 302.86 181.456 233.902 360.838 348.653C503.296 439.839 654.213 252.514 638.369 18.7264C624.54 -187.076 635.415 -329.812 417.364 -329.812Z" stroke="#9D84FF" stroke-width="0.5" stroke-miterlimit="10"/>
<path d="M412.531 -331.018C195.957 -331.017 22.6174 -117.181 22.6174 89.0234C22.6174 295.228 180.785 248.765 361.241 351.733C509.338 436.223 660.926 249.434 646.694 18.7265C633.939 -186.541 629.105 -331.018 412.531 -331.018Z" stroke="#9D84FF" stroke-width="0.5" stroke-miterlimit="10"/>
<path d="M407.831 -332.222C192.869 -332.222 20.4687 -123.474 20.4687 82.0607C20.4687 287.596 179.979 263.36 361.643 354.813C515.514 432.206 667.639 246.489 654.884 18.8604C643.337 -186.005 622.794 -332.222 407.831 -332.222Z" stroke="#9D84FF" stroke-width="0.5" stroke-miterlimit="10"/>
<path d="M402.997 -333.562C189.511 -333.562 18.3197 -130.035 18.3197 75.0979C18.3197 280.231 179.307 277.553 362.045 357.892C521.69 427.922 674.352 243.543 663.074 18.8603C652.869 -185.47 616.483 -333.562 402.997 -333.562Z" stroke="#9D84FF" stroke-width="0.5" stroke-miterlimit="10"/>
<path d="M398.299 -334.767C186.424 -334.767 16.1724 -136.329 16.1724 68.1351C16.1724 272.599 178.368 291.479 362.315 360.838C527.733 423.235 681.201 240.597 671.399 18.9942C662.269 -184.934 610.173 -334.767 398.299 -334.767Z" stroke="#9D84FF" stroke-width="0.5" stroke-miterlimit="10"/>
<path d="M393.598 -335.972C183.201 -335.972 14.0231 -142.622 14.0231 61.3063C14.0231 265.234 177.159 305.136 362.717 363.918C533.774 418.281 687.913 237.651 679.589 18.9942C671.801 -184.398 603.862 -335.972 393.598 -335.972Z" stroke="#9D84FF" stroke-width="0.5" stroke-miterlimit="10"/>
<path d="M388.765 -337.311C179.979 -337.311 11.8758 -149.183 11.8758 54.2097C11.8758 257.602 175.817 318.392 363.12 366.998C539.682 412.791 694.762 234.572 687.78 18.9943C681.201 -183.863 597.552 -337.311 388.765 -337.311Z" stroke="#9D84FF" stroke-width="0.5" stroke-miterlimit="10"/>
<path d="M384.066 -338.516C176.891 -338.516 9.72716 -155.476 9.72716 47.247C9.72717 249.97 174.205 331.514 363.523 370.077C545.456 407.167 701.609 231.626 695.97 19.1282C690.734 -183.327 591.241 -338.516 384.066 -338.516Z" stroke="#9D84FF" stroke-width="0.5" stroke-miterlimit="10"/>
<path d="M379.233 -339.855C173.535 -339.855 7.44559 -161.903 7.44559 40.2842C7.4456 242.472 172.192 344.369 363.927 373.157C550.962 401.276 708.323 228.68 704.295 19.262C700.267 -182.658 584.931 -339.855 379.233 -339.855Z" stroke="#9D84FF" stroke-width="0.5" stroke-miterlimit="10"/>
<path d="M374.533 -341.06C170.446 -341.06 5.43079 -168.33 5.43079 33.3214C5.4308 234.973 169.775 357.089 364.194 376.237C556.197 395.116 715.17 225.734 712.485 19.262C709.8 -182.122 578.62 -341.06 374.533 -341.06Z" stroke="#9D84FF" stroke-width="0.5" stroke-miterlimit="10"/>
<path d="M369.699 -342.265C167.089 -342.265 3.14755 -174.624 3.14755 26.3587C3.14755 227.341 167.089 369.809 364.596 379.316C561.164 388.689 722.286 222.788 720.675 19.262C719.6 -181.586 572.309 -342.265 369.699 -342.265Z" stroke="#9D84FF" stroke-width="0.5" stroke-miterlimit="10"/>
<path d="M0.999996 19.396C0.999993 -181.083 163.968 -343.604 365 -343.604C566.032 -343.604 729 -181.083 729 19.396C729 219.875 566.032 382.396 365 382.396C163.968 382.396 0.999998 219.875 0.999996 19.396Z" stroke="#9D84FF" stroke-width="0.5" stroke-miterlimit="10"/>
</svg>
