<svg width="606" height="436" viewBox="0 0 606 436" fill="none" xmlns="http://www.w3.org/2000/svg">
<path d="M552.623 268.901L364.526 228.859C341.674 223.978 327.131 213.791 327.131 202.542V16.625C327.131 4.66916 355.257 -3.18351 379.708 1.98086L575.636 43.6495C593.694 47.4698 605.2 55.5347 605.2 64.3778V254.186C605.2 266.213 577.074 274.065 552.623 268.901Z" stroke="#9D84FF" stroke-width="0.5" stroke-miterlimit="10"/>
<path d="M547.03 271.448L359.732 231.618C337.039 226.808 322.656 216.691 322.656 205.584V19.3841C322.656 7.4282 350.783 -0.424473 375.234 4.7399L570.522 46.3378C589.06 50.2995 600.726 58.5059 600.726 67.5613V256.45C600.726 268.689 571.96 276.754 547.03 271.448Z" stroke="#9D84FF" stroke-width="0.5" stroke-miterlimit="10"/>
<path d="M541.436 273.994L355.098 234.377C332.724 229.638 318.341 219.592 318.341 208.556V22.2139C318.341 10.258 346.468 2.40533 370.919 7.5697L565.408 48.9554C584.265 52.9878 596.251 61.4065 596.251 70.674V258.643C596.251 271.235 566.846 279.442 541.436 273.994Z" stroke="#9D84FF" stroke-width="0.5" stroke-miterlimit="10"/>
<path d="M535.683 276.541L350.144 237.066C327.93 232.326 313.867 222.422 313.867 211.456V25.0437C313.867 13.0878 341.993 5.23513 366.444 10.3995L560.134 51.6437C579.471 55.7469 591.777 64.3778 591.777 73.8576V260.907C591.777 273.712 561.732 282.059 535.683 276.541Z" stroke="#9D84FF" stroke-width="0.5" stroke-miterlimit="10"/>
<path d="M530.09 279.159L345.349 239.825C323.296 235.156 309.392 225.322 309.392 214.498V27.8734C309.392 15.9176 337.519 8.06491 361.97 13.2293L555.18 54.332C574.996 58.5059 587.462 67.349 587.462 77.0411V263.171C587.302 276.188 556.618 284.748 530.09 279.159Z" stroke="#9D84FF" stroke-width="0.5" stroke-miterlimit="10"/>
<path d="M524.337 281.706L340.555 242.584C318.821 237.915 304.917 228.152 304.917 217.469V30.7032C304.917 18.7474 333.044 10.8947 357.495 16.0591L549.906 57.0203C570.042 61.3357 582.987 70.3203 582.987 80.2246V265.434C582.827 278.734 551.504 287.436 524.337 281.706Z" stroke="#9D84FF" stroke-width="0.5" stroke-miterlimit="10"/>
<path d="M518.744 284.252L335.761 245.343C314.187 240.744 300.443 231.052 300.443 220.441V33.4623C300.443 21.5064 328.569 13.6537 353.02 18.8181L544.793 59.6378C565.408 64.024 578.512 73.2208 578.512 83.3373V267.627C578.353 281.21 546.391 290.124 518.744 284.252Z" stroke="#9D84FF" stroke-width="0.5" stroke-miterlimit="10"/>
<path d="M513.15 286.799L330.967 248.031C309.552 243.504 295.968 233.882 295.968 223.412V36.2921C295.968 24.3362 324.095 16.4835 348.546 21.6479L539.519 62.2554C560.614 66.7123 573.878 76.1214 573.878 86.4501V269.821C573.878 283.757 541.277 292.813 513.15 286.799Z" stroke="#9D84FF" stroke-width="0.5" stroke-miterlimit="10"/>
<path d="M507.397 289.417L326.012 250.861C304.758 246.333 291.333 236.853 291.333 226.454V39.1219C291.333 27.166 319.46 19.3133 343.911 24.4777L534.245 64.9437C555.659 69.5421 569.403 79.0926 569.403 89.6336V272.084C569.403 286.233 536.163 295.501 507.397 289.417Z" stroke="#9D84FF" stroke-width="0.5" stroke-miterlimit="10"/>
<path d="M501.803 291.964L321.378 253.549C300.443 249.092 287.019 239.683 287.019 229.425V41.9517C287.019 29.9958 315.145 22.1431 339.596 27.3075L529.291 67.632C551.185 72.3012 565.088 82.0639 565.088 92.8171V274.348C564.928 288.709 531.049 298.189 501.803 291.964Z" stroke="#9D84FF" stroke-width="0.5" stroke-miterlimit="10"/>
<path d="M496.05 294.51L316.424 256.308C295.649 251.922 282.384 242.584 282.384 232.397V44.7814C282.384 32.8256 310.511 24.9729 334.962 30.1373L523.857 70.3203C546.231 75.0602 560.294 85.0352 560.294 96.0006V276.612C560.454 291.256 525.935 300.878 496.05 294.51Z" stroke="#9D84FF" stroke-width="0.5" stroke-miterlimit="10"/>
<path d="M490.457 297.057L311.629 259.067C291.014 254.681 278.069 245.484 278.069 235.368V47.5405C278.069 35.5846 306.196 27.732 330.647 32.8963L518.903 72.9379C541.596 77.7485 556.139 87.9358 556.139 99.1134V278.734C555.979 293.732 520.821 303.566 490.457 297.057Z" stroke="#9D84FF" stroke-width="0.5" stroke-miterlimit="10"/>
<path d="M484.864 299.675L306.835 261.826C286.539 257.511 273.595 248.385 273.595 238.41V50.3703C273.595 38.4144 301.721 30.5618 326.172 35.7261L513.63 75.6969C536.802 80.6491 551.505 90.9778 551.505 102.368V281.069C551.505 296.279 515.707 306.254 484.864 299.675Z" stroke="#9D84FF" stroke-width="0.5" stroke-miterlimit="10"/>
<path d="M479.111 302.222L302.041 264.515C281.905 260.199 269.12 251.215 269.12 241.31V53.2001C269.12 41.2442 297.247 33.3915 321.698 38.5559L508.516 78.3145C532.168 83.3373 547.19 93.8783 547.19 105.48V283.262C547.03 298.755 510.593 308.872 479.111 302.222Z" stroke="#9D84FF" stroke-width="0.5" stroke-miterlimit="10"/>
<path d="M473.517 304.768L297.247 267.274C277.27 263.029 264.646 254.115 264.646 244.352V56.0299C264.646 44.074 292.772 36.2213 317.223 41.3857L503.402 81.0028C527.373 86.0964 542.715 96.8496 542.715 108.664V285.526C542.555 301.231 505.479 311.56 473.517 304.768Z" stroke="#9D84FF" stroke-width="0.5" stroke-miterlimit="10"/>
<path d="M467.924 307.315L292.453 270.033C272.796 265.859 260.171 257.016 260.171 247.324V58.8596C260.171 46.9038 288.297 39.0511 312.748 44.2155L498.128 83.6911C522.579 88.9262 538.081 99.8209 538.081 111.847V287.79C538.081 303.778 500.365 314.248 467.924 307.315Z" stroke="#9D84FF" stroke-width="0.5" stroke-miterlimit="10"/>
<path d="M462.171 309.933L287.658 272.792C268.161 268.618 255.696 259.916 255.696 250.295V61.6895C255.696 49.7336 283.822 41.8809 308.273 47.0453L492.854 86.3086C517.784 91.6145 533.606 102.721 533.606 114.96V289.983C533.606 306.254 495.251 316.937 462.171 309.933Z" stroke="#9D84FF" stroke-width="0.5" stroke-miterlimit="10"/>
<path d="M456.577 312.48L282.864 275.551C263.527 271.448 251.221 262.817 251.221 253.337V64.4485C251.221 52.4926 279.348 44.6399 303.799 49.8043L487.9 88.9262C513.15 94.3028 529.291 105.622 529.291 118.073V292.176C529.131 308.801 490.137 319.625 456.577 312.48Z" stroke="#9D84FF" stroke-width="0.5" stroke-miterlimit="10"/>
<path d="M450.824 315.026L277.91 278.239C258.732 274.207 246.587 265.647 246.587 256.238V67.2783C246.587 55.3224 274.713 47.4698 299.164 52.6341L482.626 91.6852C508.356 97.1326 524.816 108.664 524.816 121.327V294.511C524.656 311.277 485.024 322.313 450.824 315.026Z" stroke="#9D84FF" stroke-width="0.5" stroke-miterlimit="10"/>
<path d="M445.231 317.573L273.115 280.998C254.258 276.966 242.272 268.547 242.272 259.209V70.1081C242.272 58.1522 270.399 50.2996 294.849 55.4639L477.512 94.3028C503.721 99.8916 520.342 111.565 520.342 124.44V296.704C520.182 313.753 479.91 325.001 445.231 317.573Z" stroke="#9D84FF" stroke-width="0.5" stroke-miterlimit="10"/>
<path d="M439.637 320.191L268.481 283.757C249.783 279.796 237.957 271.448 237.957 262.251V72.9379C237.957 60.982 266.084 53.1293 290.535 58.2937L472.399 96.9911C498.927 102.651 515.867 114.536 515.867 127.624V298.967C515.707 316.3 474.796 327.69 439.637 320.191Z" stroke="#9D84FF" stroke-width="0.5" stroke-miterlimit="10"/>
<path d="M433.884 322.738L263.527 286.516C244.989 282.555 233.323 274.348 233.323 265.222V75.7677C233.323 63.8118 261.449 55.9591 285.9 61.1235L467.125 99.6794C494.133 105.41 511.392 117.507 511.392 130.807V301.231C511.233 318.776 469.682 330.378 433.884 322.738Z" stroke="#9D84FF" stroke-width="0.5" stroke-miterlimit="10"/>
<path d="M428.291 325.284L258.732 289.205C240.514 285.314 228.848 277.107 228.848 268.193V78.5267C228.848 66.5708 256.974 58.7182 281.425 63.8825L462.011 102.297C489.498 108.169 506.917 120.408 506.917 133.92V303.354C506.757 321.323 464.568 333.066 428.291 325.284Z" stroke="#9D84FF" stroke-width="0.5" stroke-miterlimit="10"/>
<path d="M422.538 327.831L253.938 291.964C235.879 288.143 224.373 280.008 224.373 271.165V81.3565C224.373 69.4006 252.5 61.548 276.951 66.7123L456.737 104.985C484.704 110.928 502.283 123.379 502.283 137.103V305.617C502.283 323.799 459.614 335.684 422.538 327.831Z" stroke="#9D84FF" stroke-width="0.5" stroke-miterlimit="10"/>
<path d="M416.944 330.449L249.144 294.723C231.245 290.903 219.898 282.908 219.898 274.136V84.1863C219.898 72.2304 248.025 64.3777 272.476 69.5421L451.623 107.674C479.91 113.687 497.968 126.35 497.968 140.287V307.881C497.808 326.275 454.5 338.372 416.944 330.449Z" stroke="#9D84FF" stroke-width="0.5" stroke-miterlimit="10"/>
<path d="M411.351 332.996L244.349 297.482C226.77 293.732 215.424 285.809 215.424 277.178V87.0161C215.424 75.0602 243.55 67.2075 268.001 72.3719L446.349 110.362C475.115 116.446 493.334 129.321 493.334 143.47V310.145C493.334 328.822 449.386 341.061 411.351 332.996Z" stroke="#9D84FF" stroke-width="0.5" stroke-miterlimit="10"/>
<path d="M409.273 337.028L235.879 300.099C218.14 296.35 206.794 288.356 206.794 279.654V85.106C206.794 73.1501 234.921 65.2974 259.371 70.4618L443.313 109.654C471.919 115.738 490.137 128.614 490.137 142.692V314.531C490.297 332.925 446.829 345.022 409.273 337.028Z" stroke="#9D84FF" stroke-width="0.5" stroke-miterlimit="10"/>
<path d="M407.356 341.061L227.41 302.788C209.511 298.967 198.165 290.973 198.165 282.201V83.1959C198.165 71.24 226.291 63.3873 250.742 68.5517L440.277 108.876C468.883 114.96 487.101 127.765 487.101 141.773V318.776C487.101 337.028 444.432 348.913 407.356 341.061Z" stroke="#9D84FF" stroke-width="0.5" stroke-miterlimit="10"/>
<path d="M405.438 345.093L219.099 305.476C201.201 301.656 189.694 293.591 189.694 284.818V81.2857C189.694 69.3299 217.821 61.4772 242.272 66.6416L437.4 108.239C465.846 114.324 484.065 127.058 484.065 141.065V323.233C484.065 341.131 441.875 352.875 405.438 345.093Z" stroke="#9D84FF" stroke-width="0.5" stroke-miterlimit="10"/>
<path d="M403.52 349.125L210.629 308.093C192.571 304.273 181.064 296.138 181.064 287.295V79.3756C181.064 67.4198 209.191 59.5671 233.642 64.7315L434.363 107.461C462.81 113.545 480.868 126.209 480.868 140.216V327.548C480.868 345.234 439.318 356.766 403.52 349.125Z" stroke="#9D84FF" stroke-width="0.5" stroke-miterlimit="10"/>
<path d="M401.603 353.158L202.319 310.782C184.101 306.891 172.595 298.755 172.595 289.841V77.5363C172.595 65.5804 200.721 57.7277 225.172 62.8921L431.487 106.825C459.773 112.838 477.832 125.572 477.832 139.509V332.005C477.832 349.338 436.921 360.728 401.603 353.158Z" stroke="#9D84FF" stroke-width="0.5" stroke-miterlimit="10"/>
<path d="M399.685 357.261L193.849 313.47C175.631 309.579 163.965 301.373 163.965 292.388V75.6262C163.965 63.6703 192.091 55.8176 216.542 60.982L428.451 106.046C456.737 112.06 474.796 124.723 474.796 138.589V336.321C474.636 353.441 434.364 364.619 399.685 357.261Z" stroke="#9D84FF" stroke-width="0.5" stroke-miterlimit="10"/>
<path d="M397.767 361.294L185.379 316.088C167.001 312.197 155.335 303.92 155.335 294.935V73.7161C155.335 61.7602 183.462 53.9075 207.913 59.0719L425.414 105.339C453.7 111.352 471.599 123.945 471.599 137.811V340.707C471.599 357.544 431.966 368.58 397.767 361.294Z" stroke="#9D84FF" stroke-width="0.5" stroke-miterlimit="10"/>
<path d="M395.849 365.326L177.069 318.776C158.531 314.814 146.865 306.537 146.865 297.482V71.806C146.865 59.8501 174.992 51.9974 199.443 57.1618L422.538 104.632C450.664 110.645 468.563 123.237 468.563 137.033V345.093C468.403 361.647 429.41 372.471 395.849 365.326Z" stroke="#9D84FF" stroke-width="0.5" stroke-miterlimit="10"/>
<path d="M393.932 369.358L168.599 321.464C150.061 317.503 138.235 309.155 138.235 300.029V69.8958C138.235 57.94 166.362 50.0873 190.813 55.2517L419.501 103.924C447.628 109.867 465.367 122.459 465.367 136.254V349.479C465.367 365.75 427.012 376.362 393.932 369.358Z" stroke="#9D84FF" stroke-width="0.5" stroke-miterlimit="10"/>
<path d="M392.014 373.391L160.29 324.082C141.592 320.12 129.606 311.701 129.606 302.505V67.9857C129.606 56.0298 157.733 48.1772 182.183 53.3415L416.465 103.217C444.432 109.159 462.331 121.681 462.331 135.476V353.865C462.171 369.783 424.456 380.324 392.014 373.391Z" stroke="#9D84FF" stroke-width="0.5" stroke-miterlimit="10"/>
<path d="M389.937 377.423L151.819 326.77C132.962 322.738 120.976 314.319 120.976 305.122V66.0756C120.976 54.1198 149.103 46.2671 173.554 51.4315L413.429 102.438C441.395 108.381 459.134 120.903 459.134 134.557V358.11C459.134 373.886 422.058 384.215 389.937 377.423Z" stroke="#9D84FF" stroke-width="0.5" stroke-miterlimit="10"/>
<path d="M388.019 381.456L143.349 329.458C124.492 325.426 112.346 316.937 112.346 307.669V64.2363C112.346 52.2804 140.473 44.4277 164.924 49.5921L410.392 101.802C438.199 107.744 455.938 120.195 455.938 133.849V362.567C455.938 377.989 419.501 388.177 388.019 381.456Z" stroke="#9D84FF" stroke-width="0.5" stroke-miterlimit="10"/>
<path d="M386.101 385.488L135.039 332.076C116.022 328.044 103.876 319.483 103.876 310.145V62.3262C103.876 50.3703 132.003 42.5176 156.454 47.682L407.516 101.094C435.323 106.966 452.902 119.417 452.902 133.071V366.953C452.902 382.093 417.104 392.068 386.101 385.488Z" stroke="#9D84FF" stroke-width="0.5" stroke-miterlimit="10"/>
<path d="M384.183 389.591L126.569 334.764C107.392 330.661 95.2466 322.101 95.2466 312.763V60.416C95.2466 48.4602 123.373 40.6075 147.824 45.7719L404.479 100.387C432.126 106.259 449.705 118.639 449.705 132.293V371.339C449.705 386.196 414.547 396.029 384.183 389.591Z" stroke="#9D84FF" stroke-width="0.5" stroke-miterlimit="10"/>
<path d="M382.265 393.624L118.099 337.382C98.9221 333.279 86.6167 324.648 86.6167 315.239V58.5059C86.6167 46.5501 114.743 38.6974 139.194 43.8618L401.443 99.6794C429.09 105.551 446.669 117.932 446.669 131.444V375.655C446.669 390.299 412.15 399.92 382.265 393.624Z" stroke="#9D84FF" stroke-width="0.5" stroke-miterlimit="10"/>
<path d="M380.348 397.656L109.789 340.07C90.4523 335.967 78.147 327.265 78.147 317.786V56.5958C78.147 44.64 106.274 36.7873 130.724 41.9517L398.566 98.9012C426.054 104.773 443.633 117.083 443.633 130.595V379.97C443.473 394.402 409.593 403.882 380.348 397.656Z" stroke="#9D84FF" stroke-width="0.5" stroke-miterlimit="10"/>
<path d="M378.43 401.689L101.319 342.758C81.8225 338.585 69.5171 329.883 69.5171 320.332V54.6857C69.5171 42.7299 97.6437 34.8772 122.095 40.0416L395.53 98.1938C423.017 104.066 440.436 116.304 440.436 129.817V384.356C440.436 398.505 407.036 407.773 378.43 401.689Z" stroke="#9D84FF" stroke-width="0.5" stroke-miterlimit="10"/>
<path d="M376.512 405.721L92.8492 345.376C73.3524 341.202 60.8872 332.43 60.8872 322.879V52.7756C60.8872 40.8197 89.0138 32.9671 113.465 38.1314L392.493 97.4863C419.821 103.287 437.24 115.597 437.24 129.038V388.743C437.24 402.608 404.639 411.735 376.512 405.721Z" stroke="#9D84FF" stroke-width="0.5" stroke-miterlimit="10"/>
<path d="M374.595 409.754L84.5393 348.064C64.8827 343.89 52.4175 335.047 52.4175 325.426V50.9362C52.4175 38.9804 80.5441 31.1277 104.995 36.2921L389.617 96.8496C416.944 102.651 434.364 114.89 434.364 128.26V393.129C434.204 406.712 402.082 415.625 374.595 409.754Z" stroke="#9D84FF" stroke-width="0.5" stroke-miterlimit="10"/>
<path d="M372.677 413.786L76.0692 350.753C56.2528 346.579 43.7876 337.665 43.7876 327.973V49.0261C43.7876 37.0703 71.9142 29.2176 96.3651 34.382L386.58 96.1421C413.748 101.943 431.167 114.111 431.167 127.482V397.515C431.007 410.815 399.685 419.587 372.677 413.786Z" stroke="#9D84FF" stroke-width="0.5" stroke-miterlimit="10"/>
<path d="M370.6 417.819L67.5997 353.37C47.7832 349.196 35.1582 340.282 35.1582 330.52V47.116C35.1582 35.1602 63.2848 27.3075 87.7357 32.4719L383.544 95.4347C410.712 101.236 427.972 113.333 427.972 126.704V401.901C427.972 414.918 397.128 423.478 370.6 417.819Z" stroke="#9D84FF" stroke-width="0.5" stroke-miterlimit="10"/>
<path d="M368.682 421.851L59.2894 356.058C39.3131 351.814 26.5283 342.829 26.5283 333.066V45.2059C26.5283 33.2501 54.6549 25.3974 79.1059 30.5618L380.508 94.6565C407.516 100.387 424.775 112.555 424.775 125.855V406.216C424.775 419.021 394.731 427.44 368.682 421.851Z" stroke="#9D84FF" stroke-width="0.5" stroke-miterlimit="10"/>
<path d="M366.764 425.954L50.8193 358.747C30.6832 354.502 17.8984 345.447 17.8984 335.613V43.2958C17.8984 31.3399 46.025 23.4873 70.476 28.6516L377.471 93.9491C404.479 99.6794 421.579 111.777 421.579 125.077V410.603C421.739 423.125 392.174 431.331 366.764 425.954Z" stroke="#9D84FF" stroke-width="0.5" stroke-miterlimit="10"/>
<path d="M364.846 429.987L42.5094 361.364C22.2135 357.12 9.42871 348.064 9.42871 338.089V41.3857C9.42871 29.4298 37.5553 21.5772 62.0062 26.7415L374.595 93.2416C401.603 98.972 418.702 110.999 418.702 124.228V414.989C418.543 427.228 389.777 435.293 364.846 429.987Z" stroke="#9D84FF" stroke-width="0.5" stroke-miterlimit="10"/>
<path d="M362.929 434.019L34.0393 364.053C13.7434 359.737 0.798828 350.611 0.798828 340.636V39.4756C0.798828 27.5197 28.9254 19.667 53.3764 24.8314L371.558 92.5342C398.406 98.2645 415.506 110.291 415.506 123.45V419.375C415.506 431.331 387.22 439.184 362.929 434.019Z" stroke="#9D84FF" stroke-width="0.5" stroke-miterlimit="10"/>
</svg>
