<svg width="41" height="42" viewBox="0 0 41 42" fill="none" xmlns="http://www.w3.org/2000/svg">
<path d="M18.333 3.15964C20.4852 0.422795 24.793 1.04201 26.0871 4.27423L34.9083 26.3064C36.2024 29.5386 33.5123 32.9597 30.066 32.4643L6.57499 29.0876C3.12875 28.5922 1.51111 24.552 3.66323 21.8151L18.333 3.15964Z" stroke="#DED6FF" stroke-width="0.35"/>
<path d="M9.65696 29.4808C6.62671 29.4808 4.7328 26.2005 6.24792 23.5762L16.633 5.58879C18.1481 2.96452 21.9359 2.96452 23.451 5.58879L33.8361 23.5762C35.3512 26.2005 33.4573 29.4808 30.427 29.4808L9.65696 29.4808Z" stroke="#DED6FF" stroke-width="0.35"/>
<path d="M30.1947 25.0403C32.5295 24.4147 33.3115 21.4962 31.6023 19.787L19.7607 7.94536C18.0515 6.23618 15.133 7.01818 14.5074 9.35297L10.173 25.529C9.54742 27.8638 11.6839 30.0002 14.0187 29.3746L30.1947 25.0403Z" stroke="#DED6FF" stroke-width="0.35"/>
<path d="M28.9127 21.8539C30.5395 20.9147 30.5395 18.5665 28.9127 17.6272L17.4709 11.0213C15.844 10.0821 13.8104 11.2561 13.8104 13.1346L13.8104 26.3465C13.8104 28.225 15.844 29.3991 17.4708 28.4599L28.9127 21.8539Z" stroke="#DED6FF" stroke-width="0.35"/>
<path d="M27.4886 19.7684C28.5296 18.7727 28.0628 17.0642 26.6223 16.695L16.3484 14.0619C14.8982 13.6902 13.6027 14.9588 13.9817 16.3116L16.7346 26.1388C17.1165 27.502 18.9116 27.9725 19.9676 26.9624L27.4886 19.7684Z" stroke="#DED6FF" stroke-width="0.35"/>
</svg>
