<svg width="403" height="521" viewBox="0 0 403 521" fill="none" xmlns="http://www.w3.org/2000/svg">
<path d="M-78.3744 -7.92475C81.5874 470.513 -425.093 -148.346 -335.332 49.5084C-340.824 37.3765 264.592 425.341 333.856 396.172C576.076 294.341 103.157 400.302 56.1329 187.864C-12.9964 -123.694 -158.623 -247.853 -78.3744 -7.92475Z" stroke="#9D84FF" stroke-width="0.5" stroke-miterlimit="10"/>
<path d="M64.7076 187.606C110.66 399.528 568.306 301.053 326.756 399.399C256.287 428.051 -340.288 38.6674 -334.929 52.6062C-422.412 -145.248 73.6837 455.413 -75.2925 -11.9254C-149.781 -245.788 -2.68 -121.242 64.7076 187.606Z" stroke="#9D84FF" stroke-width="0.5" stroke-miterlimit="10"/>
<path d="M73.2801 187.219C118.027 398.625 560.668 307.506 319.654 402.497C248.113 430.632 -339.754 39.6998 -334.529 55.5746C-419.735 -142.15 65.6438 440.183 -72.3468 -16.0555C-141.074 -243.723 7.63414 -118.661 73.2801 187.219Z" stroke="#9D84FF" stroke-width="0.5" stroke-miterlimit="10"/>
<path d="M81.8551 186.832C125.932 397.721 552.899 313.83 312.688 405.465C239.941 433.343 -339.083 40.8616 -333.992 58.6724C-417.055 -138.923 57.6062 425.083 -69.1308 -20.1853C-132.365 -241.787 18.6205 -116.337 81.8551 186.832Z" stroke="#9D84FF" stroke-width="0.5" stroke-miterlimit="10"/>
<path d="M90.5623 186.445C133.567 396.818 545.261 320.154 305.72 408.562C231.634 435.924 -338.548 42.0229 -333.591 61.6405C-414.51 -135.826 49.4331 409.724 -66.1842 -24.3156C-123.658 -239.851 29.0695 -113.756 90.5623 186.445Z" stroke="#9D84FF" stroke-width="0.5" stroke-miterlimit="10"/>
<path d="M99.1389 186.187C141.206 396.043 537.493 326.478 298.756 411.789C223.464 438.634 -338.01 43.1845 -333.187 64.609C-411.828 -132.729 41.2632 394.366 -63.1005 -28.4456C-114.947 -237.915 39.5216 -111.304 99.1389 186.187Z" stroke="#9D84FF" stroke-width="0.5" stroke-miterlimit="10"/>
<path d="M107.713 185.799C148.708 395.269 529.589 332.803 291.655 414.887C215.158 441.216 -337.341 44.3462 -332.786 67.7066C-409.283 -129.502 33.0904 379.007 -60.1537 -32.5755C-106.24 -236.108 50.1048 -108.723 107.713 185.799Z" stroke="#9D84FF" stroke-width="0.5" stroke-miterlimit="10"/>
<path d="M116.42 185.412C156.343 394.365 521.683 338.868 284.688 417.855C206.984 443.797 -336.806 45.3784 -332.251 70.6748C-406.605 -126.405 24.9171 363.519 -57.0734 -36.7058C-97.5328 -234.302 60.5535 -106.271 116.42 185.412Z" stroke="#9D84FF" stroke-width="0.5" stroke-miterlimit="10"/>
<path d="M124.994 185.025C163.98 393.591 513.779 345.063 277.587 420.952C198.544 446.378 -336.27 46.4108 -331.849 73.6432C-403.925 -123.307 16.611 347.903 -53.9919 -40.8359C-88.9585 -232.624 71.0034 -103.819 124.994 185.025Z" stroke="#9D84FF" stroke-width="0.5" stroke-miterlimit="10"/>
<path d="M133.567 184.767C171.481 392.688 505.874 351.129 270.62 424.179C190.371 448.959 -335.601 47.7015 -331.313 76.7407C-401.38 -120.21 8.30407 332.157 -51.0453 -44.8368C-80.251 -230.946 81.4525 -101.237 133.567 184.767Z" stroke="#9D84FF" stroke-width="0.5" stroke-miterlimit="10"/>
<path d="M142.277 184.379C179.253 391.913 497.971 357.066 263.655 427.277C182.066 451.54 -335.064 48.734 -330.911 79.7092C-398.7 -117.112 -0.00110993 316.411 -47.9629 -48.9669C-71.6758 -229.397 91.9033 -98.7853 142.277 184.379Z" stroke="#9D84FF" stroke-width="0.5" stroke-miterlimit="10"/>
<path d="M150.851 183.993C186.755 391.01 489.933 363.003 256.554 430.245C173.76 454.122 -334.394 49.8959 -330.508 82.8071C-396.02 -113.885 -8.30714 300.408 -44.8813 -53.0965C-63.1014 -227.977 102.219 -96.2036 150.851 183.993Z" stroke="#9D84FF" stroke-width="0.5" stroke-miterlimit="10"/>
<path d="M159.424 183.605C194.257 390.107 481.894 368.94 249.587 433.343C165.453 456.703 -333.858 51.0575 -329.973 85.7756C-393.342 -110.788 -16.614 284.275 -41.9346 -57.2265C-54.5279 -226.558 112.668 -93.7514 159.424 183.605Z" stroke="#9D84FF" stroke-width="0.5" stroke-miterlimit="10"/>
<path d="M168.132 183.347C201.893 389.461 473.989 374.877 242.62 436.569C157.147 459.284 -333.323 52.2187 -329.571 88.7436C-390.796 -107.691 -24.7865 268.012 -38.8535 -61.3569C-45.82 -225.396 123.118 -91.1705 168.132 183.347Z" stroke="#9D84FF" stroke-width="0.5" stroke-miterlimit="10"/>
<path d="M176.708 182.96C209.397 388.557 465.952 380.556 235.521 439.667C148.842 461.736 -332.651 53.2512 -329.168 91.8411C-388.116 -104.464 -32.9574 251.492 -35.7708 -65.487C-37.2444 -224.235 133.435 -88.5893 176.708 182.96Z" stroke="#9D84FF" stroke-width="0.5" stroke-miterlimit="10"/>
<path d="M185.282 182.573C216.9 387.654 457.78 386.364 228.555 442.635C140.536 464.318 -332.115 54.4131 -328.632 94.8099C-385.436 -101.366 -41.1294 234.843 -32.8232 -69.6167C-28.5361 -223.202 143.885 -86.1367 185.282 182.573Z" stroke="#9D84FF" stroke-width="0.5" stroke-miterlimit="10"/>
<path d="M193.855 182.186C224.401 386.88 449.741 392.043 221.453 445.733C132.228 466.77 -331.581 55.5747 -328.231 97.7783C-382.892 -98.2687 -49.0349 217.936 -29.743 -73.7467C-19.9631 -222.428 154.2 -83.5555 193.855 182.186Z" stroke="#9D84FF" stroke-width="0.5" stroke-miterlimit="10"/>
<path d="M202.563 181.798C232.036 385.976 441.702 397.592 214.486 448.83C123.921 469.222 -330.912 56.736 -327.696 100.876C-380.213 -95.1714 -56.806 200.9 -26.6625 -77.7479C-11.1218 -221.782 164.649 -81.1036 202.563 181.798Z" stroke="#9D84FF" stroke-width="0.5" stroke-miterlimit="10"/>
<path d="M211.139 181.541C239.541 385.331 433.531 403.4 207.521 452.057C115.483 471.804 -330.374 57.7689 -327.293 103.844C-377.532 -92.0735 -64.3066 183.477 -23.7133 -82.0066C-2.41184 -221.266 174.966 -78.5218 211.139 181.541Z" stroke="#9D84FF" stroke-width="0.5" stroke-miterlimit="10"/>
<path d="M219.712 181.153C247.042 384.428 425.358 408.95 200.42 455.025C107.176 474.256 -329.839 58.9301 -326.892 106.942C-374.987 -88.8473 -71.5422 166.053 -20.633 -86.0079C6.56318 -221.008 185.281 -75.941 219.712 181.153Z" stroke="#9D84FF" stroke-width="0.5" stroke-miterlimit="10"/>
<path d="M228.42 180.766C254.545 383.524 417.32 414.371 193.454 458.123C98.8697 476.579 -329.169 60.0919 -326.356 109.91C-372.308 -85.7496 -33.494 154.824 -17.5514 -90.1377C39.1185 -213.135 195.597 -73.3595 228.42 180.766Z" stroke="#9D84FF" stroke-width="0.5" stroke-miterlimit="10"/>
<path d="M236.994 180.379C262.047 382.75 409.147 419.92 186.487 461.22C90.5634 479.031 -328.633 61.1242 -325.954 112.879C-369.628 -82.6523 -39.2549 139.078 -14.6042 -94.268C49.0322 -211.328 205.913 -70.9075 236.994 180.379Z" stroke="#9D84FF" stroke-width="0.5" stroke-miterlimit="10"/>
<path d="M245.569 180.121C269.416 381.976 400.976 425.47 179.387 464.318C82.1236 481.483 -328.097 62.2859 -325.551 115.976C-367.083 -79.4255 -45.0153 123.333 -11.5224 -98.3978C58.9465 -209.65 216.229 -68.3261 245.569 180.121Z" stroke="#9D84FF" stroke-width="0.5" stroke-miterlimit="10"/>
<path d="M254.276 179.733C277.051 381.201 392.937 430.761 172.42 467.415C73.8166 483.806 -327.428 63.4471 -325.016 118.944C-364.404 -76.3284 -50.7769 107.458 -8.44189 -102.528C68.7257 -207.844 226.544 -65.7452 254.276 179.733Z" stroke="#9D84FF" stroke-width="0.5" stroke-miterlimit="10"/>
<path d="M262.85 179.346C284.42 380.298 384.764 436.182 165.453 470.513C65.3764 486.129 -326.892 64.6089 -324.614 122.042C-361.725 -73.2306 -56.5376 91.7122 -5.49451 -106.658C78.6395 -206.166 236.726 -63.2928 262.85 179.346Z" stroke="#9D84FF" stroke-width="0.5" stroke-miterlimit="10"/>
<path d="M271.425 178.959C291.923 379.523 376.459 441.474 158.353 473.611C57.0709 488.582 -326.355 65.7707 -324.212 125.011C-359.178 -70.0038 -62.2977 75.9667 -2.41244 -110.659C88.5542 -204.359 247.042 -60.7112 271.425 178.959Z" stroke="#9D84FF" stroke-width="0.5" stroke-miterlimit="10"/>
<path d="M280.132 178.701C299.424 378.749 368.419 446.894 151.385 476.708C48.7633 490.905 -325.687 66.8031 -323.677 127.979C-356.5 -66.9065 -68.0597 60.0918 0.667601 -114.918C98.4667 -202.681 257.223 -58.1301 280.132 178.701Z" stroke="#9D84FF" stroke-width="0.5" stroke-miterlimit="10"/>
<path d="M288.707 178.314C306.793 377.975 360.247 452.186 144.419 479.805C40.3237 493.099 -325.15 67.9646 -323.275 131.077C-353.82 -63.809 -73.82 44.4751 3.61549 -118.919C108.381 -200.874 267.539 -55.5489 288.707 178.314Z" stroke="#9D84FF" stroke-width="0.5" stroke-miterlimit="10"/>
<path d="M297.281 177.926C314.161 377.071 352.075 457.348 137.319 482.903C31.8832 495.422 -324.615 69.1261 -322.873 134.045C-351.275 -60.7115 -79.581 28.6003 6.69656 -123.049C118.161 -199.196 277.721 -52.9677 297.281 177.926Z" stroke="#9D84FF" stroke-width="0.5" stroke-miterlimit="10"/>
<path d="M305.989 177.539C321.664 376.297 344.037 462.511 130.353 486C23.5776 497.745 -323.944 70.2877 -322.337 137.013C-348.595 -57.4849 -85.3412 12.8546 9.77852 -127.179C128.075 -197.389 287.903 -50.5155 305.989 177.539Z" stroke="#9D84FF" stroke-width="0.5" stroke-miterlimit="10"/>
<path d="M314.564 177.281C329.033 375.522 335.732 467.802 123.387 489.098C15.2721 499.939 -323.408 71.3202 -321.934 140.111C-345.915 -54.3873 -91.1012 -2.89112 12.7266 -131.309C137.99 -195.712 298.086 -47.9342 314.564 177.281Z" stroke="#9D84FF" stroke-width="0.5" stroke-miterlimit="10"/>
<path d="M323.138 176.894C336.401 374.619 327.693 472.965 116.286 492.195C6.83157 502.133 -322.872 72.4815 -321.532 143.079C-343.37 -51.2901 -96.8623 -18.7662 15.8076 -135.439C147.903 -193.905 308.267 -45.3532 323.138 176.894Z" stroke="#9D84FF" stroke-width="0.5" stroke-miterlimit="10"/>
<path d="M331.712 176.507C343.635 373.845 319.386 477.999 109.185 495.293C-1.60914 504.328 -322.337 73.6435 -321.131 146.177C-340.691 -48.0632 -102.624 -34.5115 18.8885 -139.569C157.817 -192.227 318.449 -42.7716 331.712 176.507Z" stroke="#9D84FF" stroke-width="0.5" stroke-miterlimit="10"/>
<path d="M340.42 176.12C351.138 372.941 311.482 483.161 102.353 498.39C-9.78147 506.521 -321.667 74.8049 -320.595 149.145C-338.011 -44.9658 -122.05 -71.2947 21.8358 -143.57C158.085 -212.103 328.63 -40.3195 340.42 176.12Z" stroke="#9D84FF" stroke-width="0.5" stroke-miterlimit="10"/>
<path d="M348.994 175.732C358.372 372.167 303.31 488.194 95.2525 501.359C-18.2213 508.715 -320.997 75.8373 -320.059 152.114C-335.466 -41.8683 -124.461 -85.2336 24.9175 -147.7C170.277 -208.489 338.679 -37.7383 348.994 175.732Z" stroke="#9D84FF" stroke-width="0.5" stroke-miterlimit="10"/>
<path d="M357.568 175.474C365.74 371.392 295.137 493.357 88.1515 504.586C-26.5281 510.781 -320.461 76.999 -319.658 155.211C-332.787 -38.7707 -127.275 -98.7851 27.9983 -151.83C182.065 -204.488 348.86 -35.1569 357.568 175.474Z" stroke="#9D84FF" stroke-width="0.5" stroke-miterlimit="10"/>
<path d="M366.277 175.087C373.109 370.618 287.1 498.261 81.3195 507.683C-34.8337 512.975 -319.791 78.1605 -319.121 158.18C-330.107 -35.5442 -130.623 -112.079 30.9463 -155.96C193.722 -200.229 358.908 -32.5757 366.277 175.087Z" stroke="#9D84FF" stroke-width="0.5" stroke-miterlimit="10"/>
<path d="M374.852 174.7C380.345 369.714 278.929 503.295 74.2203 510.78C-43.2726 515.04 -319.254 79.3221 -318.718 161.277C-327.56 -32.4467 -134.507 -125.114 34.0289 -160.09C204.976 -195.583 369.091 -30.1235 374.852 174.7Z" stroke="#9D84FF" stroke-width="0.5" stroke-miterlimit="10"/>
<path d="M383.426 174.313C387.579 368.94 270.89 508.199 67.1197 513.749C-51.579 517.105 -318.718 80.3546 -318.316 164.246C-324.881 -29.3492 -138.794 -138.02 37.11 -164.22C215.828 -190.807 379.139 -27.5422 383.426 174.313Z" stroke="#9D84FF" stroke-width="0.5" stroke-miterlimit="10"/>
<path d="M392.134 174.054C394.947 368.166 262.851 513.362 60.2864 516.975C-59.752 519.17 -318.049 81.5161 -317.781 167.343C-322.202 -26.1227 -143.618 -150.927 40.0567 -168.35C226.411 -186.032 389.186 -24.9611 392.134 174.054Z" stroke="#9D84FF" stroke-width="0.5" stroke-miterlimit="10"/>
<path d="M400.707 173.667C401.913 367.391 254.812 518.266 53.1851 520.073C-68.193 521.235 -317.514 82.6778 -317.38 170.312C-319.657 -23.025 -148.844 -163.704 43.1372 -172.48C236.726 -181.256 398.965 -22.5087 400.707 173.667Z" stroke="#9D84FF" stroke-width="0.5" stroke-miterlimit="10"/>
</svg>
