<svg width="17" height="17" viewBox="0 0 17 17" fill="none" xmlns="http://www.w3.org/2000/svg">
<path fill-rule="evenodd" clip-rule="evenodd" d="M8.43662 0.913086C6.53744 0.914071 4.70053 1.58672 3.25435 2.81077C1.80818 4.03481 0.847044 5.73043 0.542805 7.59442C0.238566 9.45841 0.61106 11.3692 1.59369 12.9852C2.57632 14.6012 4.105 15.8169 5.90639 16.4151C6.30381 16.4888 6.45351 16.2425 6.45351 16.0331C6.45351 15.8237 6.44556 15.2164 6.44291 14.5526C4.21737 15.0333 3.7471 13.6134 3.7471 13.6134C3.38412 12.6914 2.85953 12.449 2.85953 12.449C2.13359 11.9564 2.91385 11.9656 2.91385 11.9656C3.71796 12.0222 4.14055 12.7862 4.14055 12.7862C4.85325 14.002 6.01237 13.6503 6.46808 13.4448C6.53961 12.9298 6.7476 12.5794 6.97677 12.3805C5.199 12.1803 3.33113 11.498 3.33113 8.45003C3.32012 7.65956 3.61512 6.89512 4.15512 6.31487C4.07298 6.11466 3.79876 5.30591 4.23327 4.20737C4.23327 4.20737 4.90491 3.99399 6.43364 5.02271C7.74489 4.66617 9.12835 4.66617 10.4396 5.02271C11.967 3.99399 12.6373 4.20737 12.6373 4.20737C13.0731 5.30327 12.7989 6.11203 12.7168 6.31487C13.2585 6.89521 13.5541 7.66099 13.5421 8.45267C13.5421 11.5072 11.6703 12.1803 9.88984 12.3766C10.176 12.6242 10.4317 13.1076 10.4317 13.8505C10.4317 14.9148 10.4224 15.771 10.4224 16.0331C10.4224 16.2452 10.5668 16.4928 10.9721 16.4151C12.7737 15.8169 14.3026 14.6009 15.2852 12.9846C16.2678 11.3684 16.6401 9.45728 16.3355 7.59312C16.0309 5.72895 15.0693 4.03332 13.6227 2.80949C12.176 1.58566 10.3387 0.913447 8.43926 0.913086H8.43662Z" fill="#EFEBFF"/>
</svg>
