<svg width="464" height="673" viewBox="0 0 464 673" fill="none" xmlns="http://www.w3.org/2000/svg">
<path d="M808.271 281.448C755.513 459.183 617.551 565.563 496.676 607.563C375.801 649.562 272.418 627.379 288.887 548.085C305.355 468.791 350.351 410 423.207 351.529C496.063 293.058 596.914 235.106 724.689 157.689C1040.63 -50.411 870.707 -284.002 568.06 -209.08C416.704 -171.669 273.847 -93.7127 203.331 -10.9866C132.816 71.7394 134.71 159.335 273.26 216.221C411.81 273.108 571.823 200.474 684.247 158C796.534 115.726 861.165 103.515 808.271 281.448Z" stroke="#9D84FF" stroke-width="0.5" stroke-miterlimit="10"/>
<path d="M270.002 219.412C131.861 161.53 130.852 72.4409 202.043 -10.0882C272.622 -91.9195 414.393 -168.68 564.461 -205.192C863.788 -278.613 1032.17 -47.7027 721.846 158.293C596.306 235.008 497.417 292.657 425.848 350.627C354.278 408.597 309.893 467.088 293.698 545.586C290.183 562.797 292.223 577.408 299.008 589.023C322.921 631.116 405.264 637.847 497.764 605.969C552.072 587.323 609.61 555.443 661.116 509.461C721.648 455.201 773.397 381.177 800.611 286.143C807.671 261.762 812.349 241.067 815.122 223.559C832.448 114.731 771.938 128.224 676.312 163.889C565.178 205.066 406.455 276.404 270.002 219.412Z" stroke="#9D84FF" stroke-width="0.5" stroke-miterlimit="10"/>
<path d="M267.218 222.503C129.013 163.726 129.296 72.9425 201.026 -9.19035C271.805 -90.3262 412.217 -165.491 561.133 -201.305C856.664 -272.329 1023.64 -45.0935 719.004 158.898C595.969 234.91 498.637 292.057 428.219 349.725C357.8 407.394 314.431 465.385 298.51 543.087C294.927 560.199 297.103 574.611 303.685 586.326C327.193 628.221 407.98 635.055 498.853 604.375C551.942 586.329 608.258 555.447 658.476 510.363C717.177 457.401 767.231 384.476 793.088 290.639C799.875 266.656 804.147 246.161 806.784 228.853C823.022 121.619 763.461 134.512 668.65 169.379C558.737 209.559 401.303 279.601 267.218 222.503Z" stroke="#9D84FF" stroke-width="0.5" stroke-miterlimit="10"/>
<path d="M264.433 225.593C126.503 165.622 127.941 73.3439 200.144 -8.49199C270.987 -88.7332 410.109 -162.602 557.94 -197.617C849.879 -266.742 1015.31 -42.5846 716.297 159.303C595.496 234.612 500.06 291.357 430.995 348.624C361.931 405.891 319.104 463.483 303.523 540.487C300.077 557.4 302.186 571.713 308.497 583.428C331.6 625.126 410.763 632.362 499.873 602.682C551.81 585.335 607.041 555.251 655.767 511.166C712.908 459.501 761.064 387.774 785.564 295.134C792.012 271.451 796.012 251.354 798.445 234.146C813.595 128.506 754.847 140.999 660.986 174.869C552.295 214.051 396.421 282.796 264.433 225.593Z" stroke="#9D84FF" stroke-width="0.5" stroke-miterlimit="10"/>
<path d="M261.784 228.484C124.061 167.617 126.384 73.8456 199.465 -7.89335C270.576 -87.3398 408.272 -159.713 554.951 -194.029C843.298 -261.255 1007.18 -40.1755 713.794 159.608C595.227 234.216 501.686 290.557 433.772 347.522C365.994 404.289 324.048 461.58 308.538 537.888C305.091 554.801 307.133 569.015 313.581 580.531C336.075 622.13 413.816 629.669 501.368 600.888C552.152 584.24 606.095 555.055 653.533 511.869C709.046 461.401 754.83 390.974 778.31 299.629C784.216 276.345 788.08 256.448 790.31 239.339C804.168 135.393 746.369 147.287 653.73 180.16C545.92 218.643 391.473 285.893 261.784 228.484Z" stroke="#9D84FF" stroke-width="0.5" stroke-miterlimit="10"/>
<path d="M259 231.574C121.416 169.713 124.827 74.3469 198.447 -6.99575C269.555 -85.6467 406.029 -156.625 551.622 -190.142C836.378 -255.469 998.923 -37.5673 711.154 160.113C594.823 234.018 502.973 290.056 436.549 346.421C369.922 402.886 328.722 459.677 313.689 535.09C310.378 551.803 312.352 565.917 318.53 577.434C340.686 618.936 416.939 626.678 502.796 598.995C552.224 583.146 604.946 554.959 650.892 512.771C704.574 463.601 748.73 394.371 770.854 304.223C776.42 281.239 779.945 261.641 782.039 244.731C794.809 142.379 737.756 153.774 646.134 185.749C539.479 223.135 386.524 288.989 259 231.574Z" stroke="#9D84FF" stroke-width="0.5" stroke-miterlimit="10"/>
<path d="M256.147 234.565C118.702 171.709 123.269 74.8484 197.565 -6.29727C268.737 -84.0535 404.123 -153.835 548.496 -186.355C829.457 -249.682 990.458 -34.859 708.311 160.717C594.214 233.92 504.259 289.555 438.986 345.618C373.917 401.582 333.259 457.974 318.363 532.79C315.188 549.304 316.892 563.419 323.069 574.936C344.821 616.239 419.652 624.284 503.747 597.6C552.362 582.152 603.796 554.863 648.453 513.573C700.508 465.601 742.563 397.67 763.396 308.818C768.691 286.232 771.809 266.834 773.767 250.124C785.449 149.366 729.142 160.261 638.538 191.338C533.036 227.628 381.778 291.985 256.147 234.565Z" stroke="#9D84FF" stroke-width="0.5" stroke-miterlimit="10"/>
<path d="M253.363 237.655C116.058 173.804 121.712 75.3499 196.548 -5.39954C267.987 -82.3611 401.881 -150.747 545.168 -182.468C822.741 -243.996 982.199 -32.2507 705.673 161.222C594.08 233.721 505.75 288.954 441.831 344.616C377.912 400.278 338.068 456.271 323.445 530.289C320.204 546.705 322.111 560.72 327.95 572.138C349.297 613.244 422.64 621.491 504.769 595.907C552.232 581.157 602.377 554.767 645.813 514.475C696.037 467.8 736.464 401.068 755.941 313.413C760.896 291.126 763.674 272.027 765.496 255.516C775.887 156.452 720.596 166.848 631.214 196.927C526.595 232.12 376.898 295.18 253.363 237.655Z" stroke="#9D84FF" stroke-width="0.5" stroke-miterlimit="10"/>
<path d="M250.511 240.646C113.344 175.801 119.951 75.9516 195.462 -4.60086C266.899 -80.7669 399.57 -147.757 541.772 -178.68C815.753 -238.308 973.871 -29.7414 702.966 161.627C593.607 233.425 507.172 288.254 444.337 343.516C381.705 398.677 342.741 454.369 328.122 527.592C325.016 543.808 326.652 557.824 332.695 569.142C353.501 610.249 425.422 618.799 505.857 594.313C552.1 580.164 601.024 554.771 643.172 515.378C691.768 469.901 730.094 404.466 748.484 318.008C753.099 296.02 755.539 277.221 757.225 260.909C766.527 163.439 712.186 173.235 623.617 202.517C520.153 236.613 371.949 298.277 250.511 240.646Z" stroke="#9D84FF" stroke-width="0.5" stroke-miterlimit="10"/>
<path d="M247.726 243.736C110.631 177.797 118.597 76.353 194.647 -3.8032C266.148 -79.0745 397.529 -144.769 538.646 -174.893C808.969 -232.721 965.61 -27.1332 700.326 162.132C593.202 233.227 508.662 287.654 447.181 342.513C385.7 397.373 347.481 452.565 333.406 524.992C330.3 541.208 332.006 554.925 337.845 566.344C358.246 607.253 428.746 616.105 507.418 592.618C552.509 579.168 600.349 554.574 641.005 516.179C687.77 472 724.401 407.664 741.297 322.602C745.641 301.013 747.741 282.512 749.02 266.4C757.235 170.524 703.639 179.822 616.089 208.205C513.711 241.105 367.203 301.273 247.726 243.736Z" stroke="#9D84FF" stroke-width="0.5" stroke-miterlimit="10"/>
<path d="M244.941 246.826C107.986 179.892 116.836 76.9546 193.765 -3.10466C265.263 -77.5805 395.421 -141.879 535.453 -171.205C802.184 -227.134 957.282 -24.6241 697.619 162.537C592.73 232.93 509.882 287.054 449.755 341.512C389.628 395.97 352.155 450.663 338.217 522.493C335.247 538.51 336.953 552.227 342.454 563.547C362.247 604.358 431.326 613.512 508.236 591.025C552.311 578.075 598.725 554.579 638.093 517.082C683.23 474.101 717.827 411.163 733.57 327.197C737.574 305.907 739.335 287.706 740.479 271.794C747.402 177.611 694.755 186.31 608.426 213.696C507.269 245.597 362.254 304.369 244.941 246.826Z" stroke="#9D84FF" stroke-width="0.5" stroke-miterlimit="10"/>
<path d="M242.09 249.817C105.477 181.789 115.279 77.4561 192.884 -2.40616C264.446 -75.9873 393.518 -139.09 532.261 -167.517C795.401 -221.547 949.158 -22.2151 694.913 162.942C592.461 232.533 511.305 286.354 452.465 340.311C393.625 394.268 356.829 448.761 343.098 519.695C340.061 535.613 341.699 549.23 347.2 560.55C366.655 601.264 434.245 610.621 509.461 589.232C552.383 576.981 597.509 554.383 635.589 517.785C678.962 476.201 711.797 414.262 725.979 331.593C729.645 310.603 731.066 292.701 732.006 276.888C737.841 184.3 685.94 192.499 600.629 218.987C500.828 250.09 357.509 307.365 242.09 249.817Z" stroke="#9D84FF" stroke-width="0.5" stroke-miterlimit="10"/>
<path d="M239.305 252.907C102.764 183.785 113.721 77.9575 191.866 -1.50856C263.425 -74.2942 391.274 -136.001 528.932 -163.63C788.413 -215.86 940.694 -19.5069 692.34 163.546C592.19 232.534 512.862 285.852 455.172 339.508C397.483 393.164 361.636 447.057 348.246 517.294C345.345 533.013 346.916 546.531 352.35 557.752C371.197 598.367 437.095 608.027 510.548 587.637C552.318 576.086 596.292 554.188 632.947 518.687C674.693 478.3 705.427 417.66 718.522 336.188C721.848 315.497 722.93 297.894 723.735 282.281C728.481 191.286 677.326 198.986 593.032 224.577C494.452 254.681 352.696 310.262 239.305 252.907Z" stroke="#9D84FF" stroke-width="0.5" stroke-miterlimit="10"/>
<path d="M236.453 255.899C100.051 185.781 112.097 78.36 190.984 -0.809828C262.607 -72.7008 389.166 -133.111 525.536 -159.842C781.425 -210.172 932.366 -16.9976 689.431 164.051C591.515 232.337 514.082 285.252 457.746 338.507C401.411 391.761 366.377 445.254 353.057 514.795C350.089 530.414 351.863 543.833 357.027 555.054C375.739 595.471 440.216 605.434 511.907 586.043C552.39 574.992 595.143 554.092 630.51 519.49C670.628 480.301 699.531 420.958 711.066 340.783C714.12 320.49 714.795 303.087 715.463 287.673C719.122 198.273 668.712 205.473 585.707 230.165C488.011 259.174 347.951 313.259 236.453 255.899Z" stroke="#9D84FF" stroke-width="0.5" stroke-miterlimit="10"/>
<path d="M233.669 258.989C97.5417 187.677 110.337 78.9615 189.967 0.087852C261.587 -71.0076 386.923 -130.023 522.208 -155.954C774.438 -204.485 923.903 -14.2894 686.724 164.457C591.043 232.04 515.505 284.552 460.456 337.306C405.475 390.159 370.984 443.253 357.937 511.997C355.172 527.516 356.609 540.836 361.705 551.959C380.08 592.277 443.068 602.443 513.064 584.15C552.666 573.798 593.927 553.896 628.005 520.193C666.293 482.301 693.297 424.157 703.745 345.178C706.46 325.185 706.864 308.181 707.329 292.867C709.966 205.159 660.439 211.661 578.248 235.556C481.569 263.667 343.206 316.255 233.669 258.989Z" stroke="#9D84FF" stroke-width="0.5" stroke-miterlimit="10"/>
<path d="M230.817 261.98C94.8287 189.673 108.779 79.4627 189.017 0.686841C260.634 -69.6132 384.748 -127.233 518.948 -152.366C767.587 -198.998 915.575 -11.7805 683.881 165.061C590.638 231.842 516.521 284.052 462.894 336.503C409.199 388.855 375.521 441.549 362.815 509.597C359.983 525.017 361.623 538.237 366.449 549.36C384.418 589.481 445.986 599.948 514.016 582.756C552.465 573.103 592.641 553.999 625.295 521.393C661.955 484.7 687.128 427.853 696.22 350.071C698.392 330.477 698.66 313.672 698.988 298.557C700.538 212.444 651.823 218.546 570.583 241.443C475.127 268.159 338.46 319.251 230.817 261.98Z" stroke="#9D84FF" stroke-width="0.5" stroke-miterlimit="10"/>
<path d="M228.033 265.07C92.1164 191.67 107.019 80.0642 188 1.58459C259.681 -67.8207 382.505 -124.144 515.619 -148.479C760.6 -193.31 907.248 -9.2714 681.175 165.466C590.166 231.545 517.944 283.352 465.604 335.303C413.06 387.353 380.195 439.647 367.763 506.899C365.067 522.119 366.436 535.34 371.398 546.264C388.759 586.287 449.108 596.957 515.377 580.763C552.81 571.61 591.561 553.604 622.927 521.897C657.62 486.701 680.895 431.053 688.629 354.468C690.529 335.272 690.39 318.667 690.583 303.751C691.044 219.232 643.076 224.835 562.854 246.834C468.686 272.651 333.715 322.247 228.033 265.07Z" stroke="#9D84FF" stroke-width="0.5" stroke-miterlimit="10"/>
<path d="M225.249 268.16C89.6745 193.665 105.462 80.566 187.186 2.38254C258.864 -66.2273 380.465 -121.155 512.494 -144.691C753.816 -187.723 898.988 -6.66303 678.536 165.971C589.828 231.446 519.435 282.751 468.245 334.4C417.056 386.05 385.003 437.944 372.642 504.499C369.878 519.62 371.383 532.642 376.142 543.665C393.166 583.59 452.026 594.463 516.397 579.468C552.677 571.014 590.14 553.907 620.218 523.098C653.419 488.9 674.863 434.55 681.307 359.261C682.868 340.364 682.39 324.059 682.447 309.342C681.887 226.516 634.597 231.52 555.596 252.522C462.041 277.244 328.903 325.144 225.249 268.16Z" stroke="#9D84FF" stroke-width="0.5" stroke-miterlimit="10"/>
<path d="M222.396 271.151C87.0971 195.462 103.701 81.1674 186.303 3.08093C257.978 -64.7334 378.356 -118.266 509.301 -141.004C746.964 -182.235 890.659 -4.15399 675.829 166.376C589.356 231.149 520.857 282.051 471.021 333.299C421.186 384.546 389.676 436.041 377.588 501.8C374.961 516.722 376.466 529.744 380.887 540.669C397.505 580.396 454.945 591.571 517.553 577.575C552.817 569.622 589.059 553.512 617.645 523.702C649.286 490.801 668.561 437.65 673.716 363.657C674.937 345.06 674.12 329.053 673.973 314.437C672.325 233.205 625.781 237.71 547.798 257.814C455.598 281.736 324.157 328.14 222.396 271.151Z" stroke="#9D84FF" stroke-width="0.5" stroke-miterlimit="10"/>
<path d="M219.612 274.241C84.4517 197.558 102.143 81.6689 185.285 3.97874C257.024 -62.9409 376.113 -115.177 505.972 -137.116C739.976 -176.548 882.399 -1.54567 673.19 166.881C588.951 230.952 522.347 281.451 473.595 332.297C424.843 383.144 394.147 434.239 382.399 499.301C379.705 514.124 381.143 527.046 385.564 537.972C401.641 577.7 457.795 588.978 518.641 575.981C552.753 568.727 587.707 553.516 615.004 524.604C644.814 493.001 662.395 440.948 666.259 368.252C667.208 350.053 666.052 334.346 665.702 319.83C663.033 240.291 617.167 244.197 540.202 263.403C449.157 286.229 319.615 331.037 219.612 274.241Z" stroke="#9D84FF" stroke-width="0.5" stroke-miterlimit="10"/>
<path d="M216.76 277.232C81.8756 199.355 100.316 82.171 184.404 4.67704C256.14 -61.4471 374.209 -112.388 502.78 -133.429C733.126 -171.06 874.139 1.06253 670.484 167.286C588.682 230.555 523.77 280.751 476.373 331.196C428.975 381.641 398.888 432.436 387.618 496.602C384.923 511.425 386.43 524.048 390.784 534.874C406.253 574.505 460.782 586.185 519.933 574.287C553.096 567.632 586.761 553.319 612.567 525.406C640.749 495 656.296 444.346 658.736 372.747C659.346 354.848 657.85 339.44 657.161 325.223C653.404 247.278 608.284 250.685 532.607 268.993C442.716 290.721 314.803 333.934 216.76 277.232Z" stroke="#9D84FF" stroke-width="0.5" stroke-miterlimit="10"/>
<path d="M213.975 280.322C79.3655 201.251 98.7582 82.6726 183.318 5.47561C254.848 -59.7531 371.831 -109.498 499.384 -129.641C726.138 -165.373 865.607 3.67166 667.64 167.891C588.073 230.457 524.853 280.35 478.81 330.394C432.766 380.437 403.425 430.733 392.225 494.202C389.666 508.826 390.97 521.55 395.256 532.277C410.524 571.61 463.835 583.492 521.021 572.693C553.031 566.738 585.408 553.323 609.925 526.308C636.48 497.101 650.128 447.644 651.279 377.342C651.549 359.742 649.917 344.533 648.889 330.615C644.044 254.264 599.67 257.172 525.011 274.582C436.273 295.214 310.26 336.83 213.975 280.322Z" stroke="#9D84FF" stroke-width="0.5" stroke-miterlimit="10"/>
<path d="M211.124 283.313C76.6534 203.247 96.9982 83.2742 182.504 6.27342C254.031 -58.1598 369.791 -106.509 496.259 -125.853C719.287 -159.885 857.551 6.18006 665.205 168.295C587.94 230.259 526.547 279.649 481.79 329.192C436.83 378.835 408.37 428.83 397.443 491.503C395.021 505.928 396.257 518.552 400.273 529.28C414.999 568.614 466.822 580.7 522.042 571C553.036 565.544 584.192 553.128 607.218 527.112C631.942 499.201 643.759 451.043 643.755 381.838C643.754 364.636 641.716 349.627 640.551 335.908C634.888 261.151 591.193 263.46 517.348 280.073C429.832 299.706 305.651 339.627 211.124 283.313Z" stroke="#9D84FF" stroke-width="0.5" stroke-miterlimit="10"/>
<path d="M208.339 286.403C74.1435 205.143 95.17 83.7763 181.419 7.07178C252.942 -56.566 367.48 -103.52 492.863 -122.066C712.165 -154.397 849.02 8.78887 662.295 168.8C587.264 230.061 527.767 279.049 484.161 328.291C440.555 377.532 412.84 427.028 402.254 489.004C399.764 503.329 401.136 515.754 404.949 526.582C419.27 565.719 469.875 578.007 523.401 569.405C553.446 564.549 583.11 553.131 604.847 528.013C627.943 501.3 637.862 454.34 636.366 386.531C636.025 369.629 633.715 355.019 632.347 341.4C625.663 268.335 582.646 270.046 510.023 285.661C423.39 304.198 300.905 342.623 208.339 286.403Z" stroke="#9D84FF" stroke-width="0.5" stroke-miterlimit="10"/>
<path d="M205.555 289.494C71.6344 207.04 93.4097 84.3781 180.605 7.86976C251.922 -54.8725 365.372 -100.63 489.805 -118.179C705.448 -148.71 840.827 11.4967 659.723 169.404C587.13 229.863 529.324 278.548 487.072 327.388C444.82 376.228 417.648 425.324 407.336 486.504C404.982 500.63 406.151 513.155 410.033 523.684C424.016 562.723 473.132 575.213 524.692 567.712C553.788 563.454 582.164 552.935 602.477 528.915C624.013 503.499 631.83 457.838 629.18 391.126C628.5 374.522 625.85 360.211 624.346 346.792C616.575 275.321 574.303 276.533 502.698 291.25C416.948 308.691 296.296 345.42 205.555 289.494Z" stroke="#9D84FF" stroke-width="0.5" stroke-miterlimit="10"/>
<path d="M202.702 292.485C69.0565 208.837 91.784 84.7803 179.722 8.56824C251.036 -53.3786 363.264 -97.7404 486.611 -114.491C698.528 -143.321 832.701 13.9058 657.218 169.71C586.86 229.466 530.949 277.748 489.781 326.187C448.883 374.626 422.524 423.322 412.282 483.806C409.928 497.932 411.166 510.158 414.844 520.787C427.949 559.729 475.847 572.422 525.645 565.919C553.588 562.361 580.676 552.74 599.701 529.618C619.405 505.501 625.392 461.137 621.384 395.622C620.433 379.417 617.376 365.306 615.669 351.987C607.08 282.109 565.284 282.822 494.696 296.642C410.505 313.184 291.753 348.316 202.702 292.485Z" stroke="#9D84FF" stroke-width="0.5" stroke-miterlimit="10"/>
<path d="M199.918 295.575C66.5476 210.733 90.0239 85.3817 178.637 9.36654C249.745 -51.6848 360.886 -94.8504 483.216 -110.703C691.474 -137.733 824.171 16.5146 654.309 170.215C586.184 229.269 531.966 277.248 492.355 325.185C452.541 373.223 426.995 421.519 417.093 481.306C414.876 495.233 415.843 507.46 419.454 517.99C432.424 556.733 479.104 569.628 526.937 564.225C553.931 561.266 579.731 552.544 597.263 530.42C615.544 507.4 619.429 464.335 614.132 400.116C612.84 384.211 609.512 370.498 607.602 357.279C597.991 289.095 556.874 289.209 487.508 302.031C404.064 317.676 287.144 351.113 199.918 295.575Z" stroke="#9D84FF" stroke-width="0.5" stroke-miterlimit="10"/>
<path d="M197.065 298.566C63.9704 212.53 88.1957 85.8839 177.755 10.065C248.86 -50.1909 358.778 -91.9611 480.023 -107.015C684.758 -132.445 816.046 18.9237 651.602 170.62C585.779 229.071 533.389 276.548 494.928 324.184C456.468 371.82 431.735 419.716 422.107 478.707C419.822 492.534 420.993 504.662 424.334 515.193C436.966 553.837 482.225 567.034 528.092 562.73C554.07 560.271 578.445 552.647 594.689 531.422C611.342 509.6 613.397 467.832 606.539 404.91C604.908 389.304 601.24 375.891 599.194 362.871C588.699 296.18 548.124 295.896 479.843 307.919C397.419 322.268 282.535 353.91 197.065 298.566Z" stroke="#9D84FF" stroke-width="0.5" stroke-miterlimit="10"/>
<path d="M194.281 301.656C61.6648 214.326 86.4357 86.4856 176.738 10.9629C247.636 -48.3975 356.468 -88.9715 476.695 -103.128C677.704 -126.857 807.583 21.6321 648.76 171.225C585.172 228.974 534.609 275.948 497.503 323.182C460.396 370.417 436.206 417.914 426.852 476.109C424.703 489.737 425.603 501.865 429.08 512.196C441.307 550.643 485.348 564.043 529.25 560.838C554.278 558.978 577.365 552.252 592.118 532.026C607.143 511.401 607.299 470.832 599.151 409.207C597.249 393.999 593.175 380.785 590.992 367.965C579.476 302.968 539.58 302.085 472.316 313.21C390.977 326.761 277.993 356.807 194.281 301.656Z" stroke="#9D84FF" stroke-width="0.5" stroke-miterlimit="10"/>
<path d="M191.497 304.746C59.1556 216.222 84.6753 87.0872 175.923 11.7608C246.819 -46.8042 354.428 -85.9826 473.366 -99.2407C670.65 -121.269 799.119 24.3405 646.121 171.729C584.97 228.676 536.099 275.347 500.144 322.28C464.188 369.213 441.014 416.21 431.73 473.709C429.514 487.238 430.55 499.167 433.824 509.598C445.51 548.046 488.333 561.648 530.202 559.443C554.282 558.183 576.08 552.355 589.341 533.128C602.738 513.701 600.861 474.529 591.492 413.901C589.25 398.993 584.836 386.079 582.518 373.457C570.184 310.053 530.763 308.672 464.721 318.799C384.536 331.253 273.384 359.604 191.497 304.746Z" stroke="#9D84FF" stroke-width="0.5" stroke-miterlimit="10"/>
<path d="M188.645 307.737C56.5784 218.019 82.8471 87.5894 174.838 12.5592C245.527 -45.1102 352.253 -83.1925 469.97 -95.4529C663.527 -115.78 790.791 26.8495 643.211 172.234C584.294 228.479 537.318 274.747 502.65 321.179C467.981 367.612 445.417 414.309 436.677 471.01C434.664 484.439 435.633 496.269 438.569 506.602C449.85 544.852 491.455 558.657 531.426 557.65C554.624 557.088 575.066 552.06 586.836 533.83C598.606 515.601 594.83 477.629 583.967 418.397C581.386 403.787 576.701 391.272 574.179 378.75C561.028 316.94 522.015 314.961 457.058 324.29C378.093 335.746 268.977 362.301 188.645 307.737Z" stroke="#9D84FF" stroke-width="0.5" stroke-miterlimit="10"/>
<path d="M185.861 310.827C54.2726 219.815 81.0868 88.1908 174.024 13.3568C244.709 -43.5171 350.146 -80.3032 466.845 -91.6658C656.879 -110.392 782.531 29.4578 640.572 172.739C583.889 228.281 538.605 274.246 505.291 320.277C471.977 366.308 450.225 412.605 441.489 468.511C439.409 481.841 440.31 493.571 443.246 503.904C454.189 542.056 494.576 556.063 532.311 556.156C554.56 556.194 573.714 552.063 583.992 534.833C594.134 517.801 588.324 481.226 576.308 423.092C573.455 408.881 568.363 396.565 565.502 384.343C551.533 324.125 512.995 321.648 449.056 330.079C371.585 340.139 264.368 365.097 185.861 310.827Z" stroke="#9D84FF" stroke-width="0.5" stroke-miterlimit="10"/>
<path d="M183.009 313.818C51.8993 221.512 79.2592 88.6931 173.075 13.9561C243.487 -42.1216 347.971 -77.513 463.585 -88.0771C649.894 -105.103 774.136 31.8675 638.069 173.044C583.688 227.983 540.232 273.446 508.271 319.076C476.311 364.705 455.305 410.503 446.707 465.811C444.762 478.942 445.597 490.573 448.465 500.807C458.8 538.861 498.036 553.169 533.942 554.163C555.242 554.799 573.108 551.568 581.961 535.435C590.476 519.601 582.835 484.324 569.258 427.486C566.066 413.574 560.634 401.558 557.57 389.436C542.58 330.912 504.924 327.736 442.003 335.269C365.143 344.631 260.03 367.894 183.009 313.818Z" stroke="#9D84FF" stroke-width="0.5" stroke-miterlimit="10"/>
<path d="M180.224 316.908C49.3897 223.408 77.4313 89.1952 172.057 14.8537C242.466 -40.4286 345.66 -74.5237 460.256 -84.1901C643.042 -99.6149 765.876 34.4757 635.226 173.649C583.283 227.786 541.518 272.945 510.642 318.174C479.765 363.403 459.64 408.9 451.314 463.412C449.303 476.443 450.137 488.075 452.938 498.209C462.869 536.065 497.825 555.258 534.894 552.768C552.799 556.795 571.822 551.671 579.184 536.536C586.274 521.8 576.532 487.822 561.665 432.28C558.134 418.668 552.633 406.95 549.163 395.028C533.355 338.097 496.175 334.422 434.271 341.058C358.701 349.124 255.42 370.691 180.224 316.908Z" stroke="#9D84FF" stroke-width="0.5" stroke-miterlimit="10"/>
<path d="M177.372 319.899C47.0154 225.106 75.6025 89.6977 171.174 15.5523C241.31 -38.9337 343.484 -71.7334 457.063 -80.502C636.055 -94.3254 757.547 36.9849 632.518 174.054C582.81 227.489 542.94 272.245 513.418 317.073C483.895 361.9 464.516 406.898 456.464 460.614C454.588 473.446 455.355 484.978 457.886 495.113C467.479 532.871 500.811 552.466 536.05 550.876C552.803 555.602 570.944 551.176 576.611 537.14C582.006 523.503 570.297 491.021 554.073 436.676C550.066 423.562 544.363 411.945 540.756 400.222C524.131 344.884 487.426 340.711 426.607 346.548C352.259 353.616 251.013 373.388 177.372 319.899Z" stroke="#9D84FF" stroke-width="0.5" stroke-miterlimit="10"/>
<path d="M174.587 322.989C44.7093 226.902 73.7748 90.1999 170.156 16.4501C240.086 -37.1405 341.174 -68.7439 453.734 -76.6149C629.204 -88.8375 749.083 39.6932 629.676 174.659C582.202 227.391 544.227 271.745 515.856 316.27C487.687 360.696 468.85 405.294 461.139 458.314C459.264 471.146 460.099 482.379 462.427 492.615C471.411 530.275 503.389 550.271 537.002 549.481C552.603 554.906 569.592 551.18 573.834 538.242C577.805 525.702 564.062 494.618 546.481 441.47C542.135 428.656 536.159 417.436 532.349 405.813C515.109 351.969 478.676 347.397 419.079 352.237C345.817 358.109 246.404 376.185 174.587 322.989Z" stroke="#9D84FF" stroke-width="0.5" stroke-miterlimit="10"/>
<path d="M171.803 326.08C42.4034 228.698 72.0145 90.8014 169.342 17.2478C239.268 -35.5473 339.27 -65.9545 450.609 -72.8277C622.286 -83.4488 741.026 42.2015 627.24 175.063C582 227.093 545.718 271.144 518.836 315.069C491.818 359.193 473.998 403.291 466.357 455.615C464.618 468.247 465.25 479.581 467.646 489.518C476.293 527.079 506.849 547.378 538.497 547.687C552.946 553.812 565.398 551.39 571.6 538.944C570.627 528.307 558.302 497.716 539.431 445.865C534.745 433.35 528.431 422.43 524.485 411.006C506.427 358.754 470.402 353.585 411.89 357.626C339.308 362.502 242.065 378.981 171.803 326.08Z" stroke="#9D84FF" stroke-width="0.5" stroke-miterlimit="10"/>
<path d="M168.951 329.071C40.0304 230.395 70.1199 91.2045 168.257 18.0464C237.91 -33.9525 336.892 -63.0642 447.214 -69.0396C615.3 -78.1592 732.496 44.8107 624.33 175.568C581.596 226.896 546.938 270.544 521.207 314.167C495.476 357.791 478.265 401.589 470.898 453.116C469.091 465.65 469.86 476.784 472.053 486.821C480.294 524.184 509.294 544.984 539.315 546.094C552.611 552.918 563.776 551.395 568.689 539.847C565.885 530.508 551.729 501.215 531.501 450.561C526.543 438.444 519.822 427.724 515.74 416.499C496.865 365.841 461.315 360.173 403.821 363.316C332.867 366.995 237.66 381.678 168.951 329.071Z" stroke="#9D84FF" stroke-width="0.5" stroke-miterlimit="10"/>
<path d="M166.166 332.161C37.8592 231.992 68.3583 91.8058 167.375 18.7447C236.754 -32.458 334.716 -60.2742 444.02 -65.352C608.517 -72.9701 724.371 47.2195 621.623 175.973C581.122 226.598 548.36 269.844 523.983 313.066C499.606 356.288 483.208 399.686 476.115 450.417C474.444 462.751 474.942 473.886 477.068 483.823C484.701 521.09 512.346 542.291 540.539 544.3C552.682 551.823 562.491 551.1 566.184 540.55C561.548 532.509 545.764 504.413 524.112 454.857C518.815 443.039 511.822 432.717 507.537 421.593C488.047 372.428 452.77 366.361 396.293 368.607C326.424 371.487 233.253 384.375 166.166 332.161Z" stroke="#9D84FF" stroke-width="0.5" stroke-miterlimit="10"/>
<path d="M163.314 335.152C35.4857 233.689 66.4632 92.2089 166.493 19.4432C235.666 -30.864 332.745 -57.584 440.827 -61.664C601.531 -67.6806 716.043 49.7286 619.12 176.279C580.853 226.201 549.986 269.044 526.693 311.865C503.466 354.785 487.815 397.685 481.062 447.718C479.324 459.953 480.025 470.988 481.881 480.927C489.176 518.094 515.197 539.698 541.83 542.607C552.821 550.829 561.545 550.904 563.746 541.352C557.483 534.509 539.801 507.612 516.656 459.451C511.087 448.032 503.89 437.811 499.198 426.886C478.891 379.314 444.292 372.649 388.833 373.997C319.982 375.979 228.847 387.072 163.314 335.152Z" stroke="#9D84FF" stroke-width="0.5" stroke-miterlimit="10"/>
<path d="M160.53 338.242C33.3836 235.385 64.4329 92.8112 165.476 20.341C234.578 -29.2699 330.435 -54.5945 437.5 -57.7767C594.613 -62.2917 707.58 52.437 616.278 176.883C580.246 226.104 551.206 268.444 529.334 310.963C507.462 353.482 492.623 395.981 485.941 445.318C484.406 457.453 484.77 468.39 486.761 478.129C493.652 515.099 518.251 537.005 543.122 540.913C553.029 549.933 560.396 550.808 561.173 542.354C553.079 536.808 533.77 511.109 509.267 464.145C503.359 453.025 491.759 444.705 490.995 432.378C487.817 379.687 435.679 379.137 381.306 379.686C313.474 380.373 224.441 389.769 160.53 338.242Z" stroke="#9D84FF" stroke-width="0.5" stroke-miterlimit="10"/>
<path d="M157.678 341.233C31.0099 237.082 62.6048 93.3134 164.594 21.0395C233.423 -27.7753 328.192 -51.9036 434.307 -54.0888C587.83 -57.1024 699.455 54.8461 613.571 177.289C579.774 225.807 552.629 267.744 531.908 309.961C511.322 351.979 497.093 394.179 490.888 442.62C489.286 454.656 489.853 465.492 491.574 475.232C497.923 512.203 521.101 534.412 544.143 539.22C552.897 548.94 558.909 550.613 558.465 543.157C548.743 538.809 527.603 514.407 501.743 468.641C495.496 457.82 483.557 449.799 482.657 437.671C478.594 386.475 426.998 385.525 373.71 385.276C307.032 384.865 220.035 392.466 157.678 341.233Z" stroke="#9D84FF" stroke-width="0.5" stroke-miterlimit="10"/>
<path d="M154.893 344.323C28.8391 238.679 60.7092 93.7164 163.575 21.9372C232.198 -25.9821 326.084 -49.0142 431.045 -50.1024C580.978 -51.6145 691.058 57.6535 610.795 177.992C579.503 225.808 553.779 267.442 534.548 309.059C515.317 350.676 501.901 392.475 495.766 440.22C494.3 452.056 494.8 462.794 496.25 472.534C502.194 509.308 523.815 532.018 545.298 537.725C552.9 548.144 557.623 550.716 555.89 544.158C544.338 541.108 521.299 517.905 494.15 473.435C487.834 462.913 475.352 455.291 474.046 443.363C469.098 393.66 418.045 392.311 365.977 391.064C300.589 389.357 215.628 395.163 154.893 344.323Z" stroke="#9D84FF" stroke-width="0.5" stroke-miterlimit="10"/>
<path d="M152.109 347.413C26.7368 240.375 58.882 94.2185 162.694 22.6355C231.043 -24.4875 324.046 -46.4234 427.853 -46.4147C574.332 -46.6244 682.731 60.1625 608.359 178.397C579.301 225.51 555.473 266.741 537.393 308.057C519.313 349.372 506.642 390.672 500.848 437.72C499.315 449.457 499.747 460.095 501.198 469.836C506.737 506.411 526.8 529.623 546.454 536.23C553.107 547.248 556.339 550.819 553.317 545.16C539.867 543.308 511.135 523.303 486.761 478.129C480.919 467.506 467.352 460.683 465.842 448.854C460.009 400.646 409.499 398.897 358.45 396.753C294.081 393.751 211.223 397.86 152.109 347.413Z" stroke="#9D84FF" stroke-width="0.5" stroke-miterlimit="10"/>
<path d="M149.257 350.404C24.7699 241.872 56.9869 94.6218 161.812 23.3342C230.091 -23.0926 321.871 -43.633 424.66 -42.7265C567.549 -41.4348 674.607 62.5718 605.653 178.802C578.829 225.213 556.896 266.042 540.103 306.856C523.309 347.67 511.519 388.67 505.728 434.922C504.331 446.46 504.763 457.098 506.079 466.64C511.077 503.218 529.923 526.631 547.747 534.138C553.247 545.856 555.124 550.226 550.881 545.564C535.803 544.911 505.308 526.302 479.306 482.326C473.191 472.101 459.218 465.478 457.573 453.849C450.652 407.235 401.023 404.788 350.855 401.945C287.639 398.243 206.884 400.656 149.257 350.404Z" stroke="#9D84FF" stroke-width="0.5" stroke-miterlimit="10"/>
<path d="M146.472 353.494C22.5994 243.469 54.9555 95.2239 160.794 24.2318C228.799 -21.3988 319.696 -40.8429 421.331 -38.8395C560.563 -36.1455 666.143 65.2799 602.81 179.407C578.221 225.115 558.183 265.541 542.54 306.054C527.1 346.466 516.056 386.966 510.606 432.522C509.209 444.06 509.507 454.5 510.822 464.042C515.416 500.421 532.704 524.336 548.766 532.843C553.114 545.26 553.905 550.428 548.171 546.765C531.262 547.409 503.137 527.899 471.78 487.219C464.513 477.694 451.285 470.969 449.232 459.54C441.426 414.419 392.341 411.573 343.394 407.732C281.13 402.636 202.681 403.253 146.472 353.494Z" stroke="#9D84FF" stroke-width="0.5" stroke-miterlimit="10"/>
<path d="M143.62 356.485C20.4291 245.066 53.0603 95.627 159.912 24.9303C227.644 -19.904 317.725 -38.1526 417.935 -35.0515C553.781 -30.9559 657.815 67.789 600.103 179.812C577.952 224.718 559.605 264.841 545.317 304.952C531.028 345.064 520.797 385.164 515.62 429.923C514.359 441.262 514.59 451.602 515.635 461.145C519.688 497.526 535.554 521.743 549.99 531.05C553.186 544.166 552.689 550.233 545.666 547.468C526.926 549.41 497.174 531.098 464.256 491.715C456.65 482.488 443.149 476.162 440.826 464.734C431.932 421.207 383.592 417.862 335.664 413.124C274.688 407.129 198.275 405.95 143.62 356.485Z" stroke="#9D84FF" stroke-width="0.5" stroke-miterlimit="10"/>
<path d="M140.836 359.575C18.5299 246.663 51.1657 96.03 158.895 25.8281C226.353 -18.21 315.55 -35.3624 414.607 -31.1643C546.795 -25.6665 649.352 70.4973 597.261 180.417C577.411 224.72 560.689 264.44 547.891 303.951C534.956 343.66 525.471 383.261 520.364 427.324C519.036 438.564 519.267 448.904 520.245 458.348C523.892 494.531 538.134 519.151 550.808 529.456C552.851 543.272 550.999 550.138 542.755 548.371C522.388 551.51 490.804 534.496 456.462 496.211C448.584 487.383 434.947 481.256 432.218 470.028C422.439 427.995 374.778 424.051 327.731 418.614C268.179 411.522 193.869 408.647 140.836 359.575Z" stroke="#9D84FF" stroke-width="0.5" stroke-miterlimit="10"/>
<path d="M137.984 362.566C16.495 248.06 49.0667 96.5332 157.945 26.4275C225.129 -16.8144 313.444 -32.8707 411.346 -27.5755C540.081 -20.7755 640.956 72.9072 594.487 180.723C576.871 224.324 562.044 263.641 550.397 302.85C538.749 342.059 529.941 381.459 525.311 424.626C524.119 435.666 524.282 445.907 525.193 455.252C528.435 491.237 541.323 516.258 552.235 527.563C553.126 542.078 549.985 549.843 540.453 548.974C518.255 553.411 485.043 537.595 449.344 500.506C441.127 491.978 427.151 486.15 424.285 475.121C413.418 434.682 366.503 430.239 320.744 423.904C261.737 416.014 189.665 411.244 137.984 362.566Z" stroke="#9D84FF" stroke-width="0.5" stroke-miterlimit="10"/>
<path d="M135.2 365.657C14.7992 249.557 47.1721 96.936 157.131 27.2251C224.245 -15.3206 311.473 -30.1806 408.221 -23.7885C533.502 -15.6862 632.696 75.5155 592.051 181.127C576.67 224.026 563.738 262.94 553.445 301.748C543.151 340.555 535.089 379.456 530.596 422.026C529.337 432.967 529.636 443.009 530.344 452.453C533.045 488.44 544.512 513.764 553.798 525.869C553.603 541.182 549.107 549.746 538.354 549.875C514.528 555.51 479.418 540.892 442.226 505.199C433.669 496.97 419.624 491.441 416.352 480.612C404.397 441.767 358.16 436.726 313.487 429.592C255.295 420.507 185.463 413.841 135.2 365.657Z" stroke="#9D84FF" stroke-width="0.5" stroke-miterlimit="10"/>
<path d="M132.415 368.747C12.832 251.054 45.344 97.4385 156.113 28.123C222.953 -13.6264 309.298 -27.3902 404.892 -19.9011C526.719 -10.4965 624.435 78.1239 589.208 181.732C576.264 223.828 565.025 262.439 555.815 300.846C546.672 339.352 539.423 377.853 535.137 419.527C534.08 430.369 534.109 440.411 534.682 449.657C536.979 485.446 551.358 509.469 554.344 524.276C557.466 538.884 547.691 548.457 535.172 550.779C510.065 555.323 472.981 544.191 434.228 509.796C425.399 501.965 411.218 496.635 407.54 486.006C394.429 448.656 349.209 443.115 305.35 435.183C248.989 424.8 181.057 416.538 132.415 368.747Z" stroke="#9D84FF" stroke-width="0.5" stroke-miterlimit="10"/>
<path d="M129.563 371.738C10.8651 252.551 43.1785 97.8422 155.028 28.9214C221.595 -12.0318 307.056 -24.6993 401.497 -16.1133C519.869 -5.40648 615.904 80.7328 586.298 182.237C575.589 223.631 566.244 261.839 558.388 299.845C550.6 337.949 544.096 375.951 539.948 417.028C538.824 427.77 538.989 437.613 539.359 446.959C541.318 482.65 553.869 507.175 555.5 522.781C557.063 538.288 546.203 548.66 532.598 551.78C505.321 557.922 466.949 547.688 426.636 514.59C417.468 507.058 403.218 502.027 399.133 491.598C384.934 455.842 340.459 449.801 297.821 440.871C242.548 429.292 176.854 419.135 129.563 371.738Z" stroke="#9D84FF" stroke-width="0.5" stroke-miterlimit="10"/>
<path d="M126.778 374.828C9.16856 254.047 41.2833 98.2451 154.213 29.719C220.439 -10.5372 305.287 -22.1093 398.371 -12.3263C513.29 -0.317165 607.847 83.2411 583.862 182.641C575.454 223.432 567.734 261.239 561.233 298.842C554.731 336.446 549.04 374.048 545.233 414.428C544.245 424.971 544.14 434.815 544.442 444.061C545.793 479.655 556.651 504.88 556.791 521.087C557.066 537.493 545.054 548.564 530.16 552.582C500.983 560.32 460.985 550.886 419.382 519.084C409.875 511.852 399.148 505.22 391.065 496.89C363.785 468.628 331.981 456.089 290.429 446.361C236.038 433.686 172.651 421.732 126.778 374.828Z" stroke="#9D84FF" stroke-width="0.5" stroke-miterlimit="10"/>
<path d="M123.927 377.819C7.60828 255.344 39.3211 98.5489 153.331 30.4176C219.487 -9.1424 303.452 -19.6182 395.178 -8.63818C506.643 4.67318 599.519 85.7502 581.223 183.146C575.049 223.235 569.157 260.539 564.01 297.741C558.658 335.043 553.781 372.245 550.247 411.829C549.193 422.272 549.29 432.016 549.525 441.164C550.471 476.559 559.569 502.386 558.286 519.293C557.002 536.598 543.972 548.567 527.926 553.285C496.782 562.52 455.292 554.084 412.129 523.579C402.35 516.746 391.283 510.413 382.726 502.184C355.036 475.315 323.504 462.377 282.766 451.851C229.8 438.078 168.312 424.528 123.927 377.819Z" stroke="#9D84FF" stroke-width="0.5" stroke-miterlimit="10"/>
<path d="M121.142 380.909C5.84466 256.741 37.4261 98.9521 152.45 31.1162C218.332 -7.64756 301.413 -17.0272 391.986 -4.95019C500.2 9.56343 591.192 88.2593 578.516 183.551C574.577 222.938 570.58 259.839 566.583 296.739C562.586 333.64 558.455 370.342 554.991 409.23C554.072 419.475 553.9 429.219 554.068 438.267C554.472 473.664 561.809 500.093 559.104 517.7C556.464 535.804 542.349 548.571 525.015 554.188C492.107 564.82 448.855 557.383 404.402 528.175C394.283 521.64 383.081 515.507 374.185 507.577C346.15 482.2 314.62 468.865 275.103 457.341C223.291 442.471 164.109 427.125 121.142 380.909Z" stroke="#9D84FF" stroke-width="0.5" stroke-miterlimit="10"/>
<path d="M118.291 383.9C4.28463 258.038 35.464 99.2556 151.432 32.0137C216.974 -6.05313 299.442 -14.3372 388.658 -1.06323C493.621 14.6527 582.932 90.8674 575.674 184.156C574.173 222.74 571.868 259.338 569.225 295.837C566.514 332.237 563.06 368.739 559.87 406.83C559.154 416.974 558.847 426.521 558.812 435.669C558.811 470.868 564.388 497.898 560.26 516.205C556.197 535.01 540.996 548.575 522.577 554.99C487.974 567.118 443.162 560.581 397.149 532.669C386.894 526.334 375.353 520.5 366.117 512.869C337.671 488.886 306.346 475.052 267.778 462.93C216.85 446.964 159.907 429.722 118.291 383.9Z" stroke="#9D84FF" stroke-width="0.5" stroke-miterlimit="10"/>
<path d="M115.505 386.99C2.72344 259.335 33.5009 99.5594 150.549 32.7122C215.817 -4.55841 297.606 -11.8463 385.464 2.62465C487.109 19.4436 574.603 93.3765 573.17 184.461C573.903 222.343 573.493 258.538 571.934 294.636C570.374 330.735 567.869 366.637 565.02 404.032C564.237 414.077 563.93 423.623 563.76 432.573C563.218 467.773 566.9 495.207 561.619 514.213C556.065 534.016 539.779 548.379 520.072 555.693C483.704 569.218 437.131 563.68 389.557 537.065C379.03 531.129 367.149 525.594 357.711 518.063C328.787 495.374 297.597 481.341 260.047 468.321C210.543 451.257 155.703 432.319 115.505 386.99Z" stroke="#9D84FF" stroke-width="0.5" stroke-miterlimit="10"/>
<path d="M112.721 390.08C1.23095 260.731 31.336 99.9632 149.532 33.61C214.663 -3.06357 295.771 -9.35525 382.136 6.51195C480.531 24.5331 566.14 96.0848 570.328 185.066C573.363 222.345 574.577 258.137 574.575 293.734C574.37 329.431 572.677 364.933 569.831 401.533C569.185 411.378 568.81 420.825 568.64 429.775C567.694 464.778 569.614 492.813 562.775 512.718C555.595 533.321 538.562 548.582 517.566 556.794C479.435 571.716 431.37 567.176 382.236 541.859C371.369 536.221 359.353 530.885 349.575 523.654C320.443 502.258 289.322 487.927 252.79 474.009C204.102 455.749 151.501 434.916 112.721 390.08Z" stroke="#9D84FF" stroke-width="0.5" stroke-miterlimit="10"/>
<path d="M109.87 393.071C-0.12619 261.928 29.3737 100.267 148.447 34.4086C213.304 -1.46876 293.732 -6.76424 378.74 10.2999C473.884 29.5234 557.813 98.594 567.418 185.571C572.687 222.148 575.797 257.537 576.946 292.833C578.094 328.128 576.945 363.231 574.439 399.133C573.725 408.88 573.487 418.128 573.046 427.078C571.695 461.883 571.788 490.42 563.593 511.125C555.057 532.527 536.939 548.586 514.655 557.697C474.76 574.016 424.933 570.476 374.305 546.554C363.1 541.216 350.947 536.08 340.83 529.147C311.49 509.044 280.371 494.316 244.721 479.699C197.796 460.043 147.366 437.612 109.87 393.071Z" stroke="#9D84FF" stroke-width="0.5" stroke-miterlimit="10"/>
<path d="M107.085 396.161C-1.48328 263.125 27.4114 100.571 147.633 35.2061C212.149 0.0257512 292.1 -4.3735 375.615 14.0869C467.508 34.5126 549.552 101.202 564.779 186.075C572.485 221.85 577.287 256.936 579.722 291.731C582.158 326.526 581.889 361.328 579.657 396.434C579.079 405.981 578.637 415.329 578.13 424.18C576.17 458.888 574.705 487.926 564.884 509.431C554.926 531.533 535.79 548.49 512.217 558.499C470.491 576.116 419.037 573.773 367.052 551.049C355.574 546.109 343.218 541.073 332.762 534.44C303.011 515.73 271.961 500.703 237.328 485.188C191.354 464.535 143.163 440.209 107.085 396.161Z" stroke="#9D84FF" stroke-width="0.5" stroke-miterlimit="10"/>
<path d="M104.232 399.152C-2.84104 264.322 25.4485 100.875 146.683 35.8055C211.129 1.32134 290.4 -2.08168 372.422 17.775C461.2 39.2037 541.224 103.711 562.275 186.381C572.216 221.453 578.912 256.136 582.499 290.629C586.085 325.123 586.832 359.425 584.603 393.736C584.026 403.283 583.652 412.332 582.874 421.184C580.577 455.793 577.217 485.235 566.108 507.638C554.59 530.639 534.572 548.295 509.711 559.202C466.222 578.216 413.209 576.773 359.527 555.544C347.711 550.904 335.286 546.166 324.356 539.634C294.329 522.118 263.415 506.891 229.597 490.579C185.115 468.928 138.959 442.806 104.232 399.152Z" stroke="#9D84FF" stroke-width="0.5" stroke-miterlimit="10"/>
<path d="M101.448 402.243C-3.92781 265.518 23.486 101.178 145.665 36.7033C209.77 2.91616 288.564 0.409363 369.093 21.6622C454.62 44.2932 532.963 106.32 559.432 186.985C571.675 221.454 580.199 255.636 585.072 289.628C590.013 323.72 591.302 357.623 589.414 391.236C588.972 400.584 588.329 409.635 587.754 418.386C584.848 452.898 579.864 482.741 567.196 506.044C554.255 529.745 533.22 548.298 507.07 560.104C461.817 580.515 407.042 580.071 352.071 560.139C340.118 555.698 327.354 551.259 316.084 545.026C285.85 528.804 254.734 513.279 222.205 496.069C178.606 473.321 134.756 445.403 101.448 402.243Z" stroke="#9D84FF" stroke-width="0.5" stroke-miterlimit="10"/>
<path d="M98.6638 405.333C-5.01379 266.714 21.5243 101.482 144.851 37.5009C208.818 4.3107 287.203 2.79938 365.765 25.5492C448.245 49.2825 524.5 109.028 556.59 187.59C571.067 221.357 581.283 255.235 587.511 288.826C593.805 322.516 595.908 356.019 594.09 388.936C593.581 398.185 593.141 407.135 592.228 415.788C588.985 450.201 582.173 480.547 568.081 504.55C553.718 528.951 531.868 548.302 504.227 561.107C457.82 582.614 401.349 583.269 344.615 564.734C332.39 560.691 319.626 556.252 307.814 550.419C277.304 535.39 246.325 519.666 214.677 501.757C172.368 477.713 130.825 447.999 98.6638 405.333Z" stroke="#9D84FF" stroke-width="0.5" stroke-miterlimit="10"/>
<path d="M95.8125 408.324C-5.96387 267.711 19.4281 101.587 143.97 38.1996C207.663 5.8056 285.504 5.09124 362.573 29.2373C442.005 54.0728 516.376 111.437 554.154 187.994C571.069 220.959 582.977 254.534 590.559 287.724C597.937 321.013 600.852 354.116 599.579 386.236C599.206 395.286 598.495 404.237 597.582 412.89C593.731 447.205 585.497 477.853 569.914 502.855C554.195 528.055 531.26 548.204 502.331 561.907C453.686 584.913 395.724 586.566 337.496 569.427C324.932 565.684 312.032 561.444 299.881 555.91C269.096 542.075 238.253 526.152 207.419 507.445C166.13 482.106 126.622 450.596 95.8125 408.324Z" stroke="#9D84FF" stroke-width="0.5" stroke-miterlimit="10"/>
<path d="M93.0272 411.414C-6.84791 268.807 17.465 101.891 142.951 39.0972C206.507 7.30022 283.938 7.58136 359.243 33.1244C435.832 58.9622 507.912 114.145 551.311 188.599C570.46 220.861 584.263 254.033 592.928 286.822C601.66 319.71 605.322 352.314 604.119 383.738C603.678 392.688 603.104 401.44 601.921 410.094C597.664 444.211 587.603 475.362 570.461 501.262C553.319 527.162 529.366 548.21 499.148 562.811C448.74 587.213 389.016 589.866 329.498 574.023C316.595 570.579 303.558 566.539 290.865 561.404C259.805 548.763 229.03 532.542 199.282 513.036C159.823 486.399 122.419 453.193 93.0272 411.414Z" stroke="#9D84FF" stroke-width="0.5" stroke-miterlimit="10"/>
<path d="M142.069 39.7958C205.284 8.69578 282.442 9.77312 356.05 36.8124C429.659 63.8517 499.584 116.654 548.604 189.004C597.625 261.354 616.327 339.357 607.003 407.196C597.68 475.035 560.129 532.413 496.914 563.513C433.698 594.613 356.474 593.437 282.932 566.497C209.391 539.557 139.399 486.655 90.3784 414.305C-7.79877 269.805 15.4352 102.096 142.069 39.7958Z" stroke="#9D84FF" stroke-width="0.5" stroke-miterlimit="10"/>
</svg>
