<svg width="502" height="476" viewBox="0 0 502 476" fill="none" xmlns="http://www.w3.org/2000/svg">
<path d="M511.94 63.226C491.194 287.684 24.1333 306.135 57.6776 440.436C85.6986 552.315 554.511 367.914 554.511 232.095C554.511 96.2757 -95.2252 -168.94 61.4497 -168.94C218.125 -168.94 524.334 -72.1261 511.94 63.226Z" stroke="#9D84FF" stroke-width="0.5" stroke-miterlimit="10"/>
<path d="M507.224 67.4302C486.747 290.136 14.9709 299.012 60.5049 439.035C96.7436 550.797 555.856 371.885 550.872 236.883C545.887 102.699 -95.3616 -164.151 61.3132 -164.151C217.988 -164.151 519.617 -67.9218 507.224 67.4302Z" stroke="#9D84FF" stroke-width="0.5" stroke-miterlimit="10"/>
<path d="M502.509 71.6344C482.167 292.472 5.5415 291.538 63.2 437.517C107.387 549.279 557.204 375.622 547.235 241.554C537.266 109.122 -95.4956 -159.48 61.1793 -159.48C217.854 -159.48 514.903 -63.7177 502.509 71.6344Z" stroke="#9D84FF" stroke-width="0.5" stroke-miterlimit="10"/>
<path d="M497.797 75.8386C477.724 294.808 -4.28992 284.063 65.8972 435.999C117.493 547.644 558.554 379.476 543.6 246.226C528.782 115.428 -95.6274 -154.809 61.0474 -154.809C217.722 -154.809 510.326 -59.5134 497.797 75.8386Z" stroke="#9D84FF" stroke-width="0.5" stroke-miterlimit="10"/>
<path d="M493.081 80.1595C473.143 297.143 -14.5292 276.589 68.7254 434.597C127.596 546.242 560.17 383.563 539.962 251.014C520.294 121.968 -95.763 -150.137 60.9118 -150.137C217.587 -150.137 505.61 -55.3092 493.081 80.1595Z" stroke="#9D84FF" stroke-width="0.5" stroke-miterlimit="10"/>
<path d="M488.5 84.3638C468.697 299.596 -25.0377 269.115 71.419 433.079C137.16 544.724 561.651 387.417 536.324 255.802C511.941 128.508 -95.8984 -145.349 60.7764 -145.349C217.451 -145.349 500.894 -51.105 488.5 84.3638Z" stroke="#9D84FF" stroke-width="0.5" stroke-miterlimit="10"/>
<path d="M483.783 88.568C464.25 301.931 -35.9513 261.641 74.1118 431.561C146.454 543.323 563.131 391.387 532.685 260.473C503.452 134.931 -96.1694 -140.678 60.6402 -140.678C217.45 -140.678 496.177 -46.9008 483.783 88.568Z" stroke="#9D84FF" stroke-width="0.5" stroke-miterlimit="10"/>
<path d="M479.07 92.7721C459.671 304.267 -46.9968 254.4 76.9421 430.159C155.751 542.038 564.614 395.358 529.049 265.261C495.101 141.471 -96.3029 -136.007 60.5067 -136.007C217.316 -136.007 491.464 -42.6966 479.07 92.7721Z" stroke="#9D84FF" stroke-width="0.5" stroke-miterlimit="10"/>
<path d="M474.355 96.9763C455.225 306.719 -58.3126 247.16 79.6367 428.641C164.777 540.753 566.366 399.329 525.412 269.933C486.749 148.011 -96.4373 -131.335 60.2375 -131.335C216.912 -131.335 486.749 -38.4924 474.355 96.9763Z" stroke="#9D84FF" stroke-width="0.5" stroke-miterlimit="10"/>
<path d="M469.642 101.181C450.647 309.055 -69.761 240.153 82.3335 427.24C173.671 539.586 567.985 403.299 521.777 274.721C478.534 154.551 -96.5695 -126.664 60.1053 -126.664C216.78 -126.664 482.036 -34.2882 469.642 101.181Z" stroke="#9D84FF" stroke-width="0.5" stroke-miterlimit="10"/>
<path d="M465.057 105.385C446.196 311.391 -81.3519 233.146 85.1572 425.722C182.557 538.418 569.731 407.27 518.135 279.509C470.311 160.974 -96.7095 -121.876 59.9653 -121.876C216.64 -121.876 477.316 -30.084 465.057 105.385Z" stroke="#9D84FF" stroke-width="0.5" stroke-miterlimit="10"/>
<path d="M460.344 109.589C441.753 313.726 -93.2046 226.256 87.8539 424.204C191.316 537.367 571.485 411.241 514.5 284.18C462.095 167.514 -96.8419 -117.204 59.8329 -117.204C216.508 -117.204 472.603 -25.8798 460.344 109.589Z" stroke="#9D84FF" stroke-width="0.5" stroke-miterlimit="10"/>
<path d="M455.629 113.793C437.173 316.062 -105.194 219.599 90.5486 422.802C200.073 536.432 573.236 415.211 510.863 288.968C454.013 173.937 -96.9763 -112.533 59.6986 -112.533C216.373 -112.533 468.023 -21.6756 455.629 113.793Z" stroke="#9D84FF" stroke-width="0.5" stroke-miterlimit="10"/>
<path d="M450.913 117.997C432.726 318.514 -117.185 212.942 93.3765 421.284C208.828 535.498 575.121 419.065 507.224 293.64C445.929 180.476 -97.1121 -107.862 59.5628 -107.862C216.238 -107.862 463.307 -17.4714 450.913 117.997Z" stroke="#9D84FF" stroke-width="0.5" stroke-miterlimit="10"/>
<path d="M446.333 122.202C428.281 320.85 -129.309 206.519 96.0715 419.766C217.316 534.564 577.008 422.919 503.588 298.311C437.846 186.9 -97.3809 -103.19 59.4287 -103.19C216.238 -103.19 458.593 -13.2672 446.333 122.202Z" stroke="#9D84FF" stroke-width="0.5" stroke-miterlimit="10"/>
<path d="M441.616 126.406C423.699 323.186 -141.57 200.096 98.764 418.248C225.936 533.63 578.892 426.773 499.949 303.099C429.896 193.323 -97.5174 -98.4023 59.2921 -98.4023C216.102 -98.4023 453.876 -9.063 441.616 126.406Z" stroke="#9D84FF" stroke-width="0.5" stroke-miterlimit="10"/>
<path d="M436.904 130.61C419.257 325.522 -153.826 193.907 101.596 416.846C234.696 532.929 580.916 430.743 496.314 307.887C421.816 199.746 -97.6491 -93.731 59.0257 -93.731C215.701 -93.731 449.164 -4.85877 436.904 130.61Z" stroke="#9D84FF" stroke-width="0.5" stroke-miterlimit="10"/>
<path d="M432.189 134.814C414.676 327.857 -166.22 187.717 104.29 415.328C243.182 532.228 582.936 434.48 492.676 312.559C413.868 206.169 -97.7842 -89.0597 58.8906 -89.0597C215.565 -89.0597 444.448 -0.537846 432.189 134.814Z" stroke="#9D84FF" stroke-width="0.5" stroke-miterlimit="10"/>
<path d="M427.474 139.018C410.23 330.193 -178.614 181.644 106.984 413.81C251.67 531.411 584.822 438.334 489.039 317.23C405.919 212.475 -97.9188 -84.3883 58.7561 -84.3883C215.431 -84.3883 439.733 3.66637 427.474 139.018Z" stroke="#9D84FF" stroke-width="0.5" stroke-miterlimit="10"/>
<path d="M422.891 143.223C405.782 332.645 -191.011 175.805 109.81 412.409C260.423 530.827 586.975 442.188 485.399 322.018C398.103 218.782 -98.0567 -79.717 58.6181 -79.717C215.293 -79.717 435.015 7.87059 422.891 143.223Z" stroke="#9D84FF" stroke-width="0.5" stroke-miterlimit="10"/>
<path d="M418.178 147.427C401.204 334.981 -203.402 169.849 112.507 410.89C268.913 530.243 588.998 445.808 481.764 326.806C390.157 225.088 -98.1888 -74.9288 58.4861 -74.9288C215.161 -74.9288 430.303 12.0748 418.178 147.427Z" stroke="#9D84FF" stroke-width="0.5" stroke-miterlimit="10"/>
<path d="M413.465 151.748C396.76 337.433 -215.929 164.127 115.203 409.489C277.401 529.659 591.021 449.662 478.128 331.594C382.211 231.394 -98.4565 -70.2575 58.3531 -70.2575C215.163 -70.2575 425.724 16.279 413.465 151.748Z" stroke="#9D84FF" stroke-width="0.5" stroke-miterlimit="10"/>
<path d="M408.748 155.952C392.178 339.769 -228.459 158.404 117.896 407.971C286.022 529.075 593.174 453.283 474.355 336.266C374.395 237.584 -98.5929 -65.5862 58.2167 -65.5862C215.026 -65.5862 421.007 20.4832 408.748 155.952Z" stroke="#9D84FF" stroke-width="0.5" stroke-miterlimit="10"/>
<path d="M404.032 160.156C387.731 342.105 -241.124 152.682 120.589 406.569C294.508 528.608 595.194 456.903 470.716 341.054C366.446 243.89 -98.7287 -60.9148 58.0808 -60.9148C214.89 -60.9148 416.291 24.6874 404.032 160.156Z" stroke="#9D84FF" stroke-width="0.5" stroke-miterlimit="10"/>
<path d="M399.454 164.36C383.288 344.557 -253.515 147.076 123.421 405.051C303.132 528.024 597.352 460.523 467.216 345.725C358.635 250.08 -98.861 -56.2435 57.8139 -56.2435C214.489 -56.2435 411.578 28.8916 399.454 164.36Z" stroke="#9D84FF" stroke-width="0.5" stroke-miterlimit="10"/>
<path d="M394.739 168.565C378.707 346.776 -266.044 141.588 126.115 403.533C311.753 527.557 599.507 464.027 463.444 350.513C350.686 256.269 -98.9959 -51.4554 57.6789 -51.4554C214.354 -51.4554 406.863 33.0958 394.739 168.565Z" stroke="#9D84FF" stroke-width="0.5" stroke-miterlimit="10"/>
</svg>
