<svg width="435" height="383" viewBox="0 0 435 383" fill="none" xmlns="http://www.w3.org/2000/svg">
<path d="M102.885 371.474C102.885 525.603 349.297 558.602 209.503 558.602C69.7097 558.602 -43.7598 433.629 -43.7598 279.5C-43.7598 125.371 69.7097 0.265045 209.503 0.265045C349.297 0.265045 102.885 217.345 102.885 371.474Z" stroke="#9D84FF" stroke-width="0.5" stroke-miterlimit="10"/>
<path d="M-37.8701 283.211C-37.8701 128.949 80.8882 0.265045 209.503 0.265045C338.118 0.265045 116.227 215.092 116.227 369.354C116.227 523.615 338.238 558.602 209.503 558.602C80.768 558.602 -37.8701 437.34 -37.8701 283.211Z" stroke="#9D84FF" stroke-width="0.5" stroke-miterlimit="10"/>
<path d="M-31.98 286.789C-31.98 132.66 92.0672 0.265045 209.503 0.265045C326.939 0.265045 129.45 212.971 129.45 367.101C129.45 521.23 326.939 558.47 209.503 558.47C92.0672 558.47 -31.98 441.051 -31.98 286.789Z" stroke="#9D84FF" stroke-width="0.5" stroke-miterlimit="10"/>
<path d="M-26.0903 290.5C-26.0903 136.371 103.246 0.265045 209.503 0.265045C315.761 0.265045 142.792 210.851 142.792 364.98C142.792 519.109 315.881 558.602 209.503 558.602C103.125 558.602 -26.0903 444.629 -26.0903 290.5Z" stroke="#9D84FF" stroke-width="0.5" stroke-miterlimit="10"/>
<path d="M-20.2002 294.211C-20.2002 140.082 114.425 0.397858 209.503 0.397858C304.582 0.397858 156.014 208.731 156.014 362.992C156.014 517.254 304.582 558.603 209.503 558.603C114.425 558.603 -20.2002 448.34 -20.2002 294.211Z" stroke="#9D84FF" stroke-width="0.5" stroke-miterlimit="10"/>
<path d="M-14.4307 297.921C-14.4307 143.66 125.603 0.265045 209.503 0.265045C293.403 0.265045 169.236 206.477 169.236 360.739C169.236 515.001 293.403 558.602 209.503 558.602C125.603 558.602 -14.4307 452.051 -14.4307 297.921Z" stroke="#9D84FF" stroke-width="0.5" stroke-miterlimit="10"/>
<path d="M-8.54102 301.632C-8.54102 147.37 136.782 0.265045 209.503 0.265045C282.225 0.265045 182.578 204.357 182.578 358.486C182.578 512.615 282.225 558.47 209.503 558.47C136.782 558.47 -8.54102 455.761 -8.54102 301.632Z" stroke="#9D84FF" stroke-width="0.5" stroke-miterlimit="10"/>
<path d="M-2.65088 305.21C-2.65088 151.081 147.961 0.265045 209.503 0.265045C271.046 0.265045 195.801 202.237 195.801 356.498C195.801 510.76 271.046 558.735 209.503 558.735C147.961 558.735 -2.65088 459.472 -2.65088 305.21Z" stroke="#9D84FF" stroke-width="0.5" stroke-miterlimit="10"/>
<path d="M3.23877 308.921C3.23877 154.792 159.139 0.265045 209.503 0.265045C259.867 0.265045 209.143 200.116 209.143 354.245C209.143 508.375 259.867 558.602 209.503 558.602C159.139 558.602 3.23877 463.05 3.23877 308.921Z" stroke="#9D84FF" stroke-width="0.5" stroke-miterlimit="10"/>
<path d="M9.12842 312.632C9.12842 158.503 170.318 0.265045 209.503 0.265045C248.688 0.265045 222.365 197.863 222.365 352.125C222.365 506.387 248.688 558.602 209.503 558.602C170.318 558.602 9.12842 466.761 9.12842 312.632Z" stroke="#9D84FF" stroke-width="0.5" stroke-miterlimit="10"/>
<path d="M14.8984 316.343C14.8984 162.081 181.497 0.265045 209.503 0.265045C237.51 0.265045 235.707 195.743 235.707 349.872C235.707 504.001 237.51 558.47 209.503 558.47C181.497 558.47 14.8984 470.472 14.8984 316.343Z" stroke="#9D84FF" stroke-width="0.5" stroke-miterlimit="10"/>
<path d="M20.7881 319.921C20.7881 165.792 192.675 0.265045 209.503 0.265045C226.331 0.265045 248.929 193.622 248.929 347.752C248.929 501.881 226.331 558.602 209.503 558.602C192.675 558.602 20.7881 474.183 20.7881 319.921Z" stroke="#9D84FF" stroke-width="0.5" stroke-miterlimit="10"/>
<path d="M26.6777 323.632C26.6777 169.502 203.854 0.265045 209.503 0.265045C215.153 0.265045 262.151 191.502 262.151 345.631C262.151 499.76 215.032 558.602 209.503 558.602C203.974 558.602 26.6777 477.761 26.6777 323.632Z" stroke="#9D84FF" stroke-width="0.5" stroke-miterlimit="10"/>
<path d="M32.5679 327.342C32.5679 173.213 215.033 0.265045 209.503 0.265045C203.974 0.265045 275.494 189.249 275.494 343.511C275.494 497.772 203.974 558.602 209.503 558.602C215.033 558.602 32.5679 481.472 32.5679 327.342Z" stroke="#9D84FF" stroke-width="0.5" stroke-miterlimit="10"/>
<path d="M38.3374 331.053C38.3374 176.791 226.211 0.265045 209.503 0.265045C192.795 0.265045 288.716 187.128 288.716 341.258C288.716 495.387 192.675 558.47 209.503 558.47C226.331 558.47 38.3374 485.182 38.3374 331.053Z" stroke="#9D84FF" stroke-width="0.5" stroke-miterlimit="10"/>
<path d="M44.2271 334.631C44.2271 180.502 237.51 0.265045 209.503 0.265045C181.496 0.265045 302.058 185.008 302.058 339.137C302.058 493.267 181.616 558.602 209.503 558.602C237.39 558.602 44.2271 488.893 44.2271 334.631Z" stroke="#9D84FF" stroke-width="0.5" stroke-miterlimit="10"/>
<path d="M50.1172 338.342C50.1172 184.213 248.689 0.265045 209.503 0.265045C170.318 0.265045 315.28 182.888 315.28 337.017C315.28 491.146 170.318 558.602 209.503 558.602C248.689 558.602 50.1172 492.604 50.1172 338.342Z" stroke="#9D84FF" stroke-width="0.5" stroke-miterlimit="10"/>
<path d="M56.0068 342.053C56.0068 187.924 259.867 0.265045 209.503 0.265045C159.139 0.265045 328.622 180.635 328.622 334.896C328.622 489.158 159.139 558.602 209.503 558.602C259.867 558.602 56.0068 496.182 56.0068 342.053Z" stroke="#9D84FF" stroke-width="0.5" stroke-miterlimit="10"/>
<path d="M61.8965 345.764C61.8965 191.635 271.046 0.397858 209.503 0.397858C147.96 0.397858 341.844 178.647 341.844 332.776C341.844 486.905 147.96 558.603 209.503 558.603C271.046 558.603 61.8965 499.893 61.8965 345.764Z" stroke="#9D84FF" stroke-width="0.5" stroke-miterlimit="10"/>
<path d="M67.6665 349.474C67.6665 195.213 282.225 0.265045 209.503 0.265045C136.782 0.265045 355.067 176.394 355.067 330.656C355.067 484.917 136.782 558.602 209.503 558.602C282.225 558.602 67.6665 503.604 67.6665 349.474Z" stroke="#9D84FF" stroke-width="0.5" stroke-miterlimit="10"/>
<path d="M73.5562 353.053C73.5562 198.923 293.403 0.265045 209.503 0.265045C125.603 0.265045 368.409 174.273 368.409 328.403C368.409 482.532 125.603 558.602 209.503 558.602C293.403 558.602 73.5562 507.314 73.5562 353.053Z" stroke="#9D84FF" stroke-width="0.5" stroke-miterlimit="10"/>
<path d="M79.4458 356.763C79.4458 202.634 304.582 0.265045 209.503 0.265045C114.424 0.265045 381.631 172.02 381.631 326.282C381.631 480.544 114.424 558.602 209.503 558.602C304.582 558.602 79.4458 510.893 79.4458 356.763Z" stroke="#9D84FF" stroke-width="0.5" stroke-miterlimit="10"/>
<path d="M85.3359 360.474C85.3359 206.345 315.761 0.397858 209.503 0.397858C103.246 0.397858 394.973 170.033 394.973 324.162C394.973 478.291 103.246 558.603 209.503 558.603C315.761 558.603 85.3359 514.604 85.3359 360.474Z" stroke="#9D84FF" stroke-width="0.5" stroke-miterlimit="10"/>
<path d="M91.2256 364.185C91.2256 210.056 327.059 0.397858 209.503 0.397858C91.9468 0.397858 408.195 167.78 408.195 322.042C408.195 476.303 92.067 558.603 209.503 558.603C326.939 558.603 91.2256 518.314 91.2256 364.185Z" stroke="#9D84FF" stroke-width="0.5" stroke-miterlimit="10"/>
<path d="M96.9951 367.763C96.9951 213.634 338.118 0.265045 209.503 0.265045C80.8882 0.265045 421.417 165.659 421.417 319.921C421.417 474.183 80.8882 558.602 209.503 558.602C338.118 558.602 96.9951 522.025 96.9951 367.763Z" stroke="#9D84FF" stroke-width="0.5" stroke-miterlimit="10"/>
<path d="M102.885 371.474C102.885 525.603 349.297 558.602 209.503 558.602C69.7098 558.602 434.76 471.797 434.76 317.668C434.76 163.539 69.7098 0.265045 209.503 0.265045C349.297 0.265045 102.885 217.345 102.885 371.474Z" stroke="#9D84FF" stroke-width="0.5" stroke-miterlimit="10"/>
</svg>
