<svg width="117" height="49" viewBox="0 0 117 49" fill="none" xmlns="http://www.w3.org/2000/svg">
<path d="M49.3956 22H54.4556C59.4716 22 62.1116 19.36 62.1116 14.3C62.1116 9.24 59.4716 6.6 54.4556 6.6H49.3956V22ZM52.4316 19.514V9.086H54.4556C57.7556 9.086 59.0756 10.582 59.0756 14.3C59.0756 18.018 57.7556 19.514 54.4556 19.514H52.4316ZM69.8584 22.352C72.6084 22.352 74.6764 20.922 75.0064 18.766L72.0144 18.546C71.6844 19.36 70.8044 19.866 69.7264 19.866C68.1644 19.866 67.0424 18.832 67.0424 17.38H75.0064V16.544C75.0064 13.024 72.7844 10.648 69.5064 10.648C66.2284 10.648 63.9844 13.046 63.9844 16.5C63.9844 19.998 66.3384 22.352 69.8584 22.352ZM67.0424 15.224C67.0424 13.926 67.9664 13.134 69.5064 13.134C71.0464 13.134 71.9484 13.904 71.9484 15.224H67.0424ZM83.1501 22.352C86.4501 22.352 88.8921 20.306 88.8921 17.578C88.8921 12.364 80.5541 13.596 80.5541 10.56C80.5541 9.482 81.6101 8.734 82.7761 8.734C84.2061 8.734 85.2401 9.834 85.2401 11.198L88.2761 10.978C88.2761 8.272 85.9441 6.248 82.8421 6.248C79.7621 6.248 77.5181 8.052 77.5181 10.516C77.5181 15.62 85.8561 14.542 85.8561 17.798C85.8561 18.986 84.7121 19.866 83.1501 19.866C81.1261 19.866 79.7181 18.282 79.7181 15.994L76.6601 16.214C76.6601 19.514 79.3001 22.352 83.1501 22.352ZM96.0662 22.352C99.1682 22.352 101.192 20.702 101.5 17.974L98.2882 17.754C98.0022 19.206 97.2982 19.866 96.0662 19.866C94.4162 19.866 93.5802 18.744 93.5802 16.544C93.5802 14.322 94.4602 13.134 96.0662 13.134C97.2982 13.134 97.9802 13.816 98.2882 15.378L101.5 15.158C101.17 12.364 99.1022 10.648 96.0662 10.648C92.5462 10.648 90.3242 12.936 90.3242 16.566C90.3242 20.174 92.5022 22.352 96.0662 22.352ZM103.667 22H106.637V11H103.667V22ZM103.381 9.46H106.901V6.6H103.381V9.46Z" fill="white"/>
<path d="M49.6156 43H54.0156C58.6136 43 61.0116 40.36 61.0116 35.3C61.0116 30.24 58.6136 27.6 54.0156 27.6H49.6156V43ZM51.3316 41.394V29.206H54.0156C57.5796 29.206 59.2956 31.186 59.2956 35.3C59.2956 39.414 57.5796 41.394 54.0156 41.394H51.3316ZM68.5375 43.352C70.8915 43.352 72.7395 41.966 73.1795 39.832L71.4635 39.612C71.1555 40.91 69.9895 41.746 68.4935 41.746C66.4695 41.746 65.0395 40.184 65.0395 37.94H73.2455V37.544C73.2455 33.98 71.2875 31.648 68.3175 31.648C65.3695 31.648 63.3235 34.046 63.3235 37.5C63.3235 40.998 65.4355 43.352 68.5375 43.352ZM65.0395 36.444C65.0395 34.486 66.3155 33.254 68.2955 33.254C70.2755 33.254 71.5295 34.486 71.5295 36.444H65.0395ZM82.7796 35.982V43H84.4296V35.322C84.4296 32.99 83.2196 31.648 81.0636 31.648C79.2816 31.648 77.8296 32.572 77.2136 33.958V32H75.5636V43H77.2136V37.654C77.2136 35.08 78.5776 33.254 80.5136 33.254C81.9436 33.254 82.7796 34.244 82.7796 35.982ZM89.9975 43H92.0655L96.2015 32H94.4855L91.0535 41.13L87.7975 32H86.0815L89.9975 43ZM102.418 43.352C104.772 43.352 106.62 41.966 107.06 39.832L105.344 39.612C105.036 40.91 103.87 41.746 102.374 41.746C100.35 41.746 98.9204 40.184 98.9204 37.94H107.126V37.544C107.126 33.98 105.168 31.648 102.198 31.648C99.2504 31.648 97.2044 34.046 97.2044 37.5C97.2044 40.998 99.3164 43.352 102.418 43.352ZM98.9204 36.444C98.9204 34.486 100.196 33.254 102.176 33.254C104.156 33.254 105.41 34.486 105.41 36.444H98.9204ZM109.444 43H111.094V37.984C111.094 35.102 111.996 33.606 113.756 33.606H115.56V32H113.536C112.304 32 111.446 33.056 111.094 34.904V32H109.444V43Z" fill="white"/>
<path fill-rule="evenodd" clip-rule="evenodd" d="M33.7278 32.8777V33.6394C33.7278 34.9055 33.4379 36.1039 32.9209 37.1718L32.5971 37.7327C31.6124 39.4382 29.6917 40.7969 27.4262 41.4278C26.8366 41.592 26.2439 41.7014 25.6601 41.7561C25.6437 41.7562 25.6274 41.7563 25.611 41.7563C23.5474 41.7563 21.5283 41.1565 19.7994 40.0301L19.195 39.6363C18.2014 38.9889 17.3005 38.266 16.4922 37.4816C23.2758 37.1729 29.6113 33.2374 33.0371 27.2862C33.3605 28.4728 33.5654 29.7227 33.6357 31.0268L33.6745 31.7471C33.6964 32.1521 33.7153 32.5271 33.7278 32.8777ZM34.6913 38.1052C35.6977 36.3433 35.7984 34.7123 35.7278 32.8041V16.1168C35.7278 10.5295 31.1983 6 25.611 6C23.1597 6 20.7614 6.71239 18.7076 8.0505L18.1032 8.44427C17.7066 8.70265 17.3233 8.97184 16.9533 9.25112L16.949 9.2438L8.005 14.4783C7.77425 14.585 7.54417 14.6965 7.31485 14.8129L7.34195 14.8663L5.16652 16.1395C0.367492 19.001 -1.5109 25.5566 1.35058 30.3556C2.60593 32.461 4.44611 34.1561 6.64722 35.2348L7.29495 35.5523C7.36437 35.5863 7.43386 35.6198 7.50341 35.6529L20.1665 42.6395C21.8054 43.5857 23.7789 43.9241 25.7525 43.7553C29.6768 43.7015 33.0613 41.4132 34.6913 38.1052ZM12.0556 35.1111C10.8299 34.8446 9.61041 34.4352 8.41509 33.8717L6.65079 32.8983L6.62616 32.9419C5.17115 32.045 3.94889 30.808 3.06839 29.3313C0.811799 25.5468 2.27395 20.1978 6.18415 17.8613L8.92966 16.2544C9.84576 15.8364 10.7726 15.5024 11.7027 15.2485C8.25754 21.3913 8.37519 29.0734 12.0556 35.1111ZM14.7162 35.4695C10.1446 29.4003 10.0361 20.9175 14.3907 14.7337C21.8447 13.9004 29.0421 17.9511 32.1114 24.7159C29.0609 31.4871 22.0068 35.8621 14.7162 35.4695ZM16.1394 12.627C23.0653 12.5614 29.5638 16.2101 33.038 22.1503C33.3978 20.8491 33.6166 19.4812 33.6732 18.0599L33.7278 18.0621V16.1168C33.7278 11.634 30.0938 8 25.611 8C23.5474 8 21.5283 8.59972 19.7994 9.7262L19.195 10.12C18.0544 10.8631 17.0358 11.7059 16.1394 12.627Z" fill="white"/>
</svg>
