<svg id="Layer_1" data-name="Layer 1" xmlns="http://www.w3.org/2000/svg" viewBox="0 0 1080 328.27"><defs><style>.cls-1{fill:#132338;}</style></defs><title>Primary Logo Blue</title><path class="cls-1" d="M219.46,155.6a10.09,10.09,0,0,0-2.94-7.1l-36.2-36.2a3.52,3.52,0,0,0-2.5-1,3.63,3.63,0,0,0-3,1.62c-2.31,3.49-4.81,7-7.44,10.56a3.54,3.54,0,0,0,.33,4.65l25.12,25.12a3.37,3.37,0,0,1,0,4.78l-32.7,32.7a225.76,225.76,0,0,0-32.63-37.09c14.43-13.52,47.77-49,47.77-88.08a65.54,65.54,0,0,0-131.08,0c0,39.17,33.38,74.62,47.76,88.07l-0.24.22a223,223,0,0,0-32.42,36.92L26.56,158a3.44,3.44,0,0,1,0-4.85L51.68,128a3.47,3.47,0,0,0,.33-4.58c-2.59-3.48-5.1-7-7.45-10.56A3.56,3.56,0,0,0,42,111.32a3.49,3.49,0,0,0-2.83,1l-36.2,36.2a10,10,0,0,0,0,14.13l45.68,45.69c-8.31,16-12.53,31.6-12.53,46.29a73.62,73.62,0,1,0,147.24,0c0-14.66-4.2-30.22-12.5-46.24l45.7-45.7A10.12,10.12,0,0,0,219.46,155.6Zm-109.75-12a187.06,187.06,0,0,1-25.18-27,125,125,0,0,1-14.61-24C65.63,83.14,63.46,74,63.46,65.53a46.24,46.24,0,1,1,92.49,0c0,8.49-2.17,17.62-6.45,27.14a124.85,124.85,0,0,1-14.61,24A187.74,187.74,0,0,1,109.71,143.64Zm2.38,95.06a3.37,3.37,0,0,1-4.78,0L74.49,205.88c13.88-21,31.61-36.74,35.21-39.83,3.61,3.09,21.38,18.8,35.24,39.8Zm50.14,15.94a52.53,52.53,0,1,1-105.06,0c0-9.52,2.42-19.77,7.18-30.47l38.24,38.24a10.06,10.06,0,0,0,14.22,0l38.26-38.27C159.82,234.83,162.23,245.09,162.23,254.64Z" transform="translate(0)"/><path class="cls-1" d="M418.45,152.93v64.52h-29V158.08a59.45,59.45,0,0,0-1-12.67,14.16,14.16,0,0,0-3.94-7.12,17.74,17.74,0,0,0-5.55-3.58,19,19,0,0,0-6.46-1q-8.89,0-14.24,6-5.55,6.77-5.55,21.1v56.65h-29V158.08a61.19,61.19,0,0,0-1-13.08,13.51,13.51,0,0,0-4.34-7.12,15.24,15.24,0,0,0-5.4-3.33,24.32,24.32,0,0,0-7-.81,16.38,16.38,0,0,0-12.82,5.55q-5.66,6.56-5.65,22.11v56H258.61V114.06h28.88V128.5a27.69,27.69,0,0,1,7.67-9.9q8.48-7.07,21.51-7.07,11.51,0,19.19,5.35a28.34,28.34,0,0,1,10.8,14.94,32.52,32.52,0,0,1,10.1-13q9.39-7.27,24.23-7.27,18.27,0,27.87,10.45T418.45,152.93Z" transform="translate(0)"/><path class="cls-1" d="M431,165.76q0-24,14.64-39.13t39.18-15.1q24.33,0,38.93,15.1t14.59,39.13q0,24.44-14.69,39.33T484.8,220q-25.24,0-39.53-14.44T431,165.76Zm71.14,26q5.2-7.57,5.2-26t-5.25-26q-5.25-7.57-17.27-7.57t-17.37,7.62q-5.35,7.62-5.35,25.9t5.3,26q5.3,7.57,17.42,7.57T502.12,191.71Z" transform="translate(0)"/><path class="cls-1" d="M551.75,72.66h28.88v144.8H551.75V72.66Z" transform="translate(0)"/><path class="cls-1" d="M706.55,165.76q0-24.44,14.24-39.33t39-14.89q20,0,32,9.85c8,6.56,14,16.95,16,32.12l-28.17.24q-1.82-10.4-6.36-15.55T759.77,133q-12,0-16.86,7.78t-4.85,24.94q0,17.37,4.8,25t16.91,7.67q15.65,0,19.79-17.87l28.17,0.05c-1.39,13.41-6.8,22.5-15.35,29.23S773,220,759.77,220q-25.24,0-39.23-14.29T706.55,165.76Z" transform="translate(0)"/><path class="cls-1" d="M914.17,114.06v103.4H886V203q-8.58,17-29.18,17A46.83,46.83,0,0,1,840,217.3a32.93,32.93,0,0,1-12.52-8.73,28.91,28.91,0,0,1-7.37-13.68q-2-8.23-2-21.05V114.06h29.59v58.36a73.49,73.49,0,0,0,.86,13.13,15.35,15.35,0,0,0,3.69,7.47,13.14,13.14,0,0,0,5.81,3.89,28.38,28.38,0,0,0,8.53,1.06A16.37,16.37,0,0,0,880.44,191q5.15-6.92,5.15-20.75V114.06h28.58Z" transform="translate(0)"/><path class="cls-1" d="M933.15,72.66H962v144.8H933.15V72.66Z" transform="translate(0)"/><path class="cls-1" d="M1049.53,185.22a19.85,19.85,0,0,1-6.41,10.07q-5.25,4.19-14.84,4.19-11.71,0-17.87-6.66t-6.16-19.59H1080q0.61-31.2-14.14-47.16-13.93-14.54-37.77-14.54-23.63,0-37.66,13.73-14.74,14.14-14.74,40.29t14.94,40.69Q1004.34,220,1028.28,220q20.09,0,32.82-8.73t17.17-26l-0.29,0h-28.45ZM1009.6,139.3q5.86-7.67,18.48-7.67,10.8,0,16.46,6,5.15,5.86,6.06,15.75h-46.15A27.46,27.46,0,0,1,1009.6,139.3Z" transform="translate(0)"/><path class="cls-1" d="M665.62,185.22a19.85,19.85,0,0,1-6.41,10.07q-5.25,4.19-14.84,4.19-11.71,0-17.87-6.66t-6.16-19.59h75.73q0.61-31.2-14.14-47.16Q668,111.53,644.16,111.53q-23.63,0-37.66,13.73-14.74,14.14-14.74,40.29t14.94,40.69Q620.43,220,644.36,220q20.09,0,32.82-8.73t17.17-26l-0.29,0H665.62ZM625.68,139.3q5.86-7.67,18.48-7.67,10.8,0,16.46,6,5.15,5.86,6.06,15.75H620.53A27.46,27.46,0,0,1,625.68,139.3Z" transform="translate(0)"/></svg>