<svg width="17" height="17" viewBox="0 0 17 17" fill="none" xmlns="http://www.w3.org/2000/svg">
<path fill-rule="evenodd" clip-rule="evenodd" d="M16.4365 8.57959C16.4365 12.9979 12.8548 16.5796 8.43652 16.5796C4.01825 16.5796 0.436523 12.9979 0.436523 8.57959C0.436523 4.16131 4.01825 0.57959 8.43652 0.57959C12.8548 0.57959 16.4365 4.16131 16.4365 8.57959ZM8.72321 6.48554C7.94509 6.80919 6.38995 7.47905 4.05779 8.49514C3.67908 8.64574 3.4807 8.79307 3.46264 8.93713C3.43211 9.18059 3.737 9.27646 4.15217 9.40701C4.20865 9.42476 4.26716 9.44316 4.32715 9.46266C4.73561 9.59544 5.28507 9.75077 5.57071 9.75694C5.82982 9.76254 6.11901 9.65572 6.43828 9.43648C8.6173 7.96559 9.74211 7.22213 9.81273 7.2061C9.86255 7.19479 9.93159 7.18058 9.97837 7.22215C10.0251 7.26373 10.0205 7.34247 10.0156 7.36359C9.98539 7.49235 8.7886 8.60499 8.16927 9.18078C7.97619 9.36028 7.83924 9.4876 7.81124 9.51668C7.74853 9.58182 7.68461 9.64344 7.62318 9.70266C7.2437 10.0685 6.95913 10.3428 7.63893 10.7908C7.96561 11.0061 8.22702 11.1841 8.48781 11.3617C8.77263 11.5556 9.05671 11.7491 9.42426 11.99C9.51791 12.0514 9.60734 12.1152 9.69445 12.1773C10.0259 12.4136 10.3237 12.6259 10.6916 12.592C10.9054 12.5723 11.1262 12.3713 11.2383 11.7718C11.5033 10.355 12.0243 7.28523 12.1447 6.02024C12.1552 5.90941 12.1419 5.76757 12.1313 5.70531C12.1206 5.64304 12.0984 5.55433 12.0174 5.48866C11.9216 5.41088 11.7736 5.39448 11.7074 5.39565C11.4065 5.40095 10.9449 5.56147 8.72321 6.48554Z" fill="white"/>
</svg>
