<svg width="17" height="14" viewBox="0 0 17 14" fill="none" xmlns="http://www.w3.org/2000/svg">
<path d="M5.46996 13.0796C11.5062 13.0796 14.8087 8.07739 14.8087 3.74083C14.8087 3.60021 14.8056 3.45646 14.7993 3.31583C15.4418 2.85123 15.9962 2.27576 16.4365 1.61646C15.8382 1.88266 15.203 2.05651 14.5525 2.13208C15.2374 1.72153 15.7502 1.07657 15.9959 0.316768C15.3516 0.698628 14.6469 0.967998 13.9121 1.11333C13.4171 0.587297 12.7625 0.239001 12.0496 0.122291C11.3368 0.00558029 10.6053 0.126957 9.96835 0.467654C9.33138 0.808352 8.82439 1.34939 8.52575 2.00713C8.22712 2.66487 8.15348 3.40267 8.31621 4.10646C7.01152 4.04098 5.73515 3.70206 4.56984 3.11166C3.40454 2.52125 2.37632 1.69255 1.55184 0.679268C1.13279 1.40175 1.00456 2.25669 1.19321 3.07032C1.38186 3.88395 1.87323 4.59522 2.56746 5.05958C2.04628 5.04303 1.53651 4.90271 1.08027 4.65021V4.69083C1.07981 5.44902 1.34192 6.18398 1.82206 6.77077C2.3022 7.35756 2.97074 7.75996 3.71402 7.90958C3.23123 8.04168 2.72451 8.06092 2.23309 7.96583C2.44283 8.61788 2.85091 9.18818 3.40037 9.59715C3.94984 10.0061 4.61327 10.2333 5.29809 10.2471C4.13547 11.1603 2.69931 11.6557 1.2209 11.6533C0.958715 11.6529 0.696789 11.6369 0.436523 11.6052C1.93843 12.5688 3.68554 13.0805 5.46996 13.0796Z" fill="white"/>
</svg>
