<svg width="17" height="13" viewBox="0 0 17 13" fill="none" xmlns="http://www.w3.org/2000/svg">
<path d="M16.2771 3.37979C16.2771 3.37979 16.1209 2.27666 15.6396 1.79229C15.0303 1.15479 14.349 1.15166 14.0365 1.11416C11.799 0.95166 8.43965 0.95166 8.43965 0.95166H8.4334C8.4334 0.95166 5.07402 0.95166 2.83652 1.11416C2.52402 1.15166 1.84277 1.15479 1.2334 1.79229C0.752148 2.27666 0.599023 3.37979 0.599023 3.37979C0.599023 3.37979 0.436523 4.67666 0.436523 5.97041V7.18291C0.436523 8.47666 0.595898 9.77353 0.595898 9.77353C0.595898 9.77353 0.752148 10.8767 1.23027 11.361C1.83965 11.9985 2.63965 11.9767 2.9959 12.0454C4.27715 12.1673 8.43652 12.2048 8.43652 12.2048C8.43652 12.2048 11.799 12.1985 14.0365 12.0392C14.349 12.0017 15.0303 11.9985 15.6396 11.361C16.1209 10.8767 16.2771 9.77353 16.2771 9.77353C16.2771 9.77353 16.4365 8.47978 16.4365 7.18291V5.97041C16.4365 4.67666 16.2771 3.37979 16.2771 3.37979ZM6.7834 8.65478V4.15791L11.1053 6.41416L6.7834 8.65478Z" fill="white"/>
</svg>
