<svg width="28" height="28" viewBox="0 0 28 28" fill="none" xmlns="http://www.w3.org/2000/svg">
<path d="M24.9334 1.16663H3.06155C2.01383 1.16663 1.16663 1.99377 1.16663 3.01643V24.9785C1.16663 26.0011 2.01383 26.8333 3.06155 26.8333H24.9334C25.9811 26.8333 26.8333 26.0011 26.8333 24.9835V3.01643C26.8333 1.99377 25.9811 1.16663 24.9334 1.16663ZM8.7814 23.0384H4.97151V10.7866H8.7814V23.0384ZM6.87646 9.11728C5.65328 9.11728 4.66571 8.12971 4.66571 6.91155C4.66571 5.69338 5.65328 4.70582 6.87646 4.70582C8.09462 4.70582 9.08219 5.69338 9.08219 6.91155C9.08219 8.1247 8.09462 9.11728 6.87646 9.11728ZM23.0384 23.0384H19.2336V17.083C19.2336 15.6643 19.2085 13.8345 17.2534 13.8345C15.2733 13.8345 14.9725 15.3836 14.9725 16.9827V23.0384H11.1726V10.7866H14.8221V12.461H14.8722C15.3785 11.4985 16.6218 10.4808 18.4716 10.4808C22.3266 10.4808 23.0384 13.0174 23.0384 16.316V23.0384Z" fill="white"/>
</svg>
