<svg width="28" height="28" viewBox="0 0 28 28" fill="none" xmlns="http://www.w3.org/2000/svg">
<path d="M27.7211 8.4001C27.7211 8.4001 27.4477 6.46963 26.6055 5.62197C25.5391 4.50635 24.3469 4.50088 23.8 4.43525C19.8844 4.15088 14.0055 4.15088 14.0055 4.15088H13.9945C13.9945 4.15088 8.11562 4.15088 4.2 4.43525C3.65313 4.50088 2.46094 4.50635 1.39453 5.62197C0.552344 6.46963 0.284375 8.4001 0.284375 8.4001C0.284375 8.4001 0 10.6696 0 12.9337V15.0556C0 17.3196 0.278906 19.5892 0.278906 19.5892C0.278906 19.5892 0.552344 21.5196 1.38906 22.3673C2.45547 23.4829 3.85547 23.4446 4.47891 23.5649C6.72109 23.7782 14 23.8438 14 23.8438C14 23.8438 19.8844 23.8329 23.8 23.554C24.3469 23.4884 25.5391 23.4829 26.6055 22.3673C27.4477 21.5196 27.7211 19.5892 27.7211 19.5892C27.7211 19.5892 28 17.3251 28 15.0556V12.9337C28 10.6696 27.7211 8.4001 27.7211 8.4001ZM11.107 17.6313V9.76182L18.6703 13.7103L11.107 17.6313Z" fill="#EFEBFF"/>
</svg>
