<svg width="28" height="28" viewBox="0 0 28 28" fill="none" xmlns="http://www.w3.org/2000/svg">
<g clip-path="url(#clip0_467_5453)">
<path fill-rule="evenodd" clip-rule="evenodd" d="M14.0003 0.583374C10.6767 0.585098 7.46213 1.76224 4.93133 3.90432C2.40052 6.04639 0.718533 9.01372 0.186115 12.2757C-0.346304 15.5377 0.305561 18.8816 2.02516 21.7096C3.74476 24.5375 6.41996 26.6651 9.5724 27.7118C10.2679 27.8409 10.5298 27.4099 10.5298 27.0434C10.5298 26.6769 10.5159 25.6142 10.5113 24.4525C6.61661 25.2938 5.79363 22.8089 5.79363 22.8089C5.15842 21.1954 4.24039 20.7712 4.24039 20.7712C2.96998 19.9091 4.33545 19.9253 4.33545 19.9253C5.74263 20.0244 6.48216 21.3614 6.48216 21.3614C7.72939 23.4889 9.75786 22.8735 10.5553 22.5139C10.6805 21.6126 11.0445 20.9995 11.4456 20.6514C8.33445 20.301 5.06569 19.107 5.06569 13.773C5.04641 12.3897 5.56267 11.0519 6.50766 10.0365C6.36393 9.68613 5.88404 8.27081 6.64443 6.34838C6.64443 6.34838 7.8198 5.97495 10.4951 7.77522C12.7898 7.15127 15.2108 7.15127 17.5055 7.77522C20.1785 5.97495 21.3515 6.34838 21.3515 6.34838C22.1142 8.2662 21.6343 9.68152 21.4906 10.0365C22.4386 11.0521 22.9559 12.3922 22.9349 13.7776C22.9349 19.1231 19.6592 20.301 16.5434 20.6445C17.0442 21.0778 17.4916 21.9238 17.4916 23.2239C17.4916 25.0864 17.4754 26.5847 17.4754 27.0434C17.4754 27.4145 17.728 27.8478 18.4374 27.7118C21.5903 26.665 24.2657 24.537 25.9853 21.7086C27.7049 18.8802 28.3564 15.5357 27.8234 12.2734C27.2903 9.01114 25.6075 6.04379 23.0759 3.90208C20.5442 1.76037 17.3289 0.584005 14.0049 0.583374H14.0003Z" fill="#EFEBFF"/>
<path d="M5.30182 20.5707C5.27168 20.6399 5.16041 20.6606 5.07 20.6122C4.97958 20.5638 4.91236 20.4739 4.94481 20.4025C4.97727 20.331 5.08623 20.3126 5.17664 20.361C5.26705 20.4094 5.3366 20.5016 5.30182 20.5707Z" fill="#EFEBFF"/>
<path d="M5.86985 21.2C5.82184 21.224 5.76691 21.2308 5.71447 21.219C5.66203 21.2072 5.61534 21.1777 5.58239 21.1354C5.49197 21.0386 5.47342 20.9049 5.54297 20.845C5.61251 20.7851 5.73771 20.8127 5.82812 20.9096C5.91853 21.0064 5.9394 21.1401 5.86985 21.2Z" fill="#EFEBFF"/>
<path d="M6.42164 21.9999C6.33586 22.0598 6.1898 21.9999 6.10867 21.88C6.08623 21.8585 6.06839 21.8327 6.0562 21.8042C6.04401 21.7757 6.03772 21.745 6.03772 21.714C6.03772 21.6831 6.04401 21.6524 6.0562 21.6239C6.06839 21.5954 6.08623 21.5696 6.10867 21.5481C6.19444 21.4904 6.3405 21.5481 6.42164 21.6656C6.50278 21.7832 6.5051 21.9399 6.42164 21.9999Z" fill="#EFEBFF"/>
<path d="M7.17043 22.7744C7.09392 22.8597 6.9386 22.8366 6.8111 22.7214C6.6836 22.6061 6.65345 22.4494 6.72995 22.3664C6.80645 22.2834 6.96178 22.3064 7.09392 22.4194C7.22606 22.5323 7.25157 22.6914 7.17043 22.7744Z" fill="#EFEBFF"/>
<path d="M8.22049 23.2261C8.18572 23.3344 8.02808 23.3828 7.87044 23.3367C7.71279 23.2906 7.60847 23.1615 7.63861 23.0509C7.66875 22.9403 7.82871 22.8895 7.98867 22.9403C8.14863 22.991 8.25063 23.1131 8.22049 23.2261Z" fill="#EFEBFF"/>
<path d="M9.3658 23.3045C9.3658 23.4174 9.23599 23.5142 9.06907 23.5165C8.90216 23.5188 8.76538 23.4266 8.76538 23.3137C8.76538 23.2007 8.8952 23.1039 9.06211 23.1016C9.22903 23.0993 9.3658 23.1892 9.3658 23.3045Z" fill="#EFEBFF"/>
<path d="M10.4323 23.127C10.4531 23.24 10.3372 23.3575 10.1703 23.3852C10.0034 23.4129 9.85732 23.346 9.83646 23.2354C9.81559 23.1247 9.93614 23.0049 10.0984 22.9749C10.2607 22.9449 10.4114 23.0141 10.4323 23.127Z" fill="#EFEBFF"/>
</g>
<defs>
<clipPath id="clip0_467_5453">
<rect width="28" height="28" fill="white"/>
</clipPath>
</defs>
</svg>
