<svg width="124" height="48" viewBox="0 0 124 48" fill="none" xmlns="http://www.w3.org/2000/svg">
<g clip-path="url(#clip0_343_194)">
<path d="M49.2812 21.5V6.0957H54.6739C54.9962 6.0957 55.2825 6.10286 55.5332 6.11719C55.791 6.12435 56.1276 6.15658 56.543 6.21387C56.9583 6.264 57.3271 6.33561 57.6494 6.42871C57.9788 6.52181 58.3477 6.66146 58.7559 6.84766C59.1642 7.03385 59.5222 7.25586 59.8302 7.51367C60.1453 7.76432 60.4567 8.08659 60.7646 8.48047C61.0797 8.87435 61.3377 9.31836 61.5382 9.8125C61.7459 10.2995 61.9105 10.8831 62.0322 11.5635C62.1611 12.2438 62.2257 12.9886 62.2257 13.7979C62.2257 14.6071 62.1611 15.3519 62.0322 16.0322C61.9105 16.7126 61.7459 17.2998 61.5382 17.7939C61.3377 18.2809 61.0797 18.7214 60.7646 19.1152C60.4567 19.5091 60.1453 19.835 59.8302 20.0928C59.5222 20.3434 59.1642 20.5618 58.7559 20.748C58.3477 20.9342 57.9788 21.0739 57.6494 21.167C57.3271 21.2601 56.9583 21.3353 56.543 21.3926C56.1276 21.4427 55.791 21.4749 55.5332 21.4893C55.2825 21.4964 54.9962 21.5 54.6739 21.5H49.2812ZM52.5361 19.0186H54.459C56.0989 19.0186 57.2591 18.6283 57.9394 17.8477C58.6198 17.0671 58.9599 15.7171 58.9599 13.7979C58.9599 12.9313 58.9063 12.2008 58.7989 11.6064C58.6987 11.012 58.5446 10.5143 58.3369 10.1133C58.1364 9.71224 57.85 9.4043 57.4776 9.18945C57.1052 8.96745 56.6826 8.81348 56.2099 8.72754C55.7445 8.63444 55.1608 8.58789 54.459 8.58789H52.5361V19.0186ZM69.5518 21.8545C69.0076 21.8545 68.4739 21.79 67.9512 21.6611C67.4355 21.5322 66.9342 21.321 66.4473 21.0273C65.9674 20.7266 65.5449 20.3577 65.1797 19.9209C64.8216 19.484 64.5316 18.9362 64.3096 18.2773C64.0947 17.6113 63.9874 16.8737 63.9874 16.0645C63.9874 15.2552 64.0947 14.5176 64.3096 13.8516C64.5316 13.1784 64.8216 12.6198 65.1797 12.1758C65.5449 11.7246 65.9674 11.3451 66.4473 11.0371C66.9342 10.722 67.4355 10.4964 67.9512 10.3604C68.4739 10.2171 69.0076 10.1455 69.5518 10.1455C70.0961 10.1455 70.6153 10.2171 71.1095 10.3604C71.6108 10.4964 72.0834 10.722 72.5274 11.0371C72.9786 11.3451 73.3688 11.7246 73.6982 12.1758C74.0348 12.627 74.2998 13.1855 74.4932 13.8516C74.6865 14.5176 74.7832 15.2552 74.7832 16.0645V16.6553H67.2422C67.2422 17.5433 67.4355 18.2165 67.8223 18.6748C68.209 19.1331 68.7856 19.3623 69.5518 19.3623C69.9099 19.3623 70.2249 19.3158 70.4971 19.2227C70.7764 19.1296 70.9912 19.0078 71.1416 18.8574C71.292 18.6999 71.403 18.5566 71.4746 18.4277C71.5534 18.2917 71.6108 18.1556 71.6466 18.0195L74.7832 18.2451C74.7474 18.9541 74.4753 19.5879 73.9669 20.1465C73.4656 20.7051 72.8246 21.1312 72.044 21.4248C71.2706 21.7113 70.4399 21.8545 69.5518 21.8545ZM67.2422 14.7217H71.8399C71.8399 14.1344 71.6393 13.6403 71.2383 13.2393C70.8444 12.8382 70.2823 12.6377 69.5518 12.6377C68.8214 12.6377 68.2519 12.8382 67.8438 13.2393C67.4428 13.6403 67.2422 14.1344 67.2422 14.7217ZM83.2695 21.8545C81.2142 21.8545 79.6172 21.2816 78.4785 20.1357C77.3398 18.9899 76.7706 17.3929 76.7706 15.3447L80.0361 15.1191C79.9645 16.5085 80.2188 17.5648 80.7989 18.2881C81.3862 19.0042 82.2096 19.3623 83.2695 19.3623C84.1862 19.3623 84.863 19.1403 85.2999 18.6963C85.7439 18.2451 85.9659 17.7044 85.9659 17.0742C85.9659 16.2578 85.6866 15.6634 85.128 15.291C84.5694 14.9186 83.488 14.5749 81.8839 14.2598C80.4516 13.9733 79.3308 13.4469 78.5216 12.6807C77.7123 11.9072 77.3076 10.9762 77.3076 9.8877C77.3076 8.72038 77.7946 7.73926 78.7685 6.94434C79.7497 6.14941 81.028 5.75195 82.6035 5.75195C84.4726 5.75195 85.905 6.16732 86.9005 6.99805C87.8959 7.82878 88.3935 9.03906 88.3935 10.6289L85.1387 10.8545C85.1387 9.95215 84.9095 9.28971 84.4512 8.86719C84 8.44466 83.3841 8.2334 82.6035 8.2334C81.9518 8.2334 81.447 8.38021 81.089 8.67383C80.738 8.96745 80.5626 9.37207 80.5626 9.8877C80.5626 10.4391 80.7558 10.8617 81.1426 11.1553C81.5293 11.4489 82.2813 11.7139 83.3985 11.9502C84.0502 12.0863 84.623 12.2259 85.1172 12.3691C85.6113 12.5124 86.1306 12.7165 86.6749 12.9814C87.2192 13.2464 87.6667 13.5472 88.0176 13.8838C88.3685 14.2132 88.6585 14.6322 88.8877 15.1406C89.1169 15.6491 89.2315 16.222 89.2315 16.8594C89.2315 18.3633 88.6837 19.5736 87.588 20.4902C86.4994 21.3997 85.0599 21.8545 83.2695 21.8545ZM96.4932 21.8545C95.8988 21.8545 95.3259 21.7829 94.7745 21.6396C94.2231 21.5036 93.7002 21.2816 93.206 20.9736C92.7191 20.6657 92.293 20.2897 91.9277 19.8457C91.5696 19.4017 91.2833 18.8574 91.0684 18.2129C90.8608 17.5612 90.7569 16.8451 90.7569 16.0645C90.7569 15.0905 90.918 14.2168 91.2402 13.4434C91.5625 12.6699 91.9923 12.0505 92.5294 11.585C93.0737 11.1123 93.6824 10.7542 94.3556 10.5107C95.0287 10.2673 95.7412 10.1455 96.4932 10.1455C97.0661 10.1455 97.5889 10.1885 98.0615 10.2744C98.5413 10.3532 99.0069 10.4964 99.4581 10.7041C99.9093 10.9118 100.3 11.1839 100.629 11.5205C100.959 11.8499 101.238 12.2832 101.467 12.8203C101.696 13.3503 101.85 13.9626 101.929 14.6572L98.7169 14.8828C98.5522 14.0664 98.2978 13.4899 97.9541 13.1533C97.6175 12.8096 97.1305 12.6377 96.4932 12.6377C95.7126 12.6377 95.1039 12.9456 94.6671 13.5615C94.2302 14.1774 94.0117 15.0046 94.0117 16.043C94.0117 18.2559 94.8389 19.3623 96.4932 19.3623C97.0876 19.3623 97.5674 19.2083 97.9326 18.9004C98.2978 18.5853 98.5593 18.0374 98.7169 17.2568L101.929 17.4717C101.858 18.1592 101.704 18.7643 101.467 19.2871C101.238 19.8099 100.959 20.2324 100.629 20.5547C100.3 20.8698 99.9056 21.1276 99.4473 21.3281C98.9961 21.5286 98.5342 21.6647 98.0615 21.7363C97.5889 21.8151 97.0661 21.8545 96.4932 21.8545ZM104.045 21.5V10.5H107.3V21.5H104.045ZM103.917 8.73828V5.88086H107.44V8.73828H103.917Z" fill="white"/>
<path d="M48.5372 36.858H50.1212C50.1652 37.474 50.3485 38.024 50.6712 38.508C50.9939 38.992 51.4339 39.3733 51.9912 39.652C52.5632 39.9307 53.2305 40.07 53.9932 40.07C54.6532 40.07 55.2032 39.9747 55.6432 39.784C56.0979 39.5787 56.4352 39.3 56.6552 38.948C56.8899 38.596 57.0072 38.1853 57.0072 37.716C57.0072 37.232 56.8899 36.8433 56.6552 36.55C56.4205 36.2567 56.0832 36.0073 55.6432 35.802C55.2032 35.5967 54.6825 35.3987 54.0812 35.208C53.5092 35.032 52.9299 34.8267 52.3432 34.592C51.7565 34.3573 51.2065 34.0713 50.6932 33.734C50.1945 33.3967 49.7912 32.9933 49.4832 32.524C49.1752 32.04 49.0212 31.4607 49.0212 30.786C49.0212 30.126 49.1972 29.51 49.5492 28.938C49.9159 28.3513 50.4439 27.882 51.1332 27.53C51.8372 27.1633 52.6805 26.98 53.6632 26.98C55.2032 26.98 56.3545 27.398 57.1172 28.234C57.8799 29.07 58.2465 30.1773 58.2172 31.556H56.6332C56.6039 30.5147 56.3105 29.7667 55.7532 29.312C55.1959 28.8573 54.4699 28.63 53.5752 28.63C52.8272 28.63 52.1745 28.806 51.6172 29.158C51.0599 29.4953 50.7812 30.0307 50.7812 30.764C50.7812 31.0867 50.8399 31.3727 50.9572 31.622C51.0892 31.8567 51.2945 32.0767 51.5732 32.282C51.8665 32.4873 52.2552 32.6927 52.7392 32.898C53.2379 33.0887 53.8465 33.3013 54.5652 33.536C55.0345 33.6827 55.5112 33.8587 55.9952 34.064C56.4939 34.2693 56.9485 34.526 57.3592 34.834C57.7845 35.142 58.1219 35.538 58.3712 36.022C58.6352 36.4913 58.7672 37.0853 58.7672 37.804C58.7672 38.4933 58.5985 39.1387 58.2612 39.74C57.9385 40.3267 57.4252 40.8033 56.7212 41.17C56.0319 41.5367 55.1372 41.72 54.0372 41.72C53.0985 41.72 52.2919 41.5953 51.6172 41.346C50.9572 41.082 50.4145 40.7447 49.9892 40.334C49.5639 39.9233 49.2339 39.498 48.9992 39.058C48.7792 38.6033 48.6325 38.178 48.5592 37.782C48.4859 37.386 48.4785 37.078 48.5372 36.858ZM70.4055 41.5H68.6455V30.5H70.4055V41.5ZM68.7555 36.374L68.7775 36.99C68.7629 37.166 68.7189 37.4373 68.6455 37.804C68.5869 38.1707 68.4769 38.5813 68.3155 39.036C68.1689 39.476 67.9489 39.9013 67.6555 40.312C67.3769 40.7227 67.0102 41.06 66.5555 41.324C66.1155 41.588 65.5655 41.72 64.9055 41.72C64.4802 41.72 64.0402 41.654 63.5855 41.522C63.1455 41.4047 62.7349 41.2067 62.3535 40.928C61.9722 40.6347 61.6642 40.2313 61.4295 39.718C61.1949 39.2047 61.0775 38.5667 61.0775 37.804V30.5H62.8375V37.364C62.8375 38.024 62.9402 38.5447 63.1455 38.926C63.3655 39.2927 63.6589 39.5567 64.0255 39.718C64.3922 39.8793 64.8029 39.96 65.2575 39.96C66.0055 39.96 66.6289 39.7693 67.1275 39.388C67.6262 39.0067 68.0075 38.5373 68.2715 37.98C68.5355 37.4227 68.6969 36.8873 68.7555 36.374ZM73.2592 30.5H75.0192V41.5H73.2592V30.5ZM78.8032 30.28C79.3899 30.28 79.9179 30.368 80.3872 30.544C80.8565 30.72 81.2525 30.9767 81.5752 31.314C81.8979 31.6513 82.1472 32.062 82.3232 32.546C82.4992 33.0153 82.5872 33.5507 82.5872 34.152V41.5H80.8272V34.592C80.8272 33.7413 80.6292 33.1033 80.2332 32.678C79.8372 32.2527 79.2432 32.04 78.4512 32.04C77.8499 32.04 77.2925 32.194 76.7792 32.502C76.2659 32.81 75.8405 33.2353 75.5032 33.778C75.1805 34.306 74.9825 34.922 74.9092 35.626L74.8872 34.35C74.9605 33.734 75.1072 33.1767 75.3272 32.678C75.5619 32.1793 75.8479 31.754 76.1852 31.402C76.5372 31.0353 76.9332 30.7567 77.3732 30.566C77.8279 30.3753 78.3045 30.28 78.8032 30.28ZM86.1952 30.28C86.7819 30.28 87.3099 30.368 87.7792 30.544C88.2485 30.72 88.6445 30.9767 88.9672 31.314C89.2899 31.6513 89.5392 32.062 89.7152 32.546C89.8912 33.0153 89.9792 33.5507 89.9792 34.152V41.5H88.2192V34.592C88.2192 33.7413 88.0212 33.1033 87.6252 32.678C87.2292 32.2527 86.6352 32.04 85.8432 32.04C85.2419 32.04 84.6845 32.194 84.1712 32.502C83.6579 32.81 83.2325 33.2353 82.8952 33.778C82.5725 34.306 82.3745 34.922 82.3012 35.626L82.2792 34.35C82.3525 33.734 82.4992 33.1767 82.7192 32.678C82.9539 32.1793 83.2399 31.754 83.5772 31.402C83.9292 31.0353 84.3252 30.7567 84.7652 30.566C85.2199 30.3753 85.6965 30.28 86.1952 30.28ZM92.8315 30.5H94.5915V41.5H92.8315V30.5ZM98.3755 30.28C98.9621 30.28 99.4901 30.368 99.9595 30.544C100.429 30.72 100.825 30.9767 101.148 31.314C101.471 31.6513 101.72 32.062 101.896 32.546C102.072 33.0153 102.16 33.5507 102.16 34.152V41.5H100.4V34.592C100.4 33.7413 100.202 33.1033 99.8055 32.678C99.4095 32.2527 98.8155 32.04 98.0235 32.04C97.4221 32.04 96.8648 32.194 96.3515 32.502C95.8381 32.81 95.4128 33.2353 95.0755 33.778C94.7528 34.306 94.5548 34.922 94.4815 35.626L94.4595 34.35C94.5328 33.734 94.6795 33.1767 94.8995 32.678C95.1341 32.1793 95.4201 31.754 95.7575 31.402C96.1095 31.0353 96.5055 30.7567 96.9455 30.566C97.4001 30.3753 97.8768 30.28 98.3755 30.28ZM105.768 30.28C106.355 30.28 106.883 30.368 107.352 30.544C107.821 30.72 108.217 30.9767 108.54 31.314C108.863 31.6513 109.112 32.062 109.288 32.546C109.464 33.0153 109.552 33.5507 109.552 34.152V41.5H107.792V34.592C107.792 33.7413 107.594 33.1033 107.198 32.678C106.802 32.2527 106.208 32.04 105.416 32.04C104.815 32.04 104.257 32.194 103.744 32.502C103.231 32.81 102.805 33.2353 102.468 33.778C102.145 34.306 101.947 34.922 101.874 35.626L101.852 34.35C101.925 33.734 102.072 33.1767 102.292 32.678C102.527 32.1793 102.813 31.754 103.15 31.402C103.502 31.0353 103.898 30.7567 104.338 30.566C104.793 30.3753 105.269 30.28 105.768 30.28ZM114.582 26.1V28.234H112.294V26.1H114.582ZM112.558 30.5H114.318V41.5H112.558V30.5ZM116.554 30.5H123.022V32.15H116.554V30.5ZM118.908 27.64H120.668V41.5H118.908V27.64Z" fill="white"/>
<path d="M20.166 43.1393C24.6772 45.7439 31.7241 43.7437 34.3286 39.2326L34.6711 38.6393C35.8967 36.5165 35.8031 34.587 35.6711 32.1393L35.6323 31.4191C34.87 17.2779 19.9421 8.90243 7.31435 15.3128L8.21966 17.0962C19.5957 11.3212 32.9529 18.87 33.6352 31.5267L33.674 32.247C33.8083 34.7377 33.8318 36.0931 32.9391 37.6393L32.5966 38.2326C31.6119 39.9381 29.6912 41.2967 27.4257 41.9277C25.1597 42.5588 22.8494 42.3792 21.166 41.4073L21.1492 41.3976L6.65029 33.3982L5.66602 35.1393L20.166 43.1393Z" fill="url(#paint0_linear_343_194)"/>
<path d="M6.18415 18.3611C2.27395 20.6977 0.8118 26.0466 3.06839 29.8312C4.12521 31.6036 5.67435 33.0306 7.52736 33.9388L8.17509 34.2562C19.5217 39.8169 33.1642 31.3474 33.6732 18.5598L35.6716 18.6393C35.1083 32.7898 20.0117 42.2842 7.29495 36.0521L6.64722 35.7347C4.44611 34.656 2.60593 32.9608 1.35058 30.8554C-1.5109 26.0564 0.367494 19.5008 5.16652 16.6393L16.949 9.74365L17.9572 11.4709L6.18415 18.3611Z" fill="url(#paint1_linear_343_194)"/>
<path fill-rule="evenodd" clip-rule="evenodd" d="M33.7278 34.1394V16.6168C33.7278 12.134 30.0937 8.5 25.6109 8.5C23.5474 8.5 21.5283 9.09972 19.7993 10.2262L19.195 10.62C8.54047 17.5618 8.54047 33.1945 19.195 40.1363L19.7993 40.5301C21.5283 41.6565 23.5474 42.2563 25.6109 42.2563C30.0937 42.2563 33.7278 38.6222 33.7278 34.1394ZM18.7075 8.5505C20.7613 7.21239 23.1597 6.5 25.6109 6.5C31.1983 6.5 35.7278 11.0295 35.7278 16.6168V34.1394C35.7278 39.7268 31.1983 44.2563 25.6109 44.2563C23.1597 44.2563 20.7613 43.5439 18.7076 42.2058L18.1032 41.812C6.23774 34.0812 6.23773 16.675 18.1032 8.94427L18.7075 8.5505Z" fill="url(#paint2_linear_343_194)"/>
</g>
<defs>
<linearGradient id="paint0_linear_343_194" x1="14.2309" y1="14.1135" x2="27.2309" y2="26.1135" gradientUnits="userSpaceOnUse">
<stop stop-color="#EFEBFF"/>
<stop offset="1" stop-color="#DED6FF"/>
</linearGradient>
<linearGradient id="paint1_linear_343_194" x1="10.1573" y1="10.6389" x2="21.7728" y2="24.6654" gradientUnits="userSpaceOnUse">
<stop stop-color="#EFEBFF"/>
<stop offset="1" stop-color="#DED6FF"/>
</linearGradient>
<linearGradient id="paint2_linear_343_194" x1="24.7313" y1="6.61365" x2="26.7313" y2="47.6136" gradientUnits="userSpaceOnUse">
<stop stop-color="white"/>
<stop offset="1" stop-color="#DED6FF"/>
</linearGradient>
<clipPath id="clip0_343_194">
<rect width="124" height="48" fill="white"/>
</clipPath>
</defs>
</svg>
