<svg width="36" height="38" viewBox="0 0 36 38" fill="none" xmlns="http://www.w3.org/2000/svg">
<path d="M20.166 36.6393C24.6772 39.2439 31.7241 37.2437 34.3286 32.7326L34.6711 32.1393C35.8967 30.0165 35.8031 28.087 35.6711 25.6393L35.6323 24.9191C34.87 10.7779 19.9421 2.40243 7.31435 8.8128L8.21966 10.5962C19.5957 4.8212 32.9529 12.37 33.6352 25.0267L33.674 25.747C33.8083 28.2377 33.8318 29.5931 32.9391 31.1393L32.5966 31.7326C31.6119 33.4381 29.6912 34.7967 27.4257 35.4277C25.1597 36.0588 22.8494 35.8792 21.166 34.9073L21.1492 34.8976L6.65029 26.8982L5.66602 28.6393L20.166 36.6393Z" fill="url(#paint0_linear_343_203)"/>
<path d="M6.18415 11.8611C2.27395 14.1977 0.8118 19.5466 3.06839 23.3312C4.12521 25.1036 5.67435 26.5306 7.52736 27.4388L8.17509 27.7562C19.5217 33.3169 33.1642 24.8474 33.6732 12.0598L35.6716 12.1393C35.1083 26.2898 20.0117 35.7842 7.29495 29.5521L6.64722 29.2347C4.44611 28.156 2.60593 26.4608 1.35058 24.3554C-1.5109 19.5564 0.367494 13.0008 5.16652 10.1393L16.949 3.24365L17.9572 4.9709L6.18415 11.8611Z" fill="url(#paint1_linear_343_203)"/>
<path fill-rule="evenodd" clip-rule="evenodd" d="M33.7278 27.6394V10.1168C33.7278 5.634 30.0937 2 25.6109 2C23.5474 2 21.5283 2.59972 19.7993 3.7262L19.195 4.12C8.54047 11.0618 8.54047 26.6945 19.195 33.6363L19.7993 34.0301C21.5283 35.1565 23.5474 35.7563 25.6109 35.7563C30.0937 35.7563 33.7278 32.1222 33.7278 27.6394ZM18.7075 2.0505C20.7613 0.71239 23.1597 0 25.6109 0C31.1983 0 35.7278 4.5295 35.7278 10.1168V27.6394C35.7278 33.2268 31.1983 37.7563 25.6109 37.7563C23.1597 37.7563 20.7613 37.0439 18.7076 35.7058L18.1032 35.312C6.23774 27.5812 6.23773 10.175 18.1032 2.44427L18.7075 2.0505Z" fill="url(#paint2_linear_343_203)"/>
<defs>
<linearGradient id="paint0_linear_343_203" x1="14.2309" y1="7.6135" x2="27.2309" y2="19.6135" gradientUnits="userSpaceOnUse">
<stop stop-color="#EFEBFF"/>
<stop offset="1" stop-color="#DED6FF"/>
</linearGradient>
<linearGradient id="paint1_linear_343_203" x1="10.1573" y1="4.1389" x2="21.7728" y2="18.1654" gradientUnits="userSpaceOnUse">
<stop stop-color="#EFEBFF"/>
<stop offset="1" stop-color="#DED6FF"/>
</linearGradient>
<linearGradient id="paint2_linear_343_203" x1="24.7313" y1="0.11365" x2="26.7313" y2="41.1136" gradientUnits="userSpaceOnUse">
<stop stop-color="white"/>
<stop offset="1" stop-color="#DED6FF"/>
</linearGradient>
</defs>
</svg>
