<svg width="124" height="48" viewBox="0 0 124 48" fill="none" xmlns="http://www.w3.org/2000/svg">
<path d="M49.2817 21.5V6.0957H54.6743C54.9966 6.0957 55.283 6.10286 55.5337 6.11719C55.7915 6.12435 56.1281 6.15658 56.5435 6.21387C56.9588 6.264 57.3276 6.33561 57.6499 6.42871C57.9793 6.52181 58.3481 6.66146 58.7563 6.84766C59.1646 7.03385 59.5226 7.25586 59.8306 7.51367C60.1457 7.76432 60.4572 8.08659 60.7651 8.48047C61.0802 8.87435 61.3381 9.31836 61.5386 9.8125C61.7463 10.2995 61.911 10.8831 62.0327 11.5635C62.1616 12.2438 62.2261 12.9886 62.2261 13.7979C62.2261 14.6071 62.1616 15.3519 62.0327 16.0322C61.911 16.7126 61.7463 17.2998 61.5386 17.7939C61.3381 18.2809 61.0802 18.7214 60.7651 19.1152C60.4572 19.5091 60.1457 19.835 59.8306 20.0928C59.5226 20.3434 59.1646 20.5618 58.7563 20.748C58.3481 20.9342 57.9793 21.0739 57.6499 21.167C57.3276 21.2601 56.9588 21.3353 56.5435 21.3926C56.1281 21.4427 55.7915 21.4749 55.5337 21.4893C55.283 21.4964 54.9966 21.5 54.6743 21.5H49.2817ZM52.5366 19.0186H54.4595C56.0994 19.0186 57.2596 18.6283 57.9399 17.8477C58.6203 17.0671 58.9604 15.7171 58.9604 13.7979C58.9604 12.9313 58.9067 12.2008 58.7993 11.6064C58.6991 11.012 58.5451 10.5143 58.3374 10.1133C58.1369 9.71224 57.8504 9.4043 57.478 9.18945C57.1056 8.96745 56.6831 8.81348 56.2104 8.72754C55.745 8.63444 55.1613 8.58789 54.4595 8.58789H52.5366V19.0186ZM69.5522 21.8545C69.008 21.8545 68.4744 21.79 67.9517 21.6611C67.436 21.5322 66.9347 21.321 66.4478 21.0273C65.9679 20.7266 65.5454 20.3577 65.1802 19.9209C64.8221 19.484 64.5321 18.9362 64.3101 18.2773C64.0952 17.6113 63.9878 16.8737 63.9878 16.0645C63.9878 15.2552 64.0952 14.5176 64.3101 13.8516C64.5321 13.1784 64.8221 12.6198 65.1802 12.1758C65.5454 11.7246 65.9679 11.3451 66.4478 11.0371C66.9347 10.722 67.436 10.4964 67.9517 10.3604C68.4744 10.2171 69.008 10.1455 69.5522 10.1455C70.0965 10.1455 70.6157 10.2171 71.1099 10.3604C71.6112 10.4964 72.0838 10.722 72.5278 11.0371C72.979 11.3451 73.3693 11.7246 73.6987 12.1758C74.0353 12.627 74.3003 13.1855 74.4937 13.8516C74.687 14.5176 74.7837 15.2552 74.7837 16.0645V16.6553H67.2427C67.2427 17.5433 67.436 18.2165 67.8228 18.6748C68.2095 19.1331 68.786 19.3623 69.5522 19.3623C69.9103 19.3623 70.2254 19.3158 70.4976 19.2227C70.7769 19.1296 70.9917 19.0078 71.1421 18.8574C71.2925 18.6999 71.4035 18.5566 71.4751 18.4277C71.5539 18.2917 71.6112 18.1556 71.647 18.0195L74.7837 18.2451C74.7479 18.9541 74.4757 19.5879 73.9673 20.1465C73.466 20.7051 72.825 21.1312 72.0444 21.4248C71.271 21.7113 70.4403 21.8545 69.5522 21.8545ZM67.2427 14.7217H71.8403C71.8403 14.1344 71.6398 13.6403 71.2388 13.2393C70.8449 12.8382 70.2827 12.6377 69.5522 12.6377C68.8218 12.6377 68.2524 12.8382 67.8442 13.2393C67.4432 13.6403 67.2427 14.1344 67.2427 14.7217ZM83.27 21.8545C81.2147 21.8545 79.6177 21.2816 78.479 20.1357C77.3403 18.9899 76.771 17.3929 76.771 15.3447L80.0366 15.1191C79.965 16.5085 80.2192 17.5648 80.7993 18.2881C81.3866 19.0042 82.2101 19.3623 83.27 19.3623C84.1867 19.3623 84.8634 19.1403 85.3003 18.6963C85.7443 18.2451 85.9663 17.7044 85.9663 17.0742C85.9663 16.2578 85.687 15.6634 85.1284 15.291C84.5698 14.9186 83.4884 14.5749 81.8843 14.2598C80.452 13.9733 79.3312 13.4469 78.522 12.6807C77.7127 11.9072 77.3081 10.9762 77.3081 9.8877C77.3081 8.72038 77.7951 7.73926 78.769 6.94434C79.7502 6.14941 81.0285 5.75195 82.604 5.75195C84.4731 5.75195 85.9054 6.16732 86.9009 6.99805C87.8963 7.82878 88.394 9.03906 88.394 10.6289L85.1392 10.8545C85.1392 9.95215 84.91 9.28971 84.4517 8.86719C84.0005 8.44466 83.3846 8.2334 82.604 8.2334C81.9523 8.2334 81.4474 8.38021 81.0894 8.67383C80.7384 8.96745 80.563 9.37207 80.563 9.8877C80.563 10.4391 80.7563 10.8617 81.1431 11.1553C81.5298 11.4489 82.2817 11.7139 83.3989 11.9502C84.0506 12.0863 84.6235 12.2259 85.1177 12.3691C85.6118 12.5124 86.131 12.7165 86.6753 12.9814C87.2196 13.2464 87.6672 13.5472 88.0181 13.8838C88.369 14.2132 88.659 14.6322 88.8882 15.1406C89.1174 15.6491 89.2319 16.222 89.2319 16.8594C89.2319 18.3633 88.6841 19.5736 87.5884 20.4902C86.4998 21.3997 85.0604 21.8545 83.27 21.8545ZM96.4937 21.8545C95.8993 21.8545 95.3263 21.7829 94.7749 21.6396C94.2235 21.5036 93.7007 21.2816 93.2065 20.9736C92.7196 20.6657 92.2935 20.2897 91.9282 19.8457C91.5701 19.4017 91.2837 18.8574 91.0688 18.2129C90.8612 17.5612 90.7573 16.8451 90.7573 16.0645C90.7573 15.0905 90.9185 14.2168 91.2407 13.4434C91.563 12.6699 91.9927 12.0505 92.5298 11.585C93.0741 11.1123 93.6828 10.7542 94.356 10.5107C95.0291 10.2673 95.7417 10.1455 96.4937 10.1455C97.0666 10.1455 97.5894 10.1885 98.062 10.2744C98.5418 10.3532 99.0073 10.4964 99.4585 10.7041C99.9097 10.9118 100.3 11.1839 100.629 11.5205C100.959 11.8499 101.238 12.2832 101.467 12.8203C101.696 13.3503 101.85 13.9626 101.929 14.6572L98.7173 14.8828C98.5526 14.0664 98.2983 13.4899 97.9546 13.1533C97.618 12.8096 97.131 12.6377 96.4937 12.6377C95.7131 12.6377 95.1043 12.9456 94.6675 13.5615C94.2306 14.1774 94.0122 15.0046 94.0122 16.043C94.0122 18.2559 94.8394 19.3623 96.4937 19.3623C97.0881 19.3623 97.5679 19.2083 97.9331 18.9004C98.2983 18.5853 98.5597 18.0374 98.7173 17.2568L101.929 17.4717C101.858 18.1592 101.704 18.7643 101.467 19.2871C101.238 19.8099 100.959 20.2324 100.629 20.5547C100.3 20.8698 99.9061 21.1276 99.4478 21.3281C98.9966 21.5286 98.5347 21.6647 98.062 21.7363C97.5894 21.8151 97.0666 21.8545 96.4937 21.8545ZM104.045 21.5V10.5H107.3V21.5H104.045ZM103.917 8.73828V5.88086H107.44V8.73828H103.917Z" fill="white"/>
<path d="M48.5376 36.858H50.1216C50.1656 37.474 50.3489 38.024 50.6716 38.508C50.9943 38.992 51.4343 39.3733 51.9916 39.652C52.5636 39.9307 53.2309 40.07 53.9936 40.07C54.6536 40.07 55.2036 39.9747 55.6436 39.784C56.0983 39.5787 56.4356 39.3 56.6556 38.948C56.8903 38.596 57.0076 38.1853 57.0076 37.716C57.0076 37.232 56.8903 36.8433 56.6556 36.55C56.4209 36.2567 56.0836 36.0073 55.6436 35.802C55.2036 35.5967 54.6829 35.3987 54.0816 35.208C53.5096 35.032 52.9303 34.8267 52.3436 34.592C51.7569 34.3573 51.2069 34.0713 50.6936 33.734C50.1949 33.3967 49.7916 32.9933 49.4836 32.524C49.1756 32.04 49.0216 31.4607 49.0216 30.786C49.0216 30.126 49.1976 29.51 49.5496 28.938C49.9163 28.3513 50.4443 27.882 51.1336 27.53C51.8376 27.1633 52.6809 26.98 53.6636 26.98C55.2036 26.98 56.3549 27.398 57.1176 28.234C57.8803 29.07 58.2469 30.1773 58.2176 31.556H56.6336C56.6043 30.5147 56.3109 29.7667 55.7536 29.312C55.1963 28.8573 54.4703 28.63 53.5756 28.63C52.8276 28.63 52.1749 28.806 51.6176 29.158C51.0603 29.4953 50.7816 30.0307 50.7816 30.764C50.7816 31.0867 50.8403 31.3727 50.9576 31.622C51.0896 31.8567 51.2949 32.0767 51.5736 32.282C51.8669 32.4873 52.2556 32.6927 52.7396 32.898C53.2383 33.0887 53.8469 33.3013 54.5656 33.536C55.0349 33.6827 55.5116 33.8587 55.9956 34.064C56.4943 34.2693 56.9489 34.526 57.3596 34.834C57.7849 35.142 58.1223 35.538 58.3716 36.022C58.6356 36.4913 58.7676 37.0853 58.7676 37.804C58.7676 38.4933 58.5989 39.1387 58.2616 39.74C57.9389 40.3267 57.4256 40.8033 56.7216 41.17C56.0323 41.5367 55.1376 41.72 54.0376 41.72C53.0989 41.72 52.2923 41.5953 51.6176 41.346C50.9576 41.082 50.4149 40.7447 49.9896 40.334C49.5643 39.9233 49.2343 39.498 48.9996 39.058C48.7796 38.6033 48.6329 38.178 48.5596 37.782C48.4863 37.386 48.4789 37.078 48.5376 36.858ZM70.4059 41.5H68.6459V30.5H70.4059V41.5ZM68.7559 36.374L68.7779 36.99C68.7633 37.166 68.7193 37.4373 68.6459 37.804C68.5873 38.1707 68.4773 38.5813 68.3159 39.036C68.1693 39.476 67.9493 39.9013 67.6559 40.312C67.3773 40.7227 67.0106 41.06 66.5559 41.324C66.1159 41.588 65.5659 41.72 64.9059 41.72C64.4806 41.72 64.0406 41.654 63.5859 41.522C63.1459 41.4047 62.7353 41.2067 62.3539 40.928C61.9726 40.6347 61.6646 40.2313 61.4299 39.718C61.1953 39.2047 61.0779 38.5667 61.0779 37.804V30.5H62.8379V37.364C62.8379 38.024 62.9406 38.5447 63.1459 38.926C63.3659 39.2927 63.6593 39.5567 64.0259 39.718C64.3926 39.8793 64.8033 39.96 65.2579 39.96C66.0059 39.96 66.6293 39.7693 67.1279 39.388C67.6266 39.0067 68.0079 38.5373 68.2719 37.98C68.5359 37.4227 68.6973 36.8873 68.7559 36.374ZM73.2596 30.5H75.0196V41.5H73.2596V30.5ZM78.8036 30.28C79.3903 30.28 79.9183 30.368 80.3876 30.544C80.8569 30.72 81.2529 30.9767 81.5756 31.314C81.8983 31.6513 82.1476 32.062 82.3236 32.546C82.4996 33.0153 82.5876 33.5507 82.5876 34.152V41.5H80.8276V34.592C80.8276 33.7413 80.6296 33.1033 80.2336 32.678C79.8376 32.2527 79.2436 32.04 78.4516 32.04C77.8503 32.04 77.2929 32.194 76.7796 32.502C76.2663 32.81 75.8409 33.2353 75.5036 33.778C75.1809 34.306 74.9829 34.922 74.9096 35.626L74.8876 34.35C74.9609 33.734 75.1076 33.1767 75.3276 32.678C75.5623 32.1793 75.8483 31.754 76.1856 31.402C76.5376 31.0353 76.9336 30.7567 77.3736 30.566C77.8283 30.3753 78.3049 30.28 78.8036 30.28ZM86.1956 30.28C86.7823 30.28 87.3103 30.368 87.7796 30.544C88.2489 30.72 88.6449 30.9767 88.9676 31.314C89.2903 31.6513 89.5396 32.062 89.7156 32.546C89.8916 33.0153 89.9796 33.5507 89.9796 34.152V41.5H88.2196V34.592C88.2196 33.7413 88.0216 33.1033 87.6256 32.678C87.2296 32.2527 86.6356 32.04 85.8436 32.04C85.2423 32.04 84.6849 32.194 84.1716 32.502C83.6583 32.81 83.2329 33.2353 82.8956 33.778C82.5729 34.306 82.3749 34.922 82.3016 35.626L82.2796 34.35C82.3529 33.734 82.4996 33.1767 82.7196 32.678C82.9543 32.1793 83.2403 31.754 83.5776 31.402C83.9296 31.0353 84.3256 30.7567 84.7656 30.566C85.2203 30.3753 85.6969 30.28 86.1956 30.28ZM92.8319 30.5H94.5919V41.5H92.8319V30.5ZM98.3759 30.28C98.9625 30.28 99.4905 30.368 99.9599 30.544C100.429 30.72 100.825 30.9767 101.148 31.314C101.471 31.6513 101.72 32.062 101.896 32.546C102.072 33.0153 102.16 33.5507 102.16 34.152V41.5H100.4V34.592C100.4 33.7413 100.202 33.1033 99.8059 32.678C99.4099 32.2527 98.8159 32.04 98.0239 32.04C97.4225 32.04 96.8652 32.194 96.3519 32.502C95.8385 32.81 95.4132 33.2353 95.0759 33.778C94.7532 34.306 94.5552 34.922 94.4819 35.626L94.4599 34.35C94.5332 33.734 94.6799 33.1767 94.8999 32.678C95.1345 32.1793 95.4205 31.754 95.7579 31.402C96.1099 31.0353 96.5059 30.7567 96.9459 30.566C97.4005 30.3753 97.8772 30.28 98.3759 30.28ZM105.768 30.28C106.355 30.28 106.883 30.368 107.352 30.544C107.821 30.72 108.217 30.9767 108.54 31.314C108.863 31.6513 109.112 32.062 109.288 32.546C109.464 33.0153 109.552 33.5507 109.552 34.152V41.5H107.792V34.592C107.792 33.7413 107.594 33.1033 107.198 32.678C106.802 32.2527 106.208 32.04 105.416 32.04C104.815 32.04 104.257 32.194 103.744 32.502C103.231 32.81 102.805 33.2353 102.468 33.778C102.145 34.306 101.947 34.922 101.874 35.626L101.852 34.35C101.925 33.734 102.072 33.1767 102.292 32.678C102.527 32.1793 102.813 31.754 103.15 31.402C103.502 31.0353 103.898 30.7567 104.338 30.566C104.793 30.3753 105.269 30.28 105.768 30.28ZM114.582 26.1V28.234H112.294V26.1H114.582ZM112.558 30.5H114.318V41.5H112.558V30.5ZM116.554 30.5H123.022V32.15H116.554V30.5ZM118.908 27.64H120.668V41.5H118.908V27.64Z" fill="white"/>
<path d="M20.1665 43.1393C24.6777 45.7439 31.7246 43.7437 34.3291 39.2326L34.6716 38.6393C35.8972 36.5165 35.8036 34.587 35.6716 32.1393L35.6328 31.4191C34.8705 17.2779 19.9426 8.90243 7.31483 15.3128L8.22014 17.0962C19.5962 11.3212 32.9534 18.87 33.6357 31.5267L33.6745 32.247C33.8088 34.7377 33.8323 36.0931 32.9396 37.6393L32.5971 38.2326C31.6124 39.9381 29.6917 41.2967 27.4262 41.9277C25.1602 42.5588 22.8499 42.3792 21.1665 41.4073L21.1497 41.3976L6.65077 33.3982L5.6665 35.1393L20.1665 43.1393Z" fill="url(#paint0_linear_641_1022)"/>
<path d="M6.18415 18.3611C2.27395 20.6977 0.811799 26.0466 3.06839 29.8312C4.12521 31.6036 5.67435 33.0306 7.52736 33.9388L8.17509 34.2562C19.5217 39.8169 33.1642 31.3474 33.6732 18.5598L35.6716 18.6393C35.1083 32.7898 20.0117 42.2842 7.29495 36.0521L6.64722 35.7347C4.44611 34.656 2.60593 32.9608 1.35058 30.8554C-1.5109 26.0564 0.367492 19.5008 5.16652 16.6393L16.949 9.74365L17.9572 11.4709L6.18415 18.3611Z" fill="url(#paint1_linear_641_1022)"/>
<path fill-rule="evenodd" clip-rule="evenodd" d="M33.7278 34.1394L33.7278 16.6168C33.7278 12.134 30.0937 8.5 25.6109 8.5C23.5474 8.5 21.5283 9.09972 19.7993 10.2262L19.195 10.62C8.54048 17.5618 8.54048 33.1945 19.195 40.1363L19.7993 40.5301C21.5283 41.6565 23.5474 42.2563 25.6109 42.2563C30.0937 42.2563 33.7278 38.6222 33.7278 34.1394ZM18.7075 8.5505C20.7613 7.21239 23.1597 6.5 25.6109 6.5C31.1983 6.5 35.7278 11.0295 35.7278 16.6168V34.1394C35.7278 39.7268 31.1983 44.2563 25.6109 44.2563C23.1597 44.2563 20.7613 43.5439 18.7076 42.2058L18.1032 41.812C6.23775 34.0812 6.23774 16.675 18.1032 8.94427L18.7075 8.5505Z" fill="url(#paint2_linear_641_1022)"/>
<defs>
<linearGradient id="paint0_linear_641_1022" x1="14.2314" y1="14.1135" x2="27.2314" y2="26.1135" gradientUnits="userSpaceOnUse">
<stop stop-color="#EFEBFF"/>
<stop offset="1" stop-color="#DED6FF"/>
</linearGradient>
<linearGradient id="paint1_linear_641_1022" x1="10.1573" y1="10.6389" x2="21.7728" y2="24.6654" gradientUnits="userSpaceOnUse">
<stop stop-color="#EFEBFF"/>
<stop offset="1" stop-color="#DED6FF"/>
</linearGradient>
<linearGradient id="paint2_linear_641_1022" x1="24.7313" y1="6.61365" x2="26.7313" y2="47.6136" gradientUnits="userSpaceOnUse">
<stop stop-color="white"/>
<stop offset="1" stop-color="#DED6FF"/>
</linearGradient>
</defs>
</svg>
