<svg width="24" height="24" viewBox="0 0 24 24" fill="none" xmlns="http://www.w3.org/2000/svg">
<path d="M7.27557 11.4699H2C2.25334 6.5562 6.00853 2.57418 10.8036 2C8.68932 4.71071 7.4536 8.0175 7.27557 11.4699Z" fill="white"/>
<path d="M8.33115 11.4699C8.51885 8.06104 9.80741 4.80654 12 2.20133C14.1926 4.80654 15.4812 8.06104 15.6689 11.4699H8.33115Z" fill="white"/>
<path d="M12 21.7987C14.1926 19.1935 15.4812 15.939 15.6689 12.5301H8.33115C8.51885 15.939 9.80741 19.1935 12 21.7987Z" fill="white"/>
<path d="M2 12.5301H7.27557C7.4536 15.9825 8.68932 19.2893 10.8036 22C6.00853 21.4258 2.25334 17.4438 2 12.5301Z" fill="white"/>
<path d="M16.7244 12.5301C16.5464 15.9825 15.3107 19.2893 13.1964 22C17.9915 21.4258 21.7467 17.4438 22 12.5301H16.7244Z" fill="white"/>
<path d="M16.7244 11.4699H22C21.7467 6.5562 17.9915 2.57418 13.1964 2C15.3107 4.71071 16.5464 8.0175 16.7244 11.4699Z" fill="white"/>
</svg>
