<svg width="568" height="28" viewBox="0 0 568 28" fill="none" xmlns="http://www.w3.org/2000/svg">
<path d="M10.3338 3.04V28H6.85375V3.04H0.69375V-1.90735e-06H16.4938V3.04H10.3338ZM42.8859 28V25.08H45.6859V2.92H42.8859V-1.90735e-06H51.9659V2.92H49.1659V25.08H51.9659V28H42.8859ZM96.2613 28V2.88L91.9813 18.6H88.6613L84.3813 2.88V28H81.1813V-1.90735e-06H86.8213L90.4613 14.32L94.0613 -1.90735e-06H99.5813V28H96.2613ZM130.377 28V-1.90735e-06H143.497V2.92H133.857V12.08H142.497V15H133.857V25.08H143.497V28H130.377ZM214.713 16.4H211.153V28H207.673V-1.90735e-06H214.833C217.1 -1.90735e-06 218.807 0.506665 219.953 1.52C221.127 2.50667 221.713 4.08 221.713 6.24V10.08C221.713 13.0933 220.513 14.9733 218.113 15.72L223.673 28H219.873L214.713 16.4ZM218.233 5.88C218.233 4.86667 217.993 4.13333 217.513 3.68C217.06 3.22667 216.327 3 215.313 3H211.153V13.4H215.313C216.327 13.4 217.06 13.1733 217.513 12.72C217.993 12.24 218.233 11.4933 218.233 10.48V5.88ZM252.455 28V-1.90735e-06H265.575V2.92H255.935V12.08H264.575V15H255.935V25.08H265.575V28H252.455ZM310.441 28V2.88L306.161 18.6H302.841L298.561 2.88V28H295.361V-1.90735e-06H301.001L304.641 14.32L308.241 -1.90735e-06H313.761V28H310.441ZM356.596 28L355.076 20.92H347.276L345.716 28H342.156L348.916 -1.90735e-06H353.516L360.156 28H356.596ZM351.156 2.64L347.916 17.92H354.436L351.156 2.64ZM386.956 28V25.08H389.756V2.92H386.956V-1.90735e-06H396.036V2.92H393.236V25.08H396.036V28H386.956ZM434.612 28L428.492 2.96V28H425.252V-1.90735e-06H430.932L437.092 25.04V-1.90735e-06H440.332V28H434.612ZM469.527 28V25.08H472.327V2.92H469.527V-1.90735e-06H478.607V2.92H475.807V25.08H478.607V28H469.527ZM517.182 28L511.062 2.96V28H507.822V-1.90735e-06H513.502L519.662 25.04V-1.90735e-06H522.902V28H517.182ZM560.497 28C558.177 28 556.39 27.44 555.137 26.32C553.91 25.1733 553.297 23.4667 553.297 21.2V6.8C553.297 4.53333 553.91 2.84 555.137 1.72C556.39 0.573332 558.177 -1.90735e-06 560.497 -1.90735e-06H565.897V3.04H560.097C559.11 3.04 558.31 3.33333 557.697 3.92C557.084 4.50666 556.777 5.21333 556.777 6.04V21.96C556.777 22.7867 557.084 23.4933 557.697 24.08C558.31 24.6667 559.11 24.96 560.097 24.96H563.777V16.28H560.417V13.28H567.097V28H560.497Z" fill="white"/>
</svg>
