<svg width="32" height="34" viewBox="0 0 32 34" fill="none" xmlns="http://www.w3.org/2000/svg">
<path d="M14.6767 2.54631C16.3796 0.380711 19.7882 0.870681 20.8123 3.42826L27.8609 21.0331C28.8849 23.5906 26.7562 26.2976 24.0293 25.9057L5.25876 23.2075C2.53183 22.8156 1.25183 19.6186 2.95475 17.453L14.6767 2.54631Z" stroke="#54FF7A" stroke-width="0.35"/>
<path d="M7.71721 23.5211C5.32296 23.5211 3.82655 20.9292 5.02367 18.8558L13.3218 4.4829C14.519 2.40942 17.5118 2.40942 18.7089 4.4829L27.0071 18.8558C28.2042 20.9292 26.7078 23.5211 24.3136 23.5211L7.71721 23.5211Z" stroke="#54FF7A" stroke-width="0.35"/>
<path d="M24.1183 19.9749C25.9578 19.482 26.5739 17.1827 25.2273 15.8361L15.7653 6.37405C14.4187 5.02746 12.1193 5.64356 11.6264 7.48303L8.16309 20.4085C7.6702 22.2479 9.35343 23.9312 11.1929 23.4383L24.1183 19.9749Z" stroke="#54FF7A" stroke-width="0.35"/>
<path d="M23.085 17.4321C24.3615 16.6951 24.3615 14.8527 23.085 14.1157L13.9425 8.83723C12.666 8.10024 11.0704 9.02147 11.0704 10.4954L11.0704 21.0524C11.0704 22.5264 12.666 23.4476 13.9425 22.7106L23.085 17.4321Z" stroke="#54FF7A" stroke-width="0.35"/>
<path d="M21.9397 15.7705C22.7504 14.9951 22.3889 13.6628 21.263 13.3742L13.0537 11.2702C11.918 10.9791 10.9105 11.9724 11.2052 13.0243L13.4049 20.8768C13.7024 21.939 15.1044 22.3087 15.93 21.5189L21.9397 15.7705Z" stroke="#54FF7A" stroke-width="0.35"/>
</svg>
